a1000-p1000.ufo
<glyph name="numbersign" format="1">
  <advance width="740"/>
  <unicode hex="0023"/>
  <outline>
    <contour>
      <point x="138" y="0" type="line"/>
      <point x="288" y="0" type="line"/>
      <point x="348" y="740" type="line"/>
      <point x="198" y="740" type="line"/>
    </contour>
    <contour>
      <point x="42" y="163" type="line"/>
      <point x="698" y="163" type="line"/>
      <point x="698" y="300" type="line"/>
      <point x="42" y="300" type="line"/>
    </contour>
    <contour>
      <point x="42" y="433" type="line"/>
      <point x="698" y="433" type="line"/>
      <point x="698" y="574" type="line"/>
      <point x="42" y="574" type="line"/>
    </contour>
    <contour>
      <point x="404" y="0" type="line"/>
      <point x="554" y="0" type="line"/>
      <point x="614" y="740" type="line"/>
      <point x="464" y="740" type="line"/>
    </contour>
  </outline>
</glyph>
<glyph name="quotesingle" format="1">
  <advance width="256"/>
  <unicode hex="0027"/>
  <outline>
    <contour>
      <point x="51" y="808" type="line"/>
      <point x="51" y="480" type="line"/>
      <point x="176" y="480" type="line"/>
      <point x="229" y="804" type="line"/>
      <point x="229" y="808" type="line"/>
    </contour>
  </outline>
</glyph>
<glyph name="parenleft" format="1">
  <advance width="382"/>
  <unicode hex="0028"/>
  <outline>
    <contour>
      <point x="183" y="-160" type="curve"/>
      <point x="383" y="-160" type="line"/>
      <point x="383" y="-156" type="line"/>
      <point x="281" y="-6"/>
      <point x="211" y="174"/>
      <point x="211" y="354" type="curve" smooth="yes"/>
      <point x="211" y="534"/>
      <point x="281" y="714"/>
      <point x="383" y="864" type="curve"/>
      <point x="383" y="868" type="line"/>
      <point x="183" y="868" type="line"/>
      <point x="81" y="718"/>
      <point x="30" y="536"/>
      <point x="30" y="354" type="curve" smooth="yes"/>
      <point x="30" y="172"/>
      <point x="81" y="-10"/>
    </contour>
  </outline>
</glyph>
<glyph name="parenright" format="1">
  <advance width="381"/>
  <unicode hex="0029"/>
  <outline>
    <contour>
      <point x="198" y="-160" type="line"/>
      <point x="300" y="-10"/>
      <point x="351" y="172"/>
      <point x="351" y="354" type="curve" smooth="yes"/>
      <point x="351" y="536"/>
      <point x="300" y="718"/>
      <point x="198" y="868" type="curve"/>
      <point x="-1" y="868" type="line"/>
      <point x="-1" y="864" type="line"/>
      <point x="101" y="714"/>
      <point x="171" y="534"/>
      <point x="171" y="354" type="curve" smooth="yes"/>
      <point x="171" y="174"/>
      <point x="101" y="-6"/>
      <point x="-1" y="-156" type="curve"/>
      <point x="-1" y="-160" type="line"/>
    </contour>
  </outline>
</glyph>
<glyph name="asterisk" format="1">
  <advance width="508"/>
  <unicode hex="002A"/>
  <outline>
    <contour>
      <point x="247" y="609" type="line"/>
      <point x="262" y="609" type="line"/>
      <point x="271" y="619" type="line"/>
      <point x="313" y="766" type="line"/>
      <point x="313" y="838" type="line"/>
      <point x="195" y="838" type="line"/>
      <point x="195" y="766" type="line"/>
      <point x="236" y="619" type="line"/>
    </contour>
    <contour>
      <point x="249" y="602" type="line"/>
      <point x="260" y="635" type="line"/>
      <point x="133" y="720" type="line"/>
      <point x="64" y="742" type="line"/>
      <point x="28" y="630" type="line"/>
      <point x="96" y="607" type="line"/>
    </contour>
    <contour>
      <point x="172" y="408" type="line"/>
      <point x="215" y="466" type="line"/>
      <point x="267" y="610" type="line"/>
      <point x="239" y="630" type="line"/>
      <point x="119" y="536" type="line"/>
      <point x="76" y="477" type="line"/>
    </contour>
    <contour>
      <point x="335" y="408" type="line"/>
      <point x="431" y="477" type="line"/>
      <point x="388" y="536" type="line"/>
      <point x="268" y="630" type="line"/>
      <point x="240" y="610" type="line"/>
      <point x="292" y="466" type="line"/>
    </contour>
    <contour>
      <point x="479" y="630" type="line"/>
      <point x="443" y="742" type="line"/>
      <point x="374" y="720" type="line"/>
      <point x="247" y="635" type="line"/>
      <point x="258" y="602" type="line"/>
      <point x="411" y="607" type="line"/>
    </contour>
  </outline>
</glyph>
<glyph name="plus" format="1">
  <advance width="532"/>
  <unicode hex="002B"/>
  <outline>
    <contour>
      <point x="29" y="303" type="line"/>
      <point x="503" y="303" type="line"/>
      <point x="503" y="437" type="line"/>
      <point x="29" y="437" type="line"/>
    </contour>
    <contour>
      <point x="199" y="148" type="line"/>
      <point x="333" y="148" type="line"/>
      <point x="333" y="592" type="line"/>
      <point x="199" y="592" type="line"/>
    </contour>
  </outline>
</glyph>
<glyph name="comma" format="1">
  <advance width="329"/>
  <unicode hex="002C"/>
  <outline>
    <contour>
      <point x="193" y="-155" type="line"/>
      <point x="294" y="217" type="line"/>
      <point x="64" y="217" type="line"/>
      <point x="22" y="-145" type="line"/>
    </contour>
  </outline>
</glyph>
<glyph name="hyphen" format="1">
  <advance width="596"/>
  <unicode hex="002D"/>
  <outline>
    <contour>
      <point x="52" y="198" type="line"/>
      <point x="544" y="198" type="line"/>
      <point x="544" y="362" type="line"/>
      <point x="52" y="362" type="line"/>
    </contour>
  </outline>
</glyph>
<glyph name="zero" format="1">
  <advance width="796"/>
  <unicode hex="0030"/>
  <outline>
    <contour>
      <point x="398" y="-10" type="curve"/>
      <point x="625" y="-10"/>
      <point x="758" y="114"/>
      <point x="758" y="369" type="curve" smooth="yes"/>
      <point x="758" y="625"/>
      <point x="625" y="750"/>
      <point x="398" y="750" type="curve" smooth="yes"/>
      <point x="172" y="750"/>
      <point x="38" y="625"/>
      <point x="38" y="369" type="curve" smooth="yes"/>
      <point x="38" y="114"/>
      <point x="172" y="-10"/>
    </contour>
    <contour>
      <point x="398" y="173" type="curve"/>
      <point x="307" y="173"/>
      <point x="271" y="209"/>
      <point x="271" y="369" type="curve" smooth="yes"/>
      <point x="271" y="531"/>
      <point x="307" y="567"/>
      <point x="398" y="567" type="curve" smooth="yes"/>
      <point x="486" y="567"/>
      <point x="525" y="531"/>
      <point x="525" y="369" type="curve" smooth="yes"/>
      <point x="525" y="209"/>
      <point x="486" y="173"/>
    </contour>
  </outline>
</glyph>
<glyph name="six" format="1">
  <advance width="753"/>
  <unicode hex="0036"/>
  <outline>
    <contour>
      <point x="386" y="-10" type="curve" smooth="yes"/>
      <point x="599" y="-10"/>
      <point x="729" y="90"/>
      <point x="729" y="253" type="curve" smooth="yes"/>
      <point x="729" y="390"/>
      <point x="618" y="478"/>
      <point x="447" y="478" type="curve" smooth="yes"/>
      <point x="344" y="478"/>
      <point x="264" y="442"/>
      <point x="233" y="382" type="curve"/>
      <point x="261" y="288" type="line"/>
      <point x="276" y="316"/>
      <point x="333" y="340"/>
      <point x="386" y="340" type="curve" smooth="yes"/>
      <point x="457" y="340"/>
      <point x="487" y="313"/>
      <point x="487" y="247" type="curve" smooth="yes"/>
      <point x="487" y="179"/>
      <point x="456" y="149"/>
      <point x="386" y="149" type="curve" smooth="yes"/>
      <point x="307" y="149"/>
      <point x="274" y="203"/>
      <point x="274" y="335" type="curve" smooth="yes"/>
      <point x="274" y="522"/>
      <point x="331" y="586"/>
      <point x="502" y="586" type="curve" smooth="yes"/>
      <point x="542" y="586"/>
      <point x="587" y="581"/>
      <point x="650" y="571" type="curve"/>
      <point x="679" y="730" type="line"/>
      <point x="610" y="743"/>
      <point x="549" y="750"/>
      <point x="493" y="750" type="curve" smooth="yes"/>
      <point x="191" y="750"/>
      <point x="38" y="611"/>
      <point x="38" y="336" type="curve" smooth="yes"/>
      <point x="38" y="109"/>
      <point x="164" y="-10"/>
    </contour>
  </outline>
</glyph>
<glyph name="seven" format="1">
  <advance width="622"/>
  <unicode hex="0037"/>
  <outline>
    <contour>
      <point x="292" y="-28" type="line"/>
      <point x="91" y="0" type="line"/>
      <point x="91" y="21" type="line"/>
      <point x="364" y="566" type="line"/>
      <point x="425" y="543" type="line"/>
      <point x="27" y="543" type="line"/>
      <point x="17" y="722" type="line"/>
      <point x="37" y="740" type="line"/>
      <point x="585" y="740" type="line"/>
      <point x="617" y="617" type="line"/>
      <point x="617" y="608" type="line"/>
      <point x="345" y="0" type="line"/>
    </contour>
  </outline>
</glyph>
<glyph name="greater" format="1">
  <advance width="573"/>
  <unicode hex="003E"/>
  <outline>
    <contour>
      <point x="455" y="320" type="line"/>
      <point x="544" y="320" type="line"/>
      <point x="544" y="429" type="line"/>
      <point x="61" y="636" type="line"/>
      <point x="61" y="489" type="line"/>
    </contour>
    <contour>
      <point x="61" y="90" type="line"/>
      <point x="544" y="297" type="line"/>
      <point x="544" y="406" type="line"/>
      <point x="455" y="406" type="line"/>
      <point x="61" y="237" type="line"/>
    </contour>
  </outline>
</glyph>
<glyph name="question" format="1">
  <advance width="523"/>
  <unicode hex="003F"/>
  <outline>
    <contour>
      <point x="153" y="247" type="line"/>
      <point x="299" y="247" type="line"/>
      <point x="299" y="261" type="line"/>
      <point x="308" y="347" type="line"/>
      <point x="427" y="368"/>
      <point x="496" y="441"/>
      <point x="496" y="549" type="curve" smooth="yes"/>
      <point x="496" y="675"/>
      <point x="401" y="746"/>
      <point x="233" y="746" type="curve" smooth="yes"/>
      <point x="163" y="746"/>
      <point x="103" y="740"/>
      <point x="31" y="727" type="curve"/>
      <point x="36" y="559" type="line"/>
      <point x="73" y="565"/>
      <point x="136" y="573"/>
      <point x="189" y="573" type="curve" smooth="yes"/>
      <point x="257" y="573"/>
      <point x="292" y="562"/>
      <point x="292" y="521" type="curve" smooth="yes"/>
      <point x="292" y="485"/>
      <point x="234" y="453"/>
      <point x="136" y="435" type="curve"/>
      <point x="153" y="260" type="line"/>
    </contour>
    <contour>
      <point x="231" y="-10" type="curve" smooth="yes"/>
      <point x="298" y="-10"/>
      <point x="337" y="26"/>
      <point x="337" y="90" type="curve" smooth="yes"/>
      <point x="337" y="154"/>
      <point x="298" y="190"/>
      <point x="231" y="190" type="curve" smooth="yes"/>
      <point x="164" y="190"/>
      <point x="125" y="154"/>
      <point x="125" y="90" type="curve" smooth="yes"/>
      <point x="125" y="26"/>
      <point x="164" y="-10"/>
    </contour>
  </outline>
</glyph>
<glyph name="at" format="1">
  <advance width="916"/>
  <unicode hex="0040"/>
  <outline>
    <contour>
      <point x="445" y="-129" type="curve" smooth="yes"/>
      <point x="505" y="-129"/>
      <point x="587" y="-115"/>
      <point x="685" y="-88" type="curve"/>
      <point x="653" y="33" type="line"/>
      <point x="567" y="9"/>
      <point x="496" y="-3"/>
      <point x="445" y="-3" type="curve" smooth="yes"/>
      <point x="271" y="-3"/>
      <point x="165" y="94"/>
      <point x="165" y="258" type="curve" smooth="yes"/>
      <point x="165" y="436"/>
      <point x="282" y="543"/>
      <point x="471" y="543" type="curve" smooth="yes"/>
      <point x="646" y="543"/>
      <point x="745" y="458"/>
      <point x="745" y="303" type="curve" smooth="yes"/>
      <point x="745" y="213"/>
      <point x="713" y="165"/>
      <point x="664" y="165" type="curve" smooth="yes"/>
      <point x="623" y="165"/>
      <point x="609" y="186"/>
      <point x="609" y="216" type="curve" smooth="yes"/>
      <point x="609" y="225"/>
      <point x="613" y="235"/>
      <point x="613" y="246" type="curve" smooth="yes"/>
      <point x="655" y="451" type="line"/>
      <point x="604" y="473"/>
      <point x="539" y="489"/>
      <point x="483" y="489" type="curve" smooth="yes"/>
      <point x="329" y="489"/>
      <point x="231" y="383"/>
      <point x="231" y="235" type="curve" smooth="yes"/>
      <point x="231" y="115"/>
      <point x="289" y="57"/>
      <point x="367" y="57" type="curve" smooth="yes"/>
      <point x="437" y="57"/>
      <point x="506" y="88"/>
      <point x="536" y="135" type="curve"/>
      <point x="541" y="135" type="line"/>
      <point x="541" y="135"/>
      <point x="561" y="54"/>
      <point x="656" y="54" type="curve" smooth="yes"/>
      <point x="796" y="54"/>
      <point x="874" y="142"/>
      <point x="874" y="303" type="curve" smooth="yes"/>
      <point x="874" y="534"/>
      <point x="726" y="668"/>
      <point x="471" y="668" type="curve" smooth="yes"/>
      <point x="202" y="668"/>
      <point x="35" y="511"/>
      <point x="35" y="258" type="curve" smooth="yes"/>
      <point x="35" y="18"/>
      <point x="193" y="-129"/>
    </contour>
    <contour>
      <point x="404" y="165" type="curve" smooth="yes"/>
      <point x="375" y="165"/>
      <point x="361" y="187"/>
      <point x="361" y="235" type="curve" smooth="yes"/>
      <point x="361" y="319"/>
      <point x="416" y="386"/>
      <point x="487" y="386" type="curve" smooth="yes"/>
      <point x="500" y="386"/>
      <point x="515" y="384"/>
      <point x="528" y="381" type="curve"/>
      <point x="505" y="266" type="line" smooth="yes"/>
      <point x="493" y="206"/>
      <point x="454" y="166"/>
    </contour>
  </outline>
</glyph>
<glyph name="A" format="1">
  <advance width="825"/>
  <unicode hex="0041"/>
  <outline>
    <contour>
      <point x="-5" y="0" type="line"/>
      <point x="223" y="0" type="line"/>
      <point x="269" y="148" type="line"/>
      <point x="555" y="148" type="line"/>
      <point x="602" y="0" type="line"/>
      <point x="830" y="0" type="line"/>
      <point x="830" y="12" type="line"/>
      <point x="585" y="740" type="line"/>
      <point x="240" y="740" type="line"/>
      <point x="-5" y="12" type="line"/>
    </contour>
    <contour>
      <point x="324" y="324" type="line"/>
      <point x="351" y="410" type="line"/>
      <point x="402" y="583" type="line"/>
      <point x="422" y="583" type="line"/>
      <point x="473" y="412" type="line"/>
      <point x="501" y="324" type="line"/>
    </contour>
    <contour>
      <point x="745" y="54" type="move" name="ogonek"/>
    </contour>
    <contour>
      <point x="412" y="885" type="move" name="topUC"/>
    </contour>
  </outline>
</glyph>
<glyph name="H" format="1">
  <advance width="898"/>
  <unicode hex="0048"/>
  <outline>
    <contour>
      <point x="65" y="0" type="line"/>
      <point x="300" y="0" type="line"/>
      <point x="300" y="292" type="line"/>
      <point x="598" y="292" type="line"/>
      <point x="598" y="0" type="line"/>
      <point x="833" y="0" type="line"/>
      <point x="833" y="740" type="line"/>
      <point x="598" y="740" type="line"/>
      <point x="598" y="468" type="line"/>
      <point x="300" y="468" type="line"/>
      <point x="300" y="740" type="line"/>
      <point x="65" y="740" type="line"/>
    </contour>
    <contour>
      <point x="447" y="885" type="move" name="topUC"/>
    </contour>
    <contour>
      <point x="447" y="-110" type="move" name="bottom"/>
    </contour>
  </outline>
</glyph>
<glyph name="J" format="1">
  <advance width="364"/>
  <unicode hex="004A"/>
  <outline>
    <contour>
      <point x="141" y="-220" type="line"/>
      <point x="261" y="-62"/>
      <point x="302" y="42"/>
      <point x="302" y="184" type="curve" smooth="yes"/>
      <point x="302" y="740" type="line"/>
      <point x="67" y="740" type="line"/>
      <point x="67" y="202" type="line" smooth="yes"/>
      <point x="67" y="64"/>
      <point x="49" y="-21"/>
      <point x="-8" y="-156" type="curve"/>
    </contour>
    <contour>
      <point x="184" y="885" type="move" name="topUC"/>
    </contour>
  </outline>
</glyph>
<glyph name="L" format="1">
  <advance width="644"/>
  <unicode hex="004C"/>
  <outline>
    <contour>
      <point x="65" y="0" type="line"/>
      <point x="631" y="0" type="line"/>
      <point x="631" y="175" type="line"/>
      <point x="300" y="175" type="line"/>
      <point x="300" y="740" type="line"/>
      <point x="65" y="740" type="line"/>
    </contour>
    <contour>
      <point x="185" y="885" type="move" name="topUC"/>
    </contour>
    <contour>
      <point x="547" y="370" type="move" name="periodcentered"/>
    </contour>
    <contour>
      <point x="547" y="674" type="move" name="caronalt"/>
    </contour>
    <contour>
      <point x="333" y="-110" type="move" name="bottom"/>
    </contour>
  </outline>
</glyph>
<glyph name="N" format="1">
  <advance width="882"/>
  <unicode hex="004E"/>
  <outline>
    <contour>
      <point x="65" y="0" type="line"/>
      <point x="269" y="0" type="line"/>
      <point x="269" y="412" type="line"/>
      <point x="279" y="412" type="line"/>
      <point x="360" y="312" type="line"/>
      <point x="635" y="0" type="line"/>
      <point x="817" y="0" type="line"/>
      <point x="817" y="740" type="line"/>
      <point x="613" y="740" type="line"/>
      <point x="613" y="328" type="line"/>
      <point x="603" y="328" type="line"/>
      <point x="536" y="412" type="line"/>
      <point x="247" y="740" type="line"/>
      <point x="65" y="740" type="line"/>
    </contour>
    <contour>
      <point x="456" y="885" type="move" name="topUC"/>
    </contour>
    <contour>
      <point x="456" y="-110" type="move" name="bottom"/>
    </contour>
  </outline>
</glyph>
<glyph name="Q" format="1">
  <advance width="867"/>
  <unicode hex="0051"/>
  <outline>
    <contour>
      <point x="778" y="-193" type="curve"/>
      <point x="806" y="-5" type="line"/>
      <point x="732" y="3"/>
      <point x="724" y="6"/>
      <point x="512" y="40" type="curve"/>
      <point x="512" y="54" type="line"/>
      <point x="710" y="25"/>
      <point x="837" y="153"/>
      <point x="837" y="369" type="curve" smooth="yes"/>
      <point x="837" y="608"/>
      <point x="686" y="750"/>
      <point x="434" y="750" type="curve" smooth="yes"/>
      <point x="183" y="750"/>
      <point x="31" y="607"/>
      <point x="31" y="369" type="curve" smooth="yes"/>
      <point x="31" y="85"/>
      <point x="195" y="-34"/>
    </contour>
    <contour>
      <point x="434" y="174" type="curve" smooth="yes"/>
      <point x="311" y="174"/>
      <point x="271" y="224"/>
      <point x="271" y="369" type="curve" smooth="yes"/>
      <point x="271" y="513"/>
      <point x="314" y="566"/>
      <point x="434" y="566" type="curve" smooth="yes"/>
      <point x="555" y="566"/>
      <point x="597" y="515"/>
      <point x="597" y="369" type="curve" smooth="yes"/>
      <point x="597" y="219"/>
      <point x="558" y="174"/>
    </contour>
  </outline>
</glyph>
<glyph name="T" format="1">
  <advance width="704"/>
  <unicode hex="0054"/>
  <outline>
    <contour>
      <point x="234" y="0" type="line"/>
      <point x="469" y="0" type="line"/>
      <point x="469" y="564" type="line"/>
      <point x="683" y="564" type="line"/>
      <point x="683" y="740" type="line"/>
      <point x="21" y="740" type="line"/>
      <point x="21" y="564" type="line"/>
      <point x="234" y="564" type="line"/>
    </contour>
    <contour>
      <point x="355" y="885" type="move" name="topUC"/>
    </contour>
    <contour>
      <point x="352" y="-110" type="move" name="bottom"/>
    </contour>
  </outline>
</glyph>
<glyph name="V" format="1">
  <advance width="815"/>
  <unicode hex="0056"/>
  <outline>
    <contour>
      <point x="253" y="0" type="line"/>
      <point x="562" y="0" type="line"/>
      <point x="821" y="740" type="line"/>
      <point x="571" y="740" type="line"/>
      <point x="454" y="380" type="line"/>
      <point x="415" y="221" type="line"/>
      <point x="405" y="221" type="line"/>
      <point x="366" y="380" type="line"/>
      <point x="249" y="740" type="line"/>
      <point x="-6" y="740" type="line"/>
    </contour>
  </outline>
</glyph>
<glyph name="W" format="1">
  <advance width="1195"/>
  <unicode hex="0057"/>
  <outline>
    <contour>
      <point x="184" y="0" type="line"/>
      <point x="502" y="0" type="line"/>
      <point x="566" y="265" type="line"/>
      <point x="592" y="473" type="line"/>
      <point x="603" y="473" type="line"/>
      <point x="629" y="265" type="line"/>
      <point x="693" y="0" type="line"/>
      <point x="1011" y="0" type="line"/>
      <point x="1187" y="740" type="line"/>
      <point x="936" y="740" type="line"/>
      <point x="868" y="351" type="line"/>
      <point x="851" y="212" type="line"/>
      <point x="836" y="212" type="line"/>
      <point x="810" y="351" type="line"/>
      <point x="714" y="740" type="line"/>
      <point x="481" y="740" type="line"/>
      <point x="385" y="351" type="line"/>
      <point x="359" y="212" type="line"/>
      <point x="344" y="212" type="line"/>
      <point x="327" y="351" type="line"/>
      <point x="259" y="740" type="line"/>
      <point x="8" y="740" type="line"/>
    </contour>
    <contour>
      <point x="602" y="885" type="move" name="topUC"/>
    </contour>
  </outline>
</glyph>
<glyph name="X" format="1">
  <advance width="811"/>
  <unicode hex="0058"/>
  <outline>
    <contour>
      <point x="-19" y="0" type="line"/>
      <point x="247" y="0" type="line"/>
      <point x="368" y="176" type="line"/>
      <point x="403" y="240" type="line"/>
      <point x="413" y="240" type="line"/>
      <point x="450" y="176" type="line"/>
      <point x="567" y="0" type="line"/>
      <point x="833" y="0" type="line"/>
      <point x="544" y="376" type="line"/>
      <point x="812" y="740" type="line"/>
      <point x="546" y="740" type="line"/>
      <point x="449" y="601" type="line"/>
      <point x="408" y="527" type="line"/>
      <point x="398" y="527" type="line"/>
      <point x="356" y="601" type="line"/>
      <point x="266" y="740" type="line"/>
      <point x="0" y="740" type="line"/>
      <point x="257" y="391" type="line"/>
    </contour>
  </outline>
</glyph>
<glyph name="bracketleft" format="1">
  <advance width="409"/>
  <unicode hex="005B"/>
  <outline>
    <contour>
      <point x="75" y="-160" type="line"/>
      <point x="385" y="-160" type="line"/>
      <point x="385" y="-16" type="line"/>
      <point x="250" y="-16" type="line"/>
      <point x="250" y="724" type="line"/>
      <point x="385" y="724" type="line"/>
      <point x="385" y="868" type="line"/>
      <point x="75" y="868" type="line"/>
    </contour>
  </outline>
</glyph>
<glyph name="bracketright" format="1">
  <advance width="409"/>
  <unicode hex="005D"/>
  <outline>
    <contour>
      <point x="334" y="-160" type="line"/>
      <point x="334" y="868" type="line"/>
      <point x="24" y="868" type="line"/>
      <point x="24" y="724" type="line"/>
      <point x="160" y="724" type="line"/>
      <point x="160" y="-16" type="line"/>
      <point x="24" y="-16" type="line"/>
      <point x="24" y="-160" type="line"/>
    </contour>
  </outline>
</glyph>
<glyph name="grave" format="1">
  <advance width="342"/>
  <unicode hex="0060"/>
  <outline>
    <contour>
      <point x="138" y="607" type="line"/>
      <point x="5" y="808" type="line"/>
      <point x="241" y="808" type="line"/>
      <point x="302" y="617" type="line"/>
    </contour>
    <contour>
      <point x="210" y="674" type="move" name="_top"/>
    </contour>
  </outline>
</glyph>
<glyph name="a" format="1">
  <advance width="652"/>
  <unicode hex="0061"/>
  <note>
    390
  </note>
  <outline>
    <contour>
      <point x="198" y="-5" type="curve" smooth="yes"/>
      <point x="263" y="-5"/>
      <point x="332" y="14"/>
      <point x="383" y="65" type="curve"/>
      <point x="393" y="65" type="line"/>
      <point x="414" y="0" type="line"/>
      <point x="602" y="0" type="line"/>
      <point x="602" y="355" type="line" smooth="yes"/>
      <point x="602" y="485"/>
      <point x="503" y="548"/>
      <point x="300" y="548" type="curve" smooth="yes"/>
      <point x="232" y="548"/>
      <point x="145" y="541"/>
      <point x="59" y="526" type="curve"/>
      <point x="74" y="372" type="line"/>
      <point x="137" y="384"/>
      <point x="209" y="392"/>
      <point x="269" y="392" type="curve" smooth="yes"/>
      <point x="361" y="392"/>
      <point x="372" y="373"/>
      <point x="372" y="325" type="curve" smooth="yes"/>
      <point x="372" y="165" type="line"/>
      <point x="366" y="155"/>
      <point x="333" y="144"/>
      <point x="304" y="144" type="curve" smooth="yes"/>
      <point x="274" y="144"/>
      <point x="262" y="156"/>
      <point x="262" y="185" type="curve" smooth="yes"/>
      <point x="262" y="216"/>
      <point x="275" y="225"/>
      <point x="316" y="229" type="curve" smooth="yes"/>
      <point x="403" y="237" type="line"/>
      <point x="395" y="342" type="line"/>
      <point x="238" y="332" type="line" smooth="yes"/>
      <point x="96" y="323"/>
      <point x="28" y="269"/>
      <point x="28" y="156" type="curve" smooth="yes"/>
      <point x="28" y="54"/>
      <point x="84" y="-5"/>
    </contour>
    <contour>
      <point x="311" y="674" type="move" name="top"/>
    </contour>
    <contour>
      <point x="505" y="54" type="move" name="ogonek"/>
    </contour>
  </outline>
</glyph>
<glyph name="h" format="1">
  <advance width="739"/>
  <unicode hex="0068"/>
  <outline>
    <contour>
      <point x="55" y="0" type="line"/>
      <point x="285" y="0" type="line"/>
      <point x="285" y="355" type="line"/>
      <point x="331" y="368"/>
      <point x="381" y="377"/>
      <point x="409" y="377" type="curve" smooth="yes"/>
      <point x="443" y="377"/>
      <point x="457" y="361"/>
      <point x="457" y="321" type="curve" smooth="yes"/>
      <point x="457" y="0" type="line"/>
      <point x="687" y="0" type="line"/>
      <point x="687" y="396" type="line" smooth="yes"/>
      <point x="687" y="491"/>
      <point x="621" y="550"/>
      <point x="516" y="550" type="curve" smooth="yes"/>
      <point x="450" y="550"/>
      <point x="353" y="515"/>
      <point x="250" y="469" type="curve"/>
      <point x="285" y="438" type="line"/>
      <point x="285" y="808" type="line"/>
      <point x="55" y="808" type="line"/>
    </contour>
    <contour>
      <point x="369" y="792" type="move" name="top"/>
    </contour>
    <contour>
      <point x="369" y="-110" type="move" name="bottom"/>
    </contour>
  </outline>
</glyph>
<glyph name="i" format="1">
  <advance width="340"/>
  <unicode hex="0069"/>
  <outline>
    <contour>
      <point x="170" y="594" type="curve" smooth="yes"/>
      <point x="260" y="594"/>
      <point x="292" y="633"/>
      <point x="292" y="712" type="curve" smooth="yes"/>
      <point x="292" y="791"/>
      <point x="260" y="830"/>
      <point x="170" y="830" type="curve" smooth="yes"/>
      <point x="83" y="830"/>
      <point x="49" y="794"/>
      <point x="49" y="712" type="curve" smooth="yes"/>
      <point x="49" y="629"/>
      <point x="83" y="594"/>
    </contour>
    <contour>
      <point x="55" y="0" type="line"/>
      <point x="285" y="0" type="line"/>
      <point x="285" y="540" type="line"/>
      <point x="55" y="540" type="line"/>
    </contour>
    <contour>
      <point x="170" y="54" type="move" name="ogonek"/>
    </contour>
    <contour>
      <point x="170" y="-110" type="move" name="bottom"/>
    </contour>
  </outline>
</glyph>
<glyph name="j" format="1">
  <advance width="337"/>
  <unicode hex="006A"/>
  <outline>
    <contour>
      <point x="168" y="594" type="curve" smooth="yes"/>
      <point x="258" y="594"/>
      <point x="290" y="633"/>
      <point x="290" y="712" type="curve" smooth="yes"/>
      <point x="290" y="791"/>
      <point x="258" y="830"/>
      <point x="168" y="830" type="curve" smooth="yes"/>
      <point x="81" y="830"/>
      <point x="47" y="794"/>
      <point x="47" y="712" type="curve" smooth="yes"/>
      <point x="47" y="629"/>
      <point x="81" y="594"/>
    </contour>
    <contour>
      <point x="193" y="-220" type="line"/>
      <point x="239" y="-132"/>
      <point x="269" y="-44"/>
      <point x="283" y="68" type="curve"/>
      <point x="283" y="540" type="line"/>
      <point x="53" y="540" type="line"/>
      <point x="57" y="338"/>
      <point x="58" y="259"/>
      <point x="58" y="190" type="curve" smooth="yes"/>
      <point x="58" y="-7"/>
      <point x="50" y="-75"/>
      <point x="22" y="-199" type="curve"/>
    </contour>
  </outline>
</glyph>
<glyph name="m" format="1">
  <advance width="1062"/>
  <unicode hex="006D"/>
  <outline>
    <contour>
      <point x="56" y="0" type="line"/>
      <point x="286" y="0" type="line"/>
      <point x="286" y="355" type="line"/>
      <point x="309" y="363"/>
      <point x="352" y="372"/>
      <point x="370" y="372" type="curve" smooth="yes"/>
      <point x="404" y="372"/>
      <point x="418" y="356"/>
      <point x="418" y="316" type="curve" smooth="yes"/>
      <point x="418" y="0" type="line"/>
      <point x="648" y="0" type="line"/>
      <point x="648" y="355" type="line"/>
      <point x="671" y="363"/>
      <point x="714" y="372"/>
      <point x="732" y="372" type="curve" smooth="yes"/>
      <point x="766" y="372"/>
      <point x="780" y="356"/>
      <point x="780" y="316" type="curve" smooth="yes"/>
      <point x="780" y="0" type="line"/>
      <point x="1010" y="0" type="line"/>
      <point x="1010" y="396" type="line" smooth="yes"/>
      <point x="1010" y="491"/>
      <point x="944" y="550"/>
      <point x="839" y="550" type="curve" smooth="yes"/>
      <point x="777" y="550"/>
      <point x="696" y="517"/>
      <point x="632" y="477" type="curve"/>
      <point x="627" y="477" type="line"/>
      <point x="600" y="523"/>
      <point x="547" y="550"/>
      <point x="477" y="550" type="curve" smooth="yes"/>
      <point x="415" y="550"/>
      <point x="334" y="517"/>
      <point x="270" y="477" type="curve"/>
      <point x="260" y="477" type="line"/>
      <point x="249" y="540" type="line"/>
      <point x="56" y="540" type="line"/>
    </contour>
  </outline>
</glyph>
<glyph name="n" format="1">
  <advance width="740"/>
  <unicode hex="006E"/>
  <outline>
    <contour>
      <point x="56" y="0" type="line"/>
      <point x="286" y="0" type="line"/>
      <point x="286" y="355" type="line"/>
      <point x="328" y="367"/>
      <point x="379" y="377"/>
      <point x="410" y="377" type="curve" smooth="yes"/>
      <point x="444" y="377"/>
      <point x="458" y="361"/>
      <point x="458" y="321" type="curve" smooth="yes"/>
      <point x="458" y="0" type="line"/>
      <point x="688" y="0" type="line"/>
      <point x="688" y="396" type="line" smooth="yes"/>
      <point x="688" y="491"/>
      <point x="622" y="550"/>
      <point x="517" y="550" type="curve" smooth="yes"/>
      <point x="455" y="550"/>
      <point x="368" y="524"/>
      <point x="270" y="477" type="curve"/>
      <point x="260" y="477" type="line"/>
      <point x="249" y="540" type="line"/>
      <point x="56" y="540" type="line"/>
    </contour>
    <contour>
      <point x="16" y="674" type="move" name="apostrophe"/>
    </contour>
    <contour>
      <point x="373" y="674" type="move" name="top"/>
    </contour>
    <contour>
      <point x="370" y="-110" type="move" name="bottom"/>
    </contour>
  </outline>
</glyph>
<glyph name="o" format="1">
  <advance width="727"/>
  <unicode hex="006F"/>
  <outline>
    <contour>
      <point x="364" y="-11" type="curve" smooth="yes"/>
      <point x="581" y="-11"/>
      <point x="698" y="88"/>
      <point x="698" y="270" type="curve" smooth="yes"/>
      <point x="698" y="452"/>
      <point x="581" y="550"/>
      <point x="364" y="550" type="curve" smooth="yes"/>
      <point x="147" y="550"/>
      <point x="29" y="451"/>
      <point x="29" y="270" type="curve" smooth="yes"/>
      <point x="29" y="88"/>
      <point x="147" y="-11"/>
    </contour>
    <contour>
      <point x="364" y="161" type="curve" smooth="yes"/>
      <point x="285" y="161"/>
      <point x="259" y="183"/>
      <point x="259" y="270" type="curve" smooth="yes"/>
      <point x="259" y="356"/>
      <point x="285" y="377"/>
      <point x="364" y="377" type="curve" smooth="yes"/>
      <point x="443" y="377"/>
      <point x="468" y="357"/>
      <point x="468" y="270" type="curve" smooth="yes"/>
      <point x="468" y="182"/>
      <point x="443" y="161"/>
    </contour>
    <contour>
      <point x="361" y="674" type="move" name="top"/>
    </contour>
    <contour>
      <point x="364" y="54" type="move" name="ogonek"/>
    </contour>
    <contour>
      <point x="364" y="-110" type="move" name="bottom"/>
    </contour>
  </outline>
</glyph>
<glyph name="p" format="1">
  <advance width="740"/>
  <unicode hex="0070"/>
  <outline>
    <contour>
      <point x="56" y="-220" type="line"/>
      <point x="286" y="-220" type="line"/>
      <point x="286" y="-7" type="line"/>
      <point x="312" y="-10"/>
      <point x="340" y="-11"/>
      <point x="369" y="-11" type="curve" smooth="yes"/>
      <point x="574" y="-11"/>
      <point x="709" y="91"/>
      <point x="709" y="284" type="curve" smooth="yes"/>
      <point x="709" y="460"/>
      <point x="623" y="550"/>
      <point x="458" y="550" type="curve" smooth="yes"/>
      <point x="379" y="550"/>
      <point x="319" y="526"/>
      <point x="284" y="467" type="curve"/>
      <point x="274" y="467" type="line"/>
      <point x="255" y="540" type="line"/>
      <point x="56" y="540" type="line"/>
    </contour>
    <contour>
      <point x="376" y="147" type="curve" smooth="yes"/>
      <point x="341" y="147"/>
      <point x="311" y="150"/>
      <point x="286" y="155" type="curve"/>
      <point x="286" y="296" type="line" smooth="yes"/>
      <point x="286" y="356"/>
      <point x="314" y="383"/>
      <point x="389" y="383" type="curve" smooth="yes"/>
      <point x="464" y="383"/>
      <point x="479" y="360"/>
      <point x="479" y="269" type="curve" smooth="yes"/>
      <point x="479" y="164"/>
      <point x="464" y="147"/>
    </contour>
  </outline>
</glyph>
<glyph name="q" format="1">
  <advance width="737"/>
  <unicode hex="0071"/>
  <outline>
    <contour>
      <point x="465" y="-220" type="line"/>
      <point x="683" y="-220" type="line"/>
      <point x="683" y="524" type="line"/>
      <point x="610" y="532"/>
      <point x="494" y="551"/>
      <point x="370" y="551" type="curve" smooth="yes"/>
      <point x="165" y="551"/>
      <point x="30" y="449"/>
      <point x="30" y="256" type="curve" smooth="yes"/>
      <point x="30" y="80"/>
      <point x="116" y="-10"/>
      <point x="281" y="-10" type="curve" smooth="yes"/>
      <point x="360" y="-10"/>
      <point x="420" y="14"/>
      <point x="465" y="73" type="curve"/>
    </contour>
    <contour>
      <point x="350" y="157" type="curve" smooth="yes"/>
      <point x="275" y="157"/>
      <point x="260" y="180"/>
      <point x="260" y="271" type="curve" smooth="yes"/>
      <point x="260" y="376"/>
      <point x="275" y="393"/>
      <point x="363" y="393" type="curve" smooth="yes"/>
      <point x="398" y="393"/>
      <point x="428" y="390"/>
      <point x="453" y="385" type="curve"/>
      <point x="453" y="244" type="line" smooth="yes"/>
      <point x="453" y="184"/>
      <point x="425" y="157"/>
    </contour>
  </outline>
</glyph>
<glyph name="r" format="1">
  <advance width="524"/>
  <unicode hex="0072"/>
  <outline>
    <contour>
      <point x="56" y="0" type="line"/>
      <point x="286" y="0" type="line"/>
      <point x="286" y="326" type="line"/>
      <point x="315" y="348"/>
      <point x="372" y="365"/>
      <point x="436" y="371" type="curve"/>
      <point x="513" y="371" type="line"/>
      <point x="513" y="550" type="line"/>
      <point x="432" y="550" type="line"/>
      <point x="378" y="539"/>
      <point x="314" y="504"/>
      <point x="264" y="457" type="curve"/>
      <point x="260" y="457" type="line"/>
      <point x="249" y="540" type="line"/>
      <point x="56" y="540" type="line"/>
    </contour>
    <contour>
      <point x="285" y="674" type="move" name="top"/>
    </contour>
    <contour>
      <point x="171" y="-110" type="move" name="bottom"/>
    </contour>
  </outline>
</glyph>
<glyph name="v" format="1">
  <advance width="707"/>
  <unicode hex="0076"/>
  <outline>
    <contour>
      <point x="212" y="0" type="line"/>
      <point x="492" y="0" type="line"/>
      <point x="705" y="516" type="line"/>
      <point x="705" y="540" type="line"/>
      <point x="459" y="540" type="line"/>
      <point x="401" y="348" type="line"/>
      <point x="362" y="181" type="line"/>
      <point x="351" y="181" type="line"/>
      <point x="311" y="348" type="line"/>
      <point x="257" y="540" type="line"/>
      <point x="4" y="540" type="line"/>
      <point x="4" y="516" type="line"/>
    </contour>
  </outline>
</glyph>
<glyph name="x" format="1">
  <advance width="697"/>
  <unicode hex="0078"/>
  <outline>
    <contour>
      <point x="-1" y="0" type="line"/>
      <point x="243" y="0" type="line"/>
      <point x="312" y="92" type="line"/>
      <point x="343" y="151" type="line"/>
      <point x="353" y="151" type="line"/>
      <point x="384" y="92" type="line"/>
      <point x="454" y="0" type="line"/>
      <point x="698" y="0" type="line"/>
      <point x="698" y="20" type="line"/>
      <point x="503" y="279" type="line"/>
      <point x="690" y="529" type="line"/>
      <point x="690" y="540" type="line"/>
      <point x="448" y="540" type="line"/>
      <point x="385" y="454" type="line"/>
      <point x="353" y="402" type="line"/>
      <point x="343" y="402" type="line"/>
      <point x="312" y="453" type="line"/>
      <point x="249" y="540" type="line"/>
      <point x="7" y="540" type="line"/>
      <point x="7" y="529" type="line"/>
      <point x="194" y="279" type="line"/>
      <point x="-1" y="20" type="line"/>
    </contour>
  </outline>
</glyph>
<glyph name="y" format="1">
  <advance width="701"/>
  <unicode hex="0079"/>
  <outline>
    <contour>
      <point x="376" y="-220" type="line"/>
      <point x="700" y="516" type="line"/>
      <point x="700" y="540" type="line"/>
      <point x="456" y="540" type="line"/>
      <point x="398" y="369" type="line"/>
      <point x="357" y="238" type="line"/>
      <point x="346" y="238" type="line"/>
      <point x="304" y="369" type="line"/>
      <point x="250" y="540" type="line"/>
      <point x="-1" y="540" type="line"/>
      <point x="-1" y="516" type="line"/>
      <point x="239" y="13" type="line"/>
      <point x="161" y="-177" type="line"/>
      <point x="161" y="-196" type="line"/>
    </contour>
    <contour>
      <point x="354" y="674" type="move" name="top"/>
    </contour>
  </outline>
</glyph>
<glyph name="z" format="1">
  <advance width="650"/>
  <unicode hex="007A"/>
  <outline>
    <contour>
      <point x="36" y="0" type="line"/>
      <point x="614" y="0" type="line"/>
      <point x="614" y="162" type="line"/>
      <point x="351" y="162" type="line"/>
      <point x="351" y="174" type="line"/>
      <point x="604" y="400" type="line"/>
      <point x="604" y="540" type="line"/>
      <point x="46" y="540" type="line"/>
      <point x="46" y="378" type="line"/>
      <point x="307" y="378" type="line"/>
      <point x="307" y="368" type="line"/>
      <point x="36" y="140" type="line"/>
    </contour>
    <contour>
      <point x="331" y="674" type="move" name="top"/>
    </contour>
    <contour>
      <point x="325" y="-110" type="move" name="bottom"/>
    </contour>
  </outline>
</glyph>
<glyph name="braceleft" format="1">
  <advance width="354"/>
  <unicode hex="007B"/>
  <outline>
    <contour>
      <point x="27" y="272" type="line"/>
      <point x="74" y="272"/>
      <point x="83" y="245"/>
      <point x="83" y="192" type="curve" smooth="yes"/>
      <point x="83" y="-33" type="line" smooth="yes"/>
      <point x="83" y="-125"/>
      <point x="119" y="-160"/>
      <point x="199" y="-160" type="curve" smooth="yes"/>
      <point x="224" y="-160"/>
      <point x="304" y="-157"/>
      <point x="316" y="-155" type="curve"/>
      <point x="316" y="-16" type="line"/>
      <point x="309" y="-16" type="line" smooth="yes"/>
      <point x="277" y="-16"/>
      <point x="264" y="-3"/>
      <point x="264" y="26" type="curve" smooth="yes"/>
      <point x="264" y="240" type="line" smooth="yes"/>
      <point x="264" y="302"/>
      <point x="229" y="347"/>
      <point x="179" y="354" type="curve"/>
      <point x="229" y="363"/>
      <point x="264" y="409"/>
      <point x="264" y="471" type="curve" smooth="yes"/>
      <point x="264" y="682" type="line" smooth="yes"/>
      <point x="264" y="711"/>
      <point x="277" y="724"/>
      <point x="309" y="724" type="curve" smooth="yes"/>
      <point x="316" y="724" type="line"/>
      <point x="316" y="863" type="line"/>
      <point x="304" y="865"/>
      <point x="224" y="868"/>
      <point x="199" y="868" type="curve" smooth="yes"/>
      <point x="119" y="868"/>
      <point x="83" y="833"/>
      <point x="83" y="741" type="curve" smooth="yes"/>
      <point x="83" y="519" type="line" smooth="yes"/>
      <point x="83" y="466"/>
      <point x="74" y="438"/>
      <point x="27" y="438" type="curve"/>
    </contour>
  </outline>
</glyph>
<glyph name="bar" format="1">
  <advance width="365"/>
  <unicode hex="007C"/>
  <outline>
    <contour>
      <point x="75" y="808" type="line"/>
      <point x="75" y="-220" type="line"/>
      <point x="290" y="-220" type="line"/>
      <point x="290" y="808" type="line"/>
    </contour>
  </outline>
</glyph>
<glyph name="braceright" format="1">
  <advance width="354"/>
  <unicode hex="007D"/>
  <outline>
    <contour>
      <point x="327" y="438" type="line"/>
      <point x="280" y="438"/>
      <point x="271" y="466"/>
      <point x="271" y="519" type="curve" smooth="yes"/>
      <point x="271" y="741" type="line" smooth="yes"/>
      <point x="271" y="833"/>
      <point x="235" y="868"/>
      <point x="155" y="868" type="curve" smooth="yes"/>
      <point x="130" y="868"/>
      <point x="50" y="865"/>
      <point x="38" y="863" type="curve"/>
      <point x="38" y="724" type="line"/>
      <point x="45" y="724" type="line" smooth="yes"/>
      <point x="77" y="724"/>
      <point x="90" y="711"/>
      <point x="90" y="682" type="curve" smooth="yes"/>
      <point x="90" y="471" type="line" smooth="yes"/>
      <point x="90" y="409"/>
      <point x="125" y="363"/>
      <point x="175" y="354" type="curve"/>
      <point x="125" y="347"/>
      <point x="90" y="302"/>
      <point x="90" y="240" type="curve" smooth="yes"/>
      <point x="90" y="26" type="line" smooth="yes"/>
      <point x="90" y="-3"/>
      <point x="77" y="-16"/>
      <point x="45" y="-16" type="curve" smooth="yes"/>
      <point x="38" y="-16" type="line"/>
      <point x="38" y="-155" type="line"/>
      <point x="50" y="-157"/>
      <point x="130" y="-160"/>
      <point x="155" y="-160" type="curve" smooth="yes"/>
      <point x="235" y="-160"/>
      <point x="271" y="-125"/>
      <point x="271" y="-33" type="curve" smooth="yes"/>
      <point x="271" y="192" type="line" smooth="yes"/>
      <point x="271" y="245"/>
      <point x="280" y="272"/>
      <point x="327" y="272" type="curve"/>
    </contour>
  </outline>
</glyph>
<glyph name="cent" format="1">
  <advance width="589"/>
  <unicode hex="00A2"/>
  <outline>
    <contour>
      <point x="283" y="-120" type="line"/>
      <point x="419" y="-120" type="line"/>
      <point x="419" y="78" type="line"/>
      <point x="283" y="66" type="line"/>
    </contour>
    <contour>
      <point x="283" y="456" type="line"/>
      <point x="419" y="470" type="line"/>
      <point x="419" y="660" type="line"/>
      <point x="283" y="660" type="line"/>
    </contour>
    <component base="c" xOffset="-1"/>
  </outline>
</glyph>
<glyph name="sterling" format="1">
  <advance width="789"/>
  <unicode hex="00A3"/>
  <outline>
    <contour>
      <point x="41" y="0" type="line"/>
      <point x="735" y="0" type="line"/>
      <point x="735" y="196" type="line"/>
      <point x="440" y="196" type="line"/>
      <point x="440" y="503" type="line" smooth="yes"/>
      <point x="440" y="543"/>
      <point x="477" y="559"/>
      <point x="579" y="559" type="curve" smooth="yes"/>
      <point x="627" y="559"/>
      <point x="680" y="554"/>
      <point x="744" y="543" type="curve"/>
      <point x="749" y="725" type="line"/>
      <point x="676" y="744"/>
      <point x="626" y="750"/>
      <point x="553" y="750" type="curve" smooth="yes"/>
      <point x="323" y="750"/>
      <point x="205" y="667"/>
      <point x="205" y="503" type="curve" smooth="yes"/>
      <point x="205" y="198" type="line"/>
      <point x="41" y="198" type="line"/>
    </contour>
    <contour>
      <point x="41" y="288" type="line"/>
      <point x="661" y="288" type="line"/>
      <point x="661" y="462" type="line"/>
      <point x="41" y="462" type="line"/>
    </contour>
  </outline>
</glyph>
<glyph name="yen" format="1">
  <advance width="864"/>
  <unicode hex="00A5"/>
  <outline>
    <contour>
      <point x="106" y="51" type="line"/>
      <point x="748" y="51" type="line"/>
      <point x="748" y="182" type="line"/>
      <point x="106" y="182" type="line"/>
    </contour>
    <contour>
      <point x="106" y="246" type="line"/>
      <point x="748" y="246" type="line"/>
      <point x="748" y="377" type="line"/>
      <point x="106" y="377" type="line"/>
    </contour>
    <component base="Y" xOffset="38"/>
  </outline>
</glyph>
<glyph name="brokenbar" format="1">
  <advance width="367"/>
  <unicode hex="00A6"/>
  <outline>
    <contour>
      <point x="76" y="-220" type="line"/>
      <point x="291" y="-220" type="line"/>
      <point x="291" y="205" type="line"/>
      <point x="76" y="205" type="line"/>
    </contour>
    <contour>
      <point x="76" y="383" type="line"/>
      <point x="291" y="383" type="line"/>
      <point x="291" y="808" type="line"/>
      <point x="76" y="808" type="line"/>
    </contour>
  </outline>
</glyph>
<glyph name="uni00AD" format="1">
  <advance width="596"/>
  <unicode hex="00AD"/>
  <outline>
    <contour>
      <point x="52" y="198" type="line"/>
      <point x="544" y="198" type="line"/>
      <point x="544" y="362" type="line"/>
      <point x="52" y="362" type="line"/>
    </contour>
  </outline>
</glyph>
<glyph name="macron" format="1">
  <advance width="578"/>
  <unicode hex="00AF"/>
  <outline>
    <contour>
      <point x="51" y="643" type="line"/>
      <point x="517" y="643" type="line"/>
      <point x="517" y="791" type="line"/>
      <point x="51" y="791" type="line"/>
    </contour>
    <contour>
      <point x="283" y="674" type="move" name="_top"/>
    </contour>
  </outline>
</glyph>
<glyph name="plusminus" format="1">
  <advance width="553"/>
  <unicode hex="00B1"/>
  <outline>
    <contour>
      <point x="49" y="357" type="line"/>
      <point x="503" y="357" type="line"/>
      <point x="503" y="491" type="line"/>
      <point x="49" y="491" type="line"/>
    </contour>
    <contour>
      <point x="50" y="34" type="line"/>
      <point x="504" y="34" type="line"/>
      <point x="504" y="168" type="line"/>
      <point x="50" y="168" type="line"/>
    </contour>
    <contour>
      <point x="209" y="212" type="line"/>
      <point x="343" y="212" type="line"/>
      <point x="343" y="646" type="line"/>
      <point x="209" y="646" type="line"/>
    </contour>
  </outline>
</glyph>
<glyph name="twosuperior" format="1">
  <advance width="562"/>
  <unicode hex="00B2"/>
  <outline>
    <contour>
      <point x="26" y="300" type="line"/>
      <point x="526" y="300" type="line"/>
      <point x="526" y="454" type="line"/>
      <point x="284" y="454" type="line"/>
      <point x="284" y="457" type="line" smooth="yes"/>
      <point x="284" y="463"/>
      <point x="299" y="470"/>
      <point x="350" y="489" type="curve"/>
      <point x="465" y="528"/>
      <point x="526" y="592"/>
      <point x="526" y="676" type="curve" smooth="yes"/>
      <point x="526" y="797"/>
      <point x="444" y="853"/>
      <point x="269" y="853" type="curve" smooth="yes"/>
      <point x="209" y="853"/>
      <point x="143" y="847"/>
      <point x="43" y="831" type="curve"/>
      <point x="58" y="676" type="line"/>
      <point x="140" y="688"/>
      <point x="191" y="693"/>
      <point x="233" y="693" type="curve" smooth="yes"/>
      <point x="301" y="693"/>
      <point x="336" y="682"/>
      <point x="336" y="660" type="curve" smooth="yes"/>
      <point x="336" y="644"/>
      <point x="325" y="638"/>
      <point x="231" y="607" type="curve" smooth="yes"/>
      <point x="90" y="560"/>
      <point x="26" y="490"/>
      <point x="26" y="385" type="curve" smooth="yes"/>
    </contour>
  </outline>
</glyph>
<glyph name="threesuperior" format="1">
  <advance width="535"/>
  <unicode hex="00B3"/>
  <outline>
    <contour>
      <point x="252" y="291" type="curve" smooth="yes"/>
      <point x="417" y="291"/>
      <point x="505" y="348"/>
      <point x="505" y="454" type="curve" smooth="yes"/>
      <point x="505" y="513"/>
      <point x="478" y="558"/>
      <point x="429" y="583" type="curve"/>
      <point x="474" y="606"/>
      <point x="499" y="645"/>
      <point x="499" y="693" type="curve" smooth="yes"/>
      <point x="499" y="800"/>
      <point x="409" y="853"/>
      <point x="229" y="853" type="curve" smooth="yes"/>
      <point x="180" y="853"/>
      <point x="78" y="846"/>
      <point x="38" y="839" type="curve"/>
      <point x="38" y="681" type="line"/>
      <point x="40" y="681" type="line"/>
      <point x="95" y="688"/>
      <point x="161" y="693"/>
      <point x="196" y="693" type="curve" smooth="yes"/>
      <point x="283" y="693"/>
      <point x="302" y="688"/>
      <point x="302" y="665" type="curve" smooth="yes"/>
      <point x="302" y="640"/>
      <point x="276" y="633"/>
      <point x="179" y="633" type="curve" smooth="yes"/>
      <point x="115" y="633" type="line"/>
      <point x="115" y="516" type="line"/>
      <point x="179" y="516" type="line" smooth="yes"/>
      <point x="291" y="516"/>
      <point x="317" y="510"/>
      <point x="317" y="483" type="curve" smooth="yes"/>
      <point x="317" y="458"/>
      <point x="301" y="454"/>
      <point x="198" y="454" type="curve" smooth="yes"/>
      <point x="155" y="454"/>
      <point x="72" y="460"/>
      <point x="40" y="466" type="curve"/>
      <point x="38" y="466" type="line"/>
      <point x="38" y="304" type="line"/>
      <point x="68" y="297"/>
      <point x="167" y="291"/>
    </contour>
  </outline>
</glyph>
<glyph name="acute" format="1">
  <advance width="333"/>
  <unicode hex="00B4"/>
  <outline>
    <contour>
      <point x="195" y="607" type="line"/>
      <point x="327" y="808" type="line"/>
      <point x="92" y="808" type="line"/>
      <point x="31" y="617" type="line"/>
    </contour>
    <contour>
      <point x="124" y="674" type="move" name="_top"/>
    </contour>
  </outline>
</glyph>
<glyph name="periodcentered" format="1">
  <advance width="317"/>
  <unicode hex="00B7"/>
  <outline>
    <contour>
      <point x="159" y="252" type="curve" smooth="yes"/>
      <point x="249" y="252"/>
      <point x="280" y="291"/>
      <point x="280" y="370" type="curve" smooth="yes"/>
      <point x="280" y="449"/>
      <point x="249" y="488"/>
      <point x="159" y="488" type="curve" smooth="yes"/>
      <point x="71" y="488"/>
      <point x="37" y="453"/>
      <point x="37" y="370" type="curve" smooth="yes"/>
      <point x="37" y="287"/>
      <point x="71" y="252"/>
    </contour>
    <contour>
      <point x="159" y="370" type="move" name="_periodcentered"/>
    </contour>
  </outline>
</glyph>
<glyph name="onesuperior" format="1">
  <advance width="432"/>
  <unicode hex="00B9"/>
  <outline>
    <contour>
      <point x="177" y="300" type="line"/>
      <point x="367" y="300" type="line"/>
      <point x="367" y="846" type="line"/>
      <point x="228" y="846" type="line"/>
      <point x="7" y="755" type="line"/>
      <point x="7" y="735" type="line"/>
      <point x="29" y="633" type="line"/>
      <point x="32" y="633" type="line"/>
      <point x="177" y="654" type="line"/>
    </contour>
  </outline>
</glyph>
<glyph name="ordmasculine" format="1">
  <advance width="546"/>
  <unicode hex="00BA"/>
  <outline>
    <contour>
      <point x="273" y="471" type="curve" smooth="yes"/>
      <point x="206" y="471"/>
      <point x="209" y="478"/>
      <point x="209" y="546" type="curve" smooth="yes"/>
      <point x="209" y="612"/>
      <point x="206" y="625"/>
      <point x="273" y="625" type="curve" smooth="yes"/>
      <point x="339" y="625"/>
      <point x="338" y="612"/>
      <point x="338" y="546" type="curve" smooth="yes"/>
      <point x="338" y="478"/>
      <point x="339" y="471"/>
    </contour>
    <contour>
      <point x="273" y="345" type="curve" smooth="yes"/>
      <point x="433" y="345"/>
      <point x="518" y="411"/>
      <point x="518" y="546" type="curve" smooth="yes"/>
      <point x="518" y="681"/>
      <point x="433" y="747"/>
      <point x="273" y="747" type="curve" smooth="yes"/>
      <point x="115" y="747"/>
      <point x="27" y="681"/>
      <point x="27" y="546" type="curve" smooth="yes"/>
      <point x="27" y="411"/>
      <point x="115" y="345"/>
    </contour>
  </outline>
</glyph>
<glyph name="multiply" format="1">
  <advance width="525"/>
  <unicode hex="00D7"/>
  <outline>
    <contour>
      <point x="397" y="140" type="line"/>
      <point x="492" y="235" type="line"/>
      <point x="127" y="600" type="line"/>
      <point x="32" y="505" type="line"/>
    </contour>
    <contour>
      <point x="127" y="140" type="line"/>
      <point x="492" y="505" type="line"/>
      <point x="396" y="600" type="line"/>
      <point x="32" y="235" type="line"/>
    </contour>
  </outline>
</glyph>
<glyph name="germandbls" format="1">
  <advance width="915"/>
  <unicode hex="00DF"/>
  <outline>
    <contour>
      <point x="614" y="-12" type="curve" smooth="yes"/>
      <point x="806" y="-12"/>
      <point x="901" y="49"/>
      <point x="901" y="173" type="curve" smooth="yes"/>
      <point x="901" y="273"/>
      <point x="836" y="326"/>
      <point x="696" y="339" type="curve" smooth="yes"/>
      <point x="602" y="348"/>
      <point x="578" y="355"/>
      <point x="578" y="372" type="curve" smooth="yes"/>
      <point x="578" y="389"/>
      <point x="599" y="396"/>
      <point x="652" y="396" type="curve"/>
      <point x="733" y="396" type="line"/>
      <point x="739" y="552" type="line"/>
      <point x="634" y="552" type="line"/>
      <point x="462" y="552"/>
      <point x="358" y="482"/>
      <point x="358" y="366" type="curve" smooth="yes"/>
      <point x="358" y="204"/>
      <point x="494" y="195"/>
      <point x="592" y="187" type="curve" smooth="yes"/>
      <point x="659" y="181"/>
      <point x="681" y="173"/>
      <point x="681" y="156" type="curve" smooth="yes"/>
      <point x="681" y="140"/>
      <point x="661" y="135"/>
      <point x="601" y="135" type="curve" smooth="yes"/>
      <point x="532" y="135"/>
      <point x="458" y="142"/>
      <point x="353" y="160" type="curve"/>
      <point x="353" y="10" type="line"/>
      <point x="433" y="-3"/>
      <point x="542" y="-12"/>
    </contour>
    <contour>
      <point x="56" y="0" type="line"/>
      <point x="286" y="0" type="line"/>
      <point x="286" y="559" type="line" smooth="yes"/>
      <point x="286" y="614"/>
      <point x="334" y="641"/>
      <point x="431" y="641" type="curve" smooth="yes"/>
      <point x="528" y="641"/>
      <point x="576" y="614"/>
      <point x="576" y="559" type="curve" smooth="yes"/>
      <point x="576" y="396" type="line"/>
      <point x="808" y="396" type="line"/>
      <point x="808" y="559" type="line" smooth="yes"/>
      <point x="808" y="728"/>
      <point x="680" y="814"/>
      <point x="429" y="814" type="curve" smooth="yes"/>
      <point x="181" y="814"/>
      <point x="56" y="728"/>
      <point x="56" y="559" type="curve" smooth="yes"/>
    </contour>
  </outline>
</glyph>
<glyph name="eth" format="1">
  <advance width="735"/>
  <unicode hex="00F0"/>
  <outline>
    <contour>
      <point x="361" y="-11" type="curve" smooth="yes"/>
      <point x="581" y="-11"/>
      <point x="698" y="98"/>
      <point x="698" y="321" type="curve" smooth="yes"/>
      <point x="698" y="635"/>
      <point x="465" y="804"/>
      <point x="461" y="808" type="curve"/>
      <point x="232" y="808" type="line"/>
      <point x="352" y="703"/>
      <point x="426" y="616"/>
      <point x="469" y="514" type="curve"/>
      <point x="433" y="541"/>
      <point x="393" y="551"/>
      <point x="336" y="551" type="curve" smooth="yes"/>
      <point x="149" y="551"/>
      <point x="29" y="445"/>
      <point x="29" y="267" type="curve" smooth="yes"/>
      <point x="29" y="88"/>
      <point x="151" y="-11"/>
    </contour>
    <contour>
      <point x="364" y="161" type="curve" smooth="yes"/>
      <point x="283" y="161"/>
      <point x="259" y="186"/>
      <point x="259" y="269" type="curve" smooth="yes"/>
      <point x="259" y="351"/>
      <point x="282" y="377"/>
      <point x="359" y="377" type="curve" smooth="yes"/>
      <point x="439" y="377"/>
      <point x="468" y="349"/>
      <point x="468" y="264" type="curve" smooth="yes"/>
      <point x="468" y="185"/>
      <point x="443" y="161"/>
    </contour>
    <contour>
      <point x="203" y="585" type="line"/>
      <point x="703" y="625" type="line"/>
      <point x="703" y="758" type="line"/>
      <point x="203" y="718" type="line"/>
    </contour>
  </outline>
</glyph>
<glyph name="oslash" format="1">
  <advance width="734"/>
  <unicode hex="00F8"/>
  <outline>
    <contour>
      <point x="368" y="-11" type="curve" smooth="yes"/>
      <point x="598" y="-11"/>
      <point x="702" y="99"/>
      <point x="702" y="270" type="curve" smooth="yes"/>
      <point x="702" y="441"/>
      <point x="598" y="550"/>
      <point x="368" y="550" type="curve" smooth="yes"/>
      <point x="135" y="550"/>
      <point x="34" y="438"/>
      <point x="34" y="270" type="curve" smooth="yes"/>
      <point x="34" y="102"/>
      <point x="135" y="-11"/>
    </contour>
    <contour>
      <point x="368" y="161" type="curve" smooth="yes"/>
      <point x="262" y="161"/>
      <point x="264" y="195"/>
      <point x="264" y="270" type="curve" smooth="yes"/>
      <point x="264" y="345"/>
      <point x="262" y="377"/>
      <point x="368" y="377" type="curve" smooth="yes"/>
      <point x="472" y="377"/>
      <point x="472" y="345"/>
      <point x="472" y="270" type="curve" smooth="yes"/>
      <point x="472" y="195"/>
      <point x="472" y="161"/>
    </contour>
    <contour>
      <point x="-7" y="0" type="line"/>
      <point x="151" y="0" type="line"/>
      <point x="743" y="540" type="line"/>
      <point x="585" y="540" type="line"/>
    </contour>
    <contour>
      <point x="368" y="674" type="move" name="top"/>
    </contour>
  </outline>
</glyph>
<glyph name="gcommaaccent" format="1">
  <advance width="736"/>
  <unicode hex="0123"/>
  <outline>
    <contour>
      <point x="380" y="770" type="line"/>
      <point x="276" y="620" type="line"/>
      <point x="512" y="620" type="line"/>
      <point x="550" y="770" type="line"/>
    </contour>
    <component base="g"/>
  </outline>
</glyph>
<glyph name="Hbar" format="1">
  <advance width="914"/>
  <unicode hex="0126"/>
  <outline>
    <contour>
      <point x="8" y="534" type="line"/>
      <point x="907" y="534" type="line"/>
      <point x="907" y="637" type="line"/>
      <point x="8" y="637" type="line"/>
    </contour>
    <component base="H" xOffset="7"/>
  </outline>
</glyph>
<glyph name="hbar" format="1">
  <advance width="740"/>
  <unicode hex="0127"/>
  <outline>
    <contour>
      <point x="-29" y="612" type="line"/>
      <point x="445" y="612" type="line"/>
      <point x="445" y="735" type="line"/>
      <point x="-29" y="735" type="line"/>
    </contour>
    <component base="h" xOffset="1"/>
  </outline>
</glyph>
<glyph name="itilde" format="1">
  <advance width="342"/>
  <unicode hex="0129"/>
  <outline>
    <contour>
      <point x="-52" y="623" type="line"/>
      <point x="-14" y="653"/>
      <point x="13" y="659"/>
      <point x="42" y="659" type="curve" smooth="yes"/>
      <point x="112" y="659"/>
      <point x="182" y="623"/>
      <point x="253" y="623" type="curve" smooth="yes"/>
      <point x="305" y="623"/>
      <point x="372" y="673"/>
      <point x="422" y="773" type="curve"/>
      <point x="400" y="811" type="line"/>
      <point x="358" y="781"/>
      <point x="332" y="775"/>
      <point x="307" y="775" type="curve" smooth="yes"/>
      <point x="236" y="775"/>
      <point x="166" y="811"/>
      <point x="96" y="811" type="curve" smooth="yes"/>
      <point x="40" y="811"/>
      <point x="-27" y="761"/>
      <point x="-73" y="661" type="curve"/>
    </contour>
    <component base="dotlessi" xOffset="1"/>
  </outline>
</glyph>
<glyph name="ibreve" format="1">
  <advance width="342"/>
  <unicode hex="012D"/>
  <outline>
    <contour>
      <point x="173" y="611" type="curve" smooth="yes"/>
      <point x="316" y="611"/>
      <point x="358" y="695"/>
      <point x="358" y="806" type="curve"/>
      <point x="250" y="806" type="line"/>
      <point x="250" y="749"/>
      <point x="240" y="716"/>
      <point x="173" y="716" type="curve" smooth="yes"/>
      <point x="107" y="716"/>
      <point x="97" y="749"/>
      <point x="97" y="806" type="curve"/>
      <point x="-13" y="806" type="line"/>
      <point x="-13" y="699"/>
      <point x="30" y="611"/>
    </contour>
    <component base="dotlessi" xOffset="1"/>
  </outline>
</glyph>
<glyph name="dotlessi" format="1">
  <advance width="340"/>
  <unicode hex="0131"/>
  <outline>
    <contour>
      <point x="55" y="0" type="line"/>
      <point x="285" y="0" type="line"/>
      <point x="285" y="540" type="line"/>
      <point x="55" y="540" type="line"/>
    </contour>
    <contour>
      <point x="170" y="674" type="move" name="top"/>
    </contour>
  </outline>
</glyph>
<glyph name="jcircumflex" format="1">
  <advance width="338"/>
  <unicode hex="0135"/>
  <outline>
    <contour>
      <point x="-51" y="597" type="line"/>
      <point x="164" y="678" type="line"/>
      <point x="378" y="597" type="line"/>
      <point x="378" y="745" type="line"/>
      <point x="160" y="827" type="line"/>
      <point x="-51" y="745" type="line"/>
    </contour>
    <component base="dotlessj"/>
  </outline>
</glyph>
<glyph name="kgreenlandic" format="1">
  <advance width="694"/>
  <unicode hex="0138"/>
  <outline>
    <contour>
      <point x="56" y="0" type="line"/>
      <point x="286" y="0" type="line"/>
      <point x="286" y="211" type="line"/>
      <point x="325" y="211" type="line"/>
      <point x="457" y="0" type="line"/>
      <point x="708" y="0" type="line"/>
      <point x="517" y="271" type="line"/>
      <point x="488" y="277" type="line"/>
      <point x="488" y="281" type="line"/>
      <point x="517" y="287" type="line"/>
      <point x="690" y="540" type="line"/>
      <point x="438" y="540" type="line"/>
      <point x="327" y="346" type="line"/>
      <point x="286" y="346" type="line"/>
      <point x="286" y="540" type="line"/>
      <point x="56" y="540" type="line"/>
    </contour>
  </outline>
</glyph>
<glyph name="eng" format="1">
  <advance width="739"/>
  <unicode hex="014B"/>
  <outline>
    <contour>
      <point x="598" y="-220" type="line"/>
      <point x="643" y="-135"/>
      <point x="673" y="-50"/>
      <point x="688" y="58" type="curve"/>
      <point x="688" y="396" type="line" smooth="yes"/>
      <point x="688" y="492"/>
      <point x="621" y="550"/>
      <point x="517" y="550" type="curve" smooth="yes"/>
      <point x="450" y="550"/>
      <point x="358" y="523"/>
      <point x="264" y="482" type="curve"/>
      <point x="260" y="482" type="line"/>
      <point x="249" y="540" type="line"/>
      <point x="56" y="540" type="line"/>
      <point x="56" y="0" type="line"/>
      <point x="286" y="0" type="line"/>
      <point x="286" y="335" type="line"/>
      <point x="324" y="339"/>
      <point x="370" y="342"/>
      <point x="412" y="342" type="curve" smooth="yes"/>
      <point x="456" y="342"/>
      <point x="458" y="336"/>
      <point x="458" y="261" type="curve" smooth="yes"/>
      <point x="458" y="190" type="line" smooth="yes"/>
      <point x="458" y="-7"/>
      <point x="449" y="-75"/>
      <point x="421" y="-199" type="curve"/>
    </contour>
  </outline>
</glyph>
<glyph name="oe" format="1">
  <advance width="1094"/>
  <unicode hex="0153"/>
  <outline>
    <contour>
      <point x="782" y="-9" type="curve" smooth="yes"/>
      <point x="871" y="-9"/>
      <point x="963" y="2"/>
      <point x="1038" y="22" type="curve"/>
      <point x="1033" y="181" type="line"/>
      <point x="984" y="170"/>
      <point x="876" y="161"/>
      <point x="803" y="161" type="curve" smooth="yes"/>
      <point x="728" y="161"/>
      <point x="703" y="168"/>
      <point x="696" y="219" type="curve"/>
      <point x="1049" y="219" type="line"/>
      <point x="1058" y="250"/>
      <point x="1062" y="283"/>
      <point x="1062" y="316" type="curve" smooth="yes"/>
      <point x="1062" y="469"/>
      <point x="967" y="549"/>
      <point x="787" y="549" type="curve" smooth="yes"/>
      <point x="698" y="549"/>
      <point x="629" y="531"/>
      <point x="584" y="499" type="curve"/>
      <point x="574" y="498" type="line"/>
      <point x="527" y="531"/>
      <point x="454" y="550"/>
      <point x="364" y="550" type="curve" smooth="yes"/>
      <point x="147" y="550"/>
      <point x="29" y="451"/>
      <point x="29" y="270" type="curve" smooth="yes"/>
      <point x="29" y="88"/>
      <point x="147" y="-11"/>
      <point x="364" y="-11" type="curve" smooth="yes"/>
      <point x="453" y="-11"/>
      <point x="525" y="7"/>
      <point x="572" y="39" type="curve"/>
      <point x="582" y="39" type="line"/>
      <point x="626" y="8"/>
      <point x="694" y="-9"/>
    </contour>
    <contour>
      <point x="364" y="161" type="curve" smooth="yes"/>
      <point x="285" y="161"/>
      <point x="259" y="183"/>
      <point x="259" y="270" type="curve" smooth="yes"/>
      <point x="259" y="356"/>
      <point x="285" y="377"/>
      <point x="364" y="377" type="curve" smooth="yes"/>
      <point x="443" y="377"/>
      <point x="468" y="357"/>
      <point x="468" y="270" type="curve" smooth="yes"/>
      <point x="468" y="182"/>
      <point x="443" y="161"/>
    </contour>
    <contour>
      <point x="694" y="322" type="line"/>
      <point x="699" y="379"/>
      <point x="720" y="396"/>
      <point x="775" y="396" type="curve" smooth="yes"/>
      <point x="836" y="396"/>
      <point x="859" y="375"/>
      <point x="861" y="322" type="curve"/>
    </contour>
  </outline>
</glyph>
<glyph name="Tbar" format="1">
  <advance width="718"/>
  <unicode hex="0166"/>
  <outline>
    <contour>
      <point x="83" y="300" type="line"/>
      <point x="656" y="300" type="line"/>
      <point x="656" y="427" type="line"/>
      <point x="83" y="427" type="line"/>
    </contour>
    <component base="T" xOffset="5"/>
  </outline>
</glyph>
<glyph name="tbar" format="1">
  <advance width="512"/>
  <unicode hex="0167"/>
  <outline>
    <contour>
      <point x="25" y="191" type="line"/>
      <point x="437" y="191" type="line"/>
      <point x="437" y="317" type="line"/>
      <point x="25" y="317" type="line"/>
    </contour>
    <component base="t" xOffset="1"/>
  </outline>
</glyph>
<glyph name="Schwa" format="1">
  <advance width="804"/>
  <unicode hex="018F"/>
  <outline>
    <contour>
      <point x="548" y="371" type="curve" smooth="yes"/>
      <point x="548" y="195"/>
      <point x="526" y="172"/>
      <point x="387" y="172" type="curve" smooth="yes"/>
      <point x="247" y="172"/>
      <point x="249" y="202"/>
      <point x="249" y="313" type="curve"/>
      <point x="222" y="286" type="line"/>
      <point x="670" y="286" type="line"/>
      <point x="670" y="441" type="line"/>
      <point x="38" y="441" type="line"/>
      <point x="31" y="382"/>
      <point x="29" y="357"/>
      <point x="29" y="327" type="curve" smooth="yes"/>
      <point x="29" y="85"/>
      <point x="154" y="-10"/>
      <point x="382" y="-10" type="curve" smooth="yes"/>
      <point x="647" y="-10"/>
      <point x="771" y="126"/>
      <point x="771" y="379" type="curve" smooth="yes"/>
      <point x="771" y="631"/>
      <point x="648" y="751"/>
      <point x="403" y="751" type="curve" smooth="yes"/>
      <point x="320" y="751"/>
      <point x="170" y="738"/>
      <point x="65" y="708" type="curve"/>
      <point x="74" y="523" type="line"/>
      <point x="207" y="547"/>
      <point x="307" y="552"/>
      <point x="377" y="552" type="curve" smooth="yes"/>
      <point x="525" y="552"/>
      <point x="548" y="537"/>
    </contour>
  </outline>
</glyph>
<glyph name="Aringacute" format="1">
  <advance width="825"/>
  <unicode hex="01FA"/>
  <outline>
    <contour>
      <point x="-5" y="0" type="line"/>
      <point x="223" y="0" type="line"/>
      <point x="267" y="142" type="line"/>
      <point x="557" y="142" type="line"/>
      <point x="602" y="0" type="line"/>
      <point x="830" y="0" type="line"/>
      <point x="830" y="12" type="line"/>
      <point x="606" y="675" type="line"/>
      <point x="626" y="699"/>
      <point x="638" y="728"/>
      <point x="638" y="760" type="curve" smooth="yes"/>
      <point x="638" y="821"/>
      <point x="598" y="869"/>
      <point x="533" y="895" type="curve"/>
      <point x="622" y="1030" type="line"/>
      <point x="387" y="1030" type="line"/>
      <point x="348" y="909" type="line"/>
      <point x="254" y="891"/>
      <point x="196" y="836"/>
      <point x="196" y="760" type="curve" smooth="yes"/>
      <point x="196" y="731"/>
      <point x="204" y="705"/>
      <point x="220" y="683" type="curve"/>
      <point x="-5" y="12" type="line"/>
    </contour>
    <contour>
      <point x="414" y="704" type="curve" smooth="yes"/>
      <point x="364" y="704"/>
      <point x="330" y="726"/>
      <point x="330" y="760" type="curve" smooth="yes"/>
      <point x="330" y="794"/>
      <point x="363" y="816"/>
      <point x="414" y="816" type="curve" smooth="yes"/>
      <point x="468" y="816"/>
      <point x="504" y="794"/>
      <point x="504" y="760" type="curve" smooth="yes"/>
      <point x="504" y="727"/>
      <point x="468" y="704"/>
    </contour>
    <contour>
      <point x="325" y="328" type="line"/>
      <point x="351" y="410" type="line"/>
      <point x="402" y="583" type="line"/>
      <point x="422" y="583" type="line"/>
      <point x="473" y="412" type="line"/>
      <point x="499" y="328" type="line"/>
    </contour>
  </outline>
</glyph>
<glyph name="iinvertedbreve" format="1">
  <advance width="342"/>
  <unicode hex="020B"/>
  <outline>
    <contour>
      <point x="-12" y="621" type="curve"/>
      <point x="97" y="621" type="line"/>
      <point x="97" y="677"/>
      <point x="107" y="710"/>
      <point x="173" y="710" type="curve" smooth="yes"/>
      <point x="240" y="710"/>
      <point x="250" y="677"/>
      <point x="250" y="621" type="curve"/>
      <point x="359" y="621" type="line"/>
      <point x="359" y="731"/>
      <point x="317" y="816"/>
      <point x="173" y="816" type="curve" smooth="yes"/>
      <point x="30" y="816"/>
      <point x="-12" y="727"/>
    </contour>
    <component base="dotlessi" xOffset="1"/>
  </outline>
</glyph>
<glyph name="circumflex" format="1">
  <advance width="552"/>
  <unicode hex="02C6"/>
  <outline>
    <contour>
      <point x="37" y="597" type="line"/>
      <point x="272" y="678" type="line"/>
      <point x="507" y="597" type="line"/>
      <point x="507" y="745" type="line"/>
      <point x="269" y="827" type="line"/>
      <point x="37" y="745" type="line"/>
    </contour>
    <contour>
      <point x="272" y="674" type="move" name="_top"/>
    </contour>
  </outline>
</glyph>
<glyph name="breve" format="1">
  <advance width="570"/>
  <unicode hex="02D8"/>
  <outline>
    <contour>
      <point x="284" y="611" type="curve" smooth="yes"/>
      <point x="482" y="611"/>
      <point x="540" y="695"/>
      <point x="540" y="806" type="curve"/>
      <point x="391" y="806" type="line"/>
      <point x="391" y="749"/>
      <point x="371" y="716"/>
      <point x="284" y="716" type="curve" smooth="yes"/>
      <point x="198" y="716"/>
      <point x="177" y="749"/>
      <point x="177" y="806" type="curve"/>
      <point x="28" y="806" type="line"/>
      <point x="28" y="699"/>
      <point x="85" y="611"/>
    </contour>
    <contour>
      <point x="284" y="674" type="move" name="_top"/>
    </contour>
  </outline>
</glyph>
<glyph name="dotaccent" format="1">
  <advance width="330"/>
  <unicode hex="02D9"/>
  <outline>
    <contour>
      <point x="164" y="594" type="curve" smooth="yes"/>
      <point x="254" y="594"/>
      <point x="285" y="633"/>
      <point x="285" y="712" type="curve" smooth="yes"/>
      <point x="285" y="791"/>
      <point x="254" y="830"/>
      <point x="164" y="830" type="curve" smooth="yes"/>
      <point x="76" y="830"/>
      <point x="42" y="794"/>
      <point x="42" y="712" type="curve" smooth="yes"/>
      <point x="42" y="629"/>
      <point x="76" y="594"/>
    </contour>
    <contour>
      <point x="164" y="674" type="move" name="_top"/>
    </contour>
  </outline>
</glyph>
<glyph name="ogonek" format="1">
  <advance width="355"/>
  <unicode hex="02DB"/>
  <outline>
    <contour>
      <point x="210" y="-220" type="curve" smooth="yes"/>
      <point x="246" y="-220"/>
      <point x="279" y="-216"/>
      <point x="308" y="-208" type="curve"/>
      <point x="308" y="-88" type="line"/>
      <point x="271" y="-97"/>
      <point x="222" y="-105"/>
      <point x="206" y="-105" type="curve" smooth="yes"/>
      <point x="189" y="-105"/>
      <point x="180" y="-98"/>
      <point x="180" y="-85" type="curve" smooth="yes"/>
      <point x="180" y="-60"/>
      <point x="209" y="-42"/>
      <point x="306" y="-5" type="curve"/>
      <point x="306" y="0" type="line"/>
      <point x="118" y="0" type="line"/>
      <point x="71" y="-26"/>
      <point x="35" y="-81"/>
      <point x="35" y="-124" type="curve" smooth="yes"/>
      <point x="35" y="-184"/>
      <point x="101" y="-220"/>
    </contour>
    <contour>
      <point x="209" y="54" type="move" name="_ogonek"/>
    </contour>
  </outline>
</glyph>
<glyph name="tilde" format="1">
  <advance width="576"/>
  <unicode hex="02DC"/>
  <outline>
    <contour>
      <point x="40" y="623" type="line"/>
      <point x="81" y="653"/>
      <point x="110" y="659"/>
      <point x="144" y="659" type="curve" smooth="yes"/>
      <point x="222" y="659"/>
      <point x="298" y="623"/>
      <point x="376" y="623" type="curve" smooth="yes"/>
      <point x="434" y="623"/>
      <point x="508" y="673"/>
      <point x="561" y="773" type="curve"/>
      <point x="538" y="811" type="line"/>
      <point x="493" y="781"/>
      <point x="465" y="775"/>
      <point x="433" y="775" type="curve" smooth="yes"/>
      <point x="355" y="775"/>
      <point x="280" y="811"/>
      <point x="202" y="811" type="curve" smooth="yes"/>
      <point x="141" y="811"/>
      <point x="67" y="761"/>
      <point x="16" y="661" type="curve"/>
    </contour>
    <contour>
      <point x="287" y="674" type="move" name="_top"/>
    </contour>
  </outline>
</glyph>
<glyph name="uni030F" format="1">
  <advance width="590"/>
  <unicode hex="030F"/>
  <outline>
    <contour>
      <point x="297" y="617" type="line"/>
      <point x="236" y="808" type="line"/>
      <point x="5" y="808" type="line"/>
      <point x="138" y="607" type="line"/>
    </contour>
    <contour>
      <point x="550" y="617" type="line"/>
      <point x="488" y="808" type="line"/>
      <point x="257" y="808" type="line"/>
      <point x="390" y="607" type="line"/>
    </contour>
    <contour>
      <point x="337" y="674" type="move" name="_top"/>
    </contour>
  </outline>
</glyph>
<glyph name="uni0311" format="1">
  <advance width="571"/>
  <unicode hex="0311"/>
  <outline>
    <contour>
      <point x="25" y="621" type="curve"/>
      <point x="174" y="621" type="line"/>
      <point x="174" y="677"/>
      <point x="195" y="710"/>
      <point x="281" y="710" type="curve" smooth="yes"/>
      <point x="368" y="710"/>
      <point x="388" y="677"/>
      <point x="388" y="621" type="curve"/>
      <point x="537" y="621" type="line"/>
      <point x="537" y="731"/>
      <point x="479" y="816"/>
      <point x="281" y="816" type="curve" smooth="yes"/>
      <point x="82" y="816"/>
      <point x="25" y="727"/>
    </contour>
    <contour>
      <point x="281" y="674" type="move" name="_top"/>
    </contour>
  </outline>
</glyph>
<glyph name="commaaccent" format="1">
  <advance width="325"/>
  <unicode hex="0326"/>
  <outline>
    <contour>
      <point x="35" y="-220" type="line"/>
      <point x="206" y="-220" type="line"/>
      <point x="310" y="-70" type="line"/>
      <point x="74" y="-70" type="line"/>
    </contour>
    <contour>
      <point x="187" y="-110" type="move" name="_bottom"/>
    </contour>
  </outline>
</glyph>
<glyph name="uni0394" format="1">
  <advance width="856"/>
  <unicode hex="0394"/>
  <outline>
    <contour>
      <point x="-16" y="0" type="line"/>
      <point x="872" y="0" type="line"/>
      <point x="563" y="740" type="line"/>
      <point x="293" y="740" type="line"/>
    </contour>
    <contour>
      <point x="272" y="175" type="line"/>
      <point x="428" y="548" type="line"/>
      <point x="584" y="175" type="line"/>
    </contour>
  </outline>
</glyph>
<glyph name="pi" format="1">
  <advance width="929"/>
  <unicode hex="03C0"/>
  <outline>
    <contour>
      <point x="221" y="-122" type="line"/>
      <point x="451" y="-122" type="line"/>
      <point x="451" y="367" type="line"/>
      <point x="515" y="367" type="line"/>
      <point x="515" y="177" type="line" smooth="yes"/>
      <point x="515" y="50"/>
      <point x="590" y="-17"/>
      <point x="732" y="-17" type="curve" smooth="yes"/>
      <point x="786" y="-17"/>
      <point x="847" y="-9"/>
      <point x="878" y="1" type="curve"/>
      <point x="878" y="170" type="line"/>
      <point x="857" y="161"/>
      <point x="836" y="156"/>
      <point x="817" y="156" type="curve" smooth="yes"/>
      <point x="762" y="156"/>
      <point x="745" y="173"/>
      <point x="745" y="230" type="curve" smooth="yes"/>
      <point x="745" y="367" type="line"/>
      <point x="900" y="367" type="line"/>
      <point x="900" y="481" type="line"/>
      <point x="816" y="540" type="line"/>
      <point x="196" y="541" type="line" smooth="yes"/>
      <point x="68" y="541"/>
      <point x="0" y="478"/>
      <point x="-2" y="363" type="curve"/>
      <point x="138" y="319" type="line"/>
      <point x="142" y="354"/>
      <point x="162" y="367"/>
      <point x="205" y="367" type="curve" smooth="yes"/>
      <point x="221" y="367" type="line"/>
    </contour>
  </outline>
</glyph>
<glyph name="endash" format="1">
  <advance width="746"/>
  <unicode hex="2013"/>
  <outline>
    <contour>
      <point x="52" y="198" type="line"/>
      <point x="694" y="198" type="line"/>
      <point x="694" y="362" type="line"/>
      <point x="52" y="362" type="line"/>
    </contour>
  </outline>
</glyph>
<glyph name="emdash" format="1">
  <advance width="917"/>
  <unicode hex="2014"/>
  <outline>
    <contour>
      <point x="52" y="198" type="line"/>
      <point x="865" y="198" type="line"/>
      <point x="865" y="362" type="line"/>
      <point x="52" y="362" type="line"/>
    </contour>
  </outline>
</glyph>
<glyph name="dagger" format="1">
  <advance width="686"/>
  <unicode hex="2020"/>
  <outline>
    <contour>
      <point x="287" y="65" type="line"/>
      <point x="399" y="65" type="line"/>
      <point x="439" y="265" type="line"/>
      <point x="439" y="345" type="line"/>
      <point x="399" y="481" type="line"/>
      <point x="597" y="459" type="line"/>
      <point x="658" y="459" type="line"/>
      <point x="658" y="615" type="line"/>
      <point x="597" y="615" type="line"/>
      <point x="399" y="593" type="line"/>
      <point x="439" y="729" type="line"/>
      <point x="439" y="808" type="line"/>
      <point x="248" y="808" type="line"/>
      <point x="248" y="729" type="line"/>
      <point x="287" y="593" type="line"/>
      <point x="89" y="615" type="line"/>
      <point x="28" y="615" type="line"/>
      <point x="28" y="459" type="line"/>
      <point x="89" y="459" type="line"/>
      <point x="287" y="481" type="line"/>
      <point x="248" y="345" type="line"/>
      <point x="248" y="265" type="line"/>
    </contour>
  </outline>
</glyph>
<glyph name="daggerdbl" format="1">
  <advance width="715"/>
  <unicode hex="2021"/>
  <outline>
    <contour>
      <point x="262" y="-198" type="line"/>
      <point x="453" y="-198" type="line"/>
      <point x="453" y="-119" type="line"/>
      <point x="413" y="17" type="line"/>
      <point x="611" y="-5" type="line"/>
      <point x="672" y="-5" type="line"/>
      <point x="672" y="151" type="line"/>
      <point x="611" y="151" type="line"/>
      <point x="413" y="129" type="line"/>
      <point x="453" y="265" type="line"/>
      <point x="453" y="345" type="line"/>
      <point x="413" y="481" type="line"/>
      <point x="611" y="459" type="line"/>
      <point x="672" y="459" type="line"/>
      <point x="672" y="615" type="line"/>
      <point x="611" y="615" type="line"/>
      <point x="413" y="593" type="line"/>
      <point x="453" y="729" type="line"/>
      <point x="453" y="808" type="line"/>
      <point x="262" y="808" type="line"/>
      <point x="262" y="729" type="line"/>
      <point x="301" y="593" type="line"/>
      <point x="103" y="615" type="line"/>
      <point x="42" y="615" type="line"/>
      <point x="42" y="459" type="line"/>
      <point x="103" y="459" type="line"/>
      <point x="301" y="481" type="line"/>
      <point x="262" y="345" type="line"/>
      <point x="262" y="265" type="line"/>
      <point x="301" y="129" type="line"/>
      <point x="103" y="151" type="line"/>
      <point x="42" y="151" type="line"/>
      <point x="42" y="-5" type="line"/>
      <point x="103" y="-5" type="line"/>
      <point x="301" y="17" type="line"/>
      <point x="262" y="-119" type="line"/>
    </contour>
  </outline>
</glyph>
<glyph name="bullet" format="1">
  <advance width="413"/>
  <unicode hex="2022"/>
  <outline>
    <contour>
      <point x="206" y="226" type="curve" smooth="yes"/>
      <point x="298" y="226"/>
      <point x="356" y="278"/>
      <point x="356" y="370" type="curve" smooth="yes"/>
      <point x="356" y="462"/>
      <point x="298" y="514"/>
      <point x="206" y="514" type="curve" smooth="yes"/>
      <point x="114" y="514"/>
      <point x="57" y="462"/>
      <point x="57" y="370" type="curve" smooth="yes"/>
      <point x="57" y="278"/>
      <point x="114" y="226"/>
    </contour>
  </outline>
</glyph>
<glyph name="guilsinglleft" format="1">
  <advance width="491"/>
  <unicode hex="2039"/>
  <outline>
    <contour>
      <point x="233" y="30" type="line"/>
      <point x="463" y="30" type="line"/>
      <point x="255" y="268" type="line"/>
      <point x="255" y="272" type="line"/>
      <point x="463" y="510" type="line"/>
      <point x="233" y="510" type="line"/>
      <point x="25" y="272" type="line"/>
      <point x="25" y="268" type="line"/>
    </contour>
  </outline>
</glyph>
<glyph name="guilsinglright" format="1">
  <advance width="491"/>
  <unicode hex="203A"/>
  <outline>
    <contour>
      <point x="466" y="268" type="line"/>
      <point x="466" y="272" type="line"/>
      <point x="258" y="510" type="line"/>
      <point x="28" y="510" type="line"/>
      <point x="236" y="272" type="line"/>
      <point x="236" y="268" type="line"/>
      <point x="28" y="30" type="line"/>
      <point x="258" y="30" type="line"/>
    </contour>
  </outline>
</glyph>
<glyph name="fraction" format="1">
  <advance width="365"/>
  <unicode hex="2044"/>
  <outline>
    <contour>
      <point x="-103" y="0" type="line"/>
      <point x="94" y="0" type="line"/>
      <point x="467" y="740" type="line"/>
      <point x="270" y="740" type="line"/>
    </contour>
  </outline>
</glyph>
<glyph name="zerosuperior" format="1">
  <advance width="638"/>
  <unicode hex="2070"/>
  <note>
    190/160
  </note>
  <outline>
    <contour>
      <point x="319" y="294" type="curve" smooth="yes"/>
      <point x="503" y="294"/>
      <point x="611" y="385"/>
      <point x="611" y="573" type="curve" smooth="yes"/>
      <point x="611" y="761"/>
      <point x="503" y="853"/>
      <point x="319" y="853" type="curve" smooth="yes"/>
      <point x="136" y="853"/>
      <point x="27" y="761"/>
      <point x="27" y="573" type="curve" smooth="yes"/>
      <point x="27" y="385"/>
      <point x="136" y="294"/>
    </contour>
    <contour>
      <point x="319" y="454" type="curve" smooth="yes"/>
      <point x="246" y="454"/>
      <point x="217" y="475"/>
      <point x="217" y="573" type="curve" smooth="yes"/>
      <point x="217" y="671"/>
      <point x="246" y="693"/>
      <point x="319" y="693" type="curve" smooth="yes"/>
      <point x="390" y="693"/>
      <point x="421" y="671"/>
      <point x="421" y="573" type="curve" smooth="yes"/>
      <point x="421" y="475"/>
      <point x="390" y="454"/>
    </contour>
  </outline>
</glyph>
<glyph name="fivesuperior" format="1">
  <advance width="533"/>
  <unicode hex="2075"/>
  <outline>
    <contour>
      <point x="216" y="291" type="curve" smooth="yes"/>
      <point x="353" y="291"/>
      <point x="510" y="323"/>
      <point x="510" y="475" type="curve" smooth="yes"/>
      <point x="510" y="606"/>
      <point x="431" y="646"/>
      <point x="203" y="646" type="curve"/>
      <point x="206" y="693" type="line"/>
      <point x="473" y="693" type="line"/>
      <point x="473" y="846" type="line"/>
      <point x="68" y="846" type="line"/>
      <point x="40" y="541" type="line"/>
      <point x="67" y="519" type="line"/>
      <point x="175" y="519" type="line" smooth="yes"/>
      <point x="276" y="519"/>
      <point x="309" y="512"/>
      <point x="309" y="478" type="curve" smooth="yes"/>
      <point x="309" y="450"/>
      <point x="270" y="445"/>
      <point x="188" y="445" type="curve" smooth="yes"/>
      <point x="151" y="445"/>
      <point x="116" y="447"/>
      <point x="74" y="453" type="curve"/>
      <point x="34" y="453" type="line"/>
      <point x="34" y="303" type="line"/>
      <point x="96" y="297"/>
      <point x="158" y="291"/>
    </contour>
  </outline>
</glyph>
<glyph name="sixsuperior" format="1">
  <advance width="611"/>
  <unicode hex="2076"/>
  <outline>
    <contour>
      <point x="310" y="294" type="curve" smooth="yes"/>
      <point x="483" y="294"/>
      <point x="588" y="369"/>
      <point x="588" y="492" type="curve" smooth="yes"/>
      <point x="588" y="596"/>
      <point x="496" y="664"/>
      <point x="368" y="664" type="curve" smooth="yes"/>
      <point x="313" y="664"/>
      <point x="259" y="651"/>
      <point x="221" y="623" type="curve"/>
      <point x="245" y="685"/>
      <point x="297" y="707"/>
      <point x="404" y="707" type="curve" smooth="yes"/>
      <point x="437" y="707"/>
      <point x="473" y="703"/>
      <point x="522" y="697" type="curve"/>
      <point x="552" y="838" type="line"/>
      <point x="492" y="848"/>
      <point x="441" y="853"/>
      <point x="397" y="853" type="curve" smooth="yes"/>
      <point x="152" y="853"/>
      <point x="27" y="751"/>
      <point x="27" y="550" type="curve" smooth="yes"/>
      <point x="27" y="382"/>
      <point x="130" y="294"/>
    </contour>
    <contour>
      <point x="310" y="437" type="curve" smooth="yes"/>
      <point x="255" y="437"/>
      <point x="228" y="461"/>
      <point x="221" y="519" type="curve"/>
      <point x="240" y="529"/>
      <point x="275" y="536"/>
      <point x="310" y="536" type="curve" smooth="yes"/>
      <point x="367" y="536"/>
      <point x="391" y="522"/>
      <point x="391" y="488" type="curve" smooth="yes"/>
      <point x="391" y="453"/>
      <point x="366" y="437"/>
    </contour>
  </outline>
</glyph>
<glyph name="ninesuperior" format="1">
  <advance width="611"/>
  <unicode hex="2079"/>
  <outline>
    <contour>
      <point x="214" y="294" type="curve" smooth="yes"/>
      <point x="459" y="294"/>
      <point x="584" y="396"/>
      <point x="584" y="597" type="curve" smooth="yes"/>
      <point x="584" y="762"/>
      <point x="484" y="853"/>
      <point x="301" y="853" type="curve"/>
      <point x="128" y="853"/>
      <point x="23" y="778"/>
      <point x="23" y="655" type="curve" smooth="yes"/>
      <point x="23" y="553"/>
      <point x="112" y="483"/>
      <point x="243" y="483" type="curve" smooth="yes"/>
      <point x="300" y="483"/>
      <point x="354" y="498"/>
      <point x="390" y="524" type="curve"/>
      <point x="365" y="463"/>
      <point x="315" y="440"/>
      <point x="207" y="440" type="curve" smooth="yes"/>
      <point x="182" y="440"/>
      <point x="159" y="442"/>
      <point x="89" y="450" type="curve"/>
      <point x="59" y="309" type="line"/>
      <point x="119" y="299"/>
      <point x="170" y="294"/>
    </contour>
    <contour>
      <point x="301" y="611" type="curve" smooth="yes"/>
      <point x="244" y="611"/>
      <point x="220" y="625"/>
      <point x="220" y="659" type="curve" smooth="yes"/>
      <point x="220" y="694"/>
      <point x="245" y="710"/>
      <point x="301" y="710" type="curve"/>
      <point x="356" y="710"/>
      <point x="383" y="686"/>
      <point x="390" y="628" type="curve"/>
      <point x="369" y="618"/>
      <point x="334" y="611"/>
    </contour>
  </outline>
</glyph>
<glyph name="threeinferior" format="1">
  <advance width="535"/>
  <unicode hex="2083"/>
  <outline>
    <contour>
      <point x="252" y="-109" type="curve" smooth="yes"/>
      <point x="417" y="-109"/>
      <point x="505" y="-52"/>
      <point x="505" y="54" type="curve" smooth="yes"/>
      <point x="505" y="113"/>
      <point x="478" y="158"/>
      <point x="429" y="183" type="curve"/>
      <point x="474" y="206"/>
      <point x="499" y="245"/>
      <point x="499" y="293" type="curve" smooth="yes"/>
      <point x="499" y="400"/>
      <point x="409" y="453"/>
      <point x="229" y="453" type="curve" smooth="yes"/>
      <point x="180" y="453"/>
      <point x="78" y="446"/>
      <point x="38" y="439" type="curve"/>
      <point x="38" y="281" type="line"/>
      <point x="40" y="281" type="line"/>
      <point x="95" y="288"/>
      <point x="161" y="293"/>
      <point x="196" y="293" type="curve" smooth="yes"/>
      <point x="283" y="293"/>
      <point x="302" y="288"/>
      <point x="302" y="265" type="curve" smooth="yes"/>
      <point x="302" y="240"/>
      <point x="276" y="233"/>
      <point x="179" y="233" type="curve" smooth="yes"/>
      <point x="115" y="233" type="line"/>
      <point x="115" y="116" type="line"/>
      <point x="179" y="116" type="line" smooth="yes"/>
      <point x="291" y="116"/>
      <point x="317" y="110"/>
      <point x="317" y="83" type="curve" smooth="yes"/>
      <point x="317" y="58"/>
      <point x="301" y="54"/>
      <point x="198" y="54" type="curve" smooth="yes"/>
      <point x="155" y="54"/>
      <point x="72" y="60"/>
      <point x="40" y="66" type="curve"/>
      <point x="38" y="66" type="line"/>
      <point x="38" y="-96" type="line"/>
      <point x="68" y="-103"/>
      <point x="167" y="-109"/>
    </contour>
  </outline>
</glyph>
<glyph name="fourinferior" format="1">
  <advance width="598"/>
  <unicode hex="2084"/>
  <outline>
    <contour>
      <point x="295" y="-100" type="line"/>
      <point x="485" y="-100" type="line"/>
      <point x="485" y="-15" type="line"/>
      <point x="582" y="-15" type="line"/>
      <point x="582" y="130" type="line"/>
      <point x="485" y="130" type="line"/>
      <point x="485" y="245" type="line"/>
      <point x="350" y="245" type="line"/>
      <point x="305" y="130" type="line"/>
      <point x="206" y="130" type="line"/>
      <point x="420" y="403" type="line"/>
      <point x="402" y="440" type="line"/>
      <point x="235" y="452" type="line"/>
      <point x="217" y="446" type="line"/>
      <point x="8" y="106" type="line"/>
      <point x="27" y="-15" type="line"/>
      <point x="295" y="-15" type="line"/>
    </contour>
  </outline>
</glyph>
<glyph name="fiveinferior" format="1">
  <advance width="533"/>
  <unicode hex="2085"/>
  <outline>
    <contour>
      <point x="216" y="-109" type="curve" smooth="yes"/>
      <point x="353" y="-109"/>
      <point x="510" y="-77"/>
      <point x="510" y="75" type="curve" smooth="yes"/>
      <point x="510" y="206"/>
      <point x="431" y="246"/>
      <point x="203" y="246" type="curve"/>
      <point x="206" y="293" type="line"/>
      <point x="473" y="293" type="line"/>
      <point x="473" y="446" type="line"/>
      <point x="68" y="446" type="line"/>
      <point x="40" y="141" type="line"/>
      <point x="67" y="119" type="line"/>
      <point x="175" y="119" type="line" smooth="yes"/>
      <point x="276" y="119"/>
      <point x="309" y="112"/>
      <point x="309" y="78" type="curve" smooth="yes"/>
      <point x="309" y="50"/>
      <point x="270" y="45"/>
      <point x="188" y="45" type="curve" smooth="yes"/>
      <point x="151" y="45"/>
      <point x="116" y="47"/>
      <point x="74" y="53" type="curve"/>
      <point x="34" y="53" type="line"/>
      <point x="34" y="-97" type="line"/>
      <point x="96" y="-103"/>
      <point x="158" y="-109"/>
    </contour>
  </outline>
</glyph>
<glyph name="sixinferior" format="1">
  <advance width="611"/>
  <unicode hex="2086"/>
  <outline>
    <contour>
      <point x="310" y="-106" type="curve" smooth="yes"/>
      <point x="483" y="-106"/>
      <point x="588" y="-31"/>
      <point x="588" y="92" type="curve" smooth="yes"/>
      <point x="588" y="196"/>
      <point x="496" y="264"/>
      <point x="368" y="264" type="curve" smooth="yes"/>
      <point x="313" y="264"/>
      <point x="259" y="251"/>
      <point x="221" y="223" type="curve"/>
      <point x="245" y="285"/>
      <point x="297" y="307"/>
      <point x="404" y="307" type="curve" smooth="yes"/>
      <point x="437" y="307"/>
      <point x="473" y="303"/>
      <point x="522" y="297" type="curve"/>
      <point x="552" y="438" type="line"/>
      <point x="492" y="448"/>
      <point x="441" y="453"/>
      <point x="397" y="453" type="curve" smooth="yes"/>
      <point x="152" y="453"/>
      <point x="27" y="351"/>
      <point x="27" y="150" type="curve" smooth="yes"/>
      <point x="27" y="-18"/>
      <point x="130" y="-106"/>
    </contour>
    <contour>
      <point x="310" y="37" type="curve" smooth="yes"/>
      <point x="255" y="37"/>
      <point x="228" y="61"/>
      <point x="221" y="119" type="curve"/>
      <point x="240" y="129"/>
      <point x="275" y="136"/>
      <point x="310" y="136" type="curve" smooth="yes"/>
      <point x="367" y="136"/>
      <point x="391" y="122"/>
      <point x="391" y="88" type="curve" smooth="yes"/>
      <point x="391" y="53"/>
      <point x="366" y="37"/>
    </contour>
  </outline>
</glyph>
<glyph name="seveninferior" format="1">
  <advance width="481"/>
  <unicode hex="2087"/>
  <outline>
    <contour>
      <point x="216" y="-119" type="line"/>
      <point x="94" y="-104" type="line"/>
      <point x="78" y="-66" type="line"/>
      <point x="312" y="358" type="line"/>
      <point x="325" y="293" type="line"/>
      <point x="17" y="293" type="line"/>
      <point x="17" y="416" type="line"/>
      <point x="41" y="440" type="line"/>
      <point x="454" y="440" type="line"/>
      <point x="476" y="361" type="line"/>
      <point x="476" y="337" type="line"/>
      <point x="259" y="-101" type="line"/>
    </contour>
  </outline>
</glyph>
<glyph name="nineinferior" format="1">
  <advance width="611"/>
  <unicode hex="2089"/>
  <outline>
    <contour>
      <point x="214" y="-106" type="curve" smooth="yes"/>
      <point x="459" y="-106"/>
      <point x="584" y="-4"/>
      <point x="584" y="197" type="curve" smooth="yes"/>
      <point x="584" y="362"/>
      <point x="484" y="453"/>
      <point x="301" y="453" type="curve"/>
      <point x="128" y="453"/>
      <point x="23" y="378"/>
      <point x="23" y="255" type="curve" smooth="yes"/>
      <point x="23" y="153"/>
      <point x="112" y="83"/>
      <point x="243" y="83" type="curve" smooth="yes"/>
      <point x="300" y="83"/>
      <point x="354" y="98"/>
      <point x="390" y="124" type="curve"/>
      <point x="365" y="63"/>
      <point x="315" y="40"/>
      <point x="207" y="40" type="curve" smooth="yes"/>
      <point x="182" y="40"/>
      <point x="159" y="42"/>
      <point x="89" y="50" type="curve"/>
      <point x="59" y="-91" type="line"/>
      <point x="119" y="-101"/>
      <point x="170" y="-106"/>
    </contour>
    <contour>
      <point x="301" y="211" type="curve" smooth="yes"/>
      <point x="244" y="211"/>
      <point x="220" y="225"/>
      <point x="220" y="259" type="curve" smooth="yes"/>
      <point x="220" y="294"/>
      <point x="245" y="310"/>
      <point x="301" y="310" type="curve"/>
      <point x="356" y="310"/>
      <point x="383" y="286"/>
      <point x="390" y="228" type="curve"/>
      <point x="369" y="218"/>
      <point x="334" y="211"/>
    </contour>
  </outline>
</glyph>
<glyph name="colonmonetary" format="1">
  <advance width="669"/>
  <unicode hex="20A1"/>
  <outline>
    <contour>
      <point x="237" y="-53" type="line"/>
      <point x="364" y="-53" type="line"/>
      <point x="618" y="807" type="line"/>
      <point x="491" y="807" type="line"/>
    </contour>
    <component base="C" xOffset="3"/>
  </outline>
</glyph>
<glyph name="franc" format="1">
  <advance width="792"/>
  <unicode hex="20A3"/>
  <outline>
    <contour>
      <point x="143" y="0" type="line"/>
      <point x="378" y="0" type="line"/>
      <point x="378" y="564" type="line"/>
      <point x="759" y="564" type="line"/>
      <point x="759" y="740" type="line"/>
      <point x="143" y="740" type="line"/>
    </contour>
    <contour>
      <point x="28" y="89" type="line"/>
      <point x="526" y="89" type="line"/>
      <point x="526" y="223" type="line"/>
      <point x="28" y="223" type="line"/>
    </contour>
    <contour>
      <point x="273" y="282" type="line"/>
      <point x="719" y="282" type="line"/>
      <point x="719" y="458" type="line"/>
      <point x="273" y="458" type="line"/>
    </contour>
  </outline>
</glyph>
<glyph name="uni20A9" format="1">
  <advance width="1271"/>
  <unicode hex="20A9"/>
  <outline>
    <contour>
      <point x="47" y="181" type="line"/>
      <point x="1227" y="181" type="line"/>
      <point x="1227" y="285" type="line"/>
      <point x="47" y="285" type="line"/>
    </contour>
    <contour>
      <point x="47" y="436" type="line"/>
      <point x="1227" y="436" type="line"/>
      <point x="1227" y="540" type="line"/>
      <point x="47" y="540" type="line"/>
    </contour>
    <component base="W" xOffset="34"/>
  </outline>
</glyph>
<glyph name="uni20B9" format="1">
  <advance width="674"/>
  <unicode hex="20B9"/>
  <outline>
    <contour>
      <point x="56" y="583" type="line"/>
      <point x="78" y="584"/>
      <point x="96" y="582"/>
      <point x="117" y="582" type="curve" smooth="yes"/>
      <point x="264" y="582"/>
      <point x="293" y="560"/>
      <point x="293" y="497" type="curve" smooth="yes"/>
      <point x="293" y="433"/>
      <point x="263" y="408"/>
      <point x="104" y="408" type="curve" smooth="yes"/>
      <point x="56" y="408" type="line"/>
      <point x="56" y="232" type="line"/>
      <point x="310" y="232" type="line"/>
      <point x="340" y="284" type="line"/>
      <point x="340" y="295" type="line"/>
      <point x="466" y="325"/>
      <point x="529" y="402"/>
      <point x="529" y="510" type="curve" smooth="yes"/>
      <point x="529" y="584"/>
      <point x="501" y="642"/>
      <point x="441" y="686" type="curve"/>
      <point x="55" y="686" type="line"/>
    </contour>
    <contour>
      <point x="299" y="0" type="line"/>
      <point x="549" y="0" type="line"/>
      <point x="315" y="326" type="line"/>
      <point x="111" y="263" type="line"/>
    </contour>
    <contour>
      <point x="55" y="617" type="line"/>
      <point x="628" y="617" type="line"/>
      <point x="648" y="740" type="line"/>
      <point x="55" y="740" type="line"/>
    </contour>
    <contour>
      <point x="55" y="435" type="line"/>
      <point x="596" y="435" type="line"/>
      <point x="616" y="559" type="line"/>
      <point x="55" y="559" type="line"/>
    </contour>
  </outline>
</glyph>
<glyph name="servicemark" format="1">
  <advance width="1066"/>
  <unicode hex="2120"/>
  <outline>
    <contour>
      <point x="229" y="311" type="curve" smooth="yes"/>
      <point x="361" y="311"/>
      <point x="425" y="357"/>
      <point x="425" y="451" type="curve" smooth="yes"/>
      <point x="425" y="523"/>
      <point x="375" y="566"/>
      <point x="265" y="579" type="curve" smooth="yes"/>
      <point x="221" y="584"/>
      <point x="203" y="595"/>
      <point x="203" y="613" type="curve" smooth="yes"/>
      <point x="203" y="627"/>
      <point x="222" y="634"/>
      <point x="261" y="634" type="curve" smooth="yes"/>
      <point x="301" y="634"/>
      <point x="356" y="625"/>
      <point x="401" y="612" type="curve"/>
      <point x="401" y="726" type="line"/>
      <point x="322" y="740"/>
      <point x="287" y="744"/>
      <point x="246" y="744" type="curve" smooth="yes"/>
      <point x="126" y="744"/>
      <point x="54" y="694"/>
      <point x="54" y="609" type="curve" smooth="yes"/>
      <point x="54" y="524"/>
      <point x="105" y="480"/>
      <point x="219" y="467" type="curve" smooth="yes"/>
      <point x="261" y="462"/>
      <point x="276" y="454"/>
      <point x="276" y="438" type="curve" smooth="yes"/>
      <point x="276" y="425"/>
      <point x="262" y="421"/>
      <point x="220" y="421" type="curve" smooth="yes"/>
      <point x="176" y="421"/>
      <point x="126" y="427"/>
      <point x="50" y="442" type="curve"/>
      <point x="50" y="328" type="line"/>
      <point x="105" y="318"/>
      <point x="180" y="311"/>
    </contour>
    <contour>
      <point x="468" y="320" type="line"/>
      <point x="595" y="320" type="line"/>
      <point x="595" y="577" type="line"/>
      <point x="684" y="335" type="line"/>
      <point x="791" y="335" type="line"/>
      <point x="880" y="577" type="line"/>
      <point x="880" y="320" type="line"/>
      <point x="1006" y="320" type="line"/>
      <point x="1006" y="740" type="line"/>
      <point x="824" y="740" type="line"/>
      <point x="737" y="499" type="line"/>
      <point x="650" y="740" type="line"/>
      <point x="468" y="740" type="line"/>
    </contour>
  </outline>
</glyph>
<glyph name="trademark" format="1">
  <advance width="1091"/>
  <unicode hex="2122"/>
  <outline>
    <contour>
      <point x="488" y="320" type="line"/>
      <point x="615" y="320" type="line"/>
      <point x="615" y="577" type="line"/>
      <point x="704" y="335" type="line"/>
      <point x="811" y="335" type="line"/>
      <point x="900" y="577" type="line"/>
      <point x="900" y="320" type="line"/>
      <point x="1026" y="320" type="line"/>
      <point x="1026" y="740" type="line"/>
      <point x="844" y="740" type="line"/>
      <point x="757" y="499" type="line"/>
      <point x="670" y="740" type="line"/>
      <point x="488" y="740" type="line"/>
    </contour>
    <contour>
      <point x="166" y="320" type="line"/>
      <point x="308" y="320" type="line"/>
      <point x="308" y="632" type="line"/>
      <point x="446" y="632" type="line"/>
      <point x="446" y="740" type="line"/>
      <point x="29" y="740" type="line"/>
      <point x="29" y="632" type="line"/>
      <point x="166" y="632" type="line"/>
    </contour>
  </outline>
</glyph>
<glyph name="arrowleft" format="1">
  <advance width="723"/>
  <unicode hex="2190"/>
  <outline>
    <contour>
      <point x="329" y="74" type="line"/>
      <point x="444" y="189" type="line"/>
      <point x="285" y="325" type="line"/>
      <point x="688" y="325" type="line"/>
      <point x="688" y="493" type="line"/>
      <point x="285" y="493" type="line"/>
      <point x="444" y="629" type="line"/>
      <point x="329" y="744" type="line"/>
      <point x="25" y="441" type="line"/>
      <point x="25" y="377" type="line"/>
    </contour>
  </outline>
</glyph>
<glyph name="arrowdown" format="1">
  <advance width="714"/>
  <unicode hex="2193"/>
  <outline>
    <contour>
      <point x="325" y="76" type="line"/>
      <point x="389" y="76" type="line"/>
      <point x="692" y="380" type="line"/>
      <point x="577" y="495" type="line"/>
      <point x="441" y="336" type="line"/>
      <point x="441" y="739" type="line"/>
      <point x="273" y="739" type="line"/>
      <point x="273" y="336" type="line"/>
      <point x="137" y="495" type="line"/>
      <point x="22" y="380" type="line"/>
    </contour>
  </outline>
</glyph>
<glyph name="partialdiff" format="1">
  <advance width="623"/>
  <unicode hex="2202"/>
  <outline>
    <contour>
      <point x="311" y="-4" type="curve" smooth="yes"/>
      <point x="479" y="-4"/>
      <point x="582" y="123"/>
      <point x="582" y="333" type="curve" smooth="yes"/>
      <point x="582" y="614"/>
      <point x="478" y="755"/>
      <point x="290" y="755" type="curve" smooth="yes"/>
      <point x="214" y="755"/>
      <point x="137" y="732"/>
      <point x="86" y="690" type="curve"/>
      <point x="129" y="570" type="line"/>
      <point x="176" y="593"/>
      <point x="233" y="608"/>
      <point x="273" y="608" type="curve" smooth="yes"/>
      <point x="329" y="608"/>
      <point x="356" y="575"/>
      <point x="367" y="471" type="curve"/>
      <point x="336" y="495"/>
      <point x="302" y="510"/>
      <point x="265" y="510" type="curve" smooth="yes"/>
      <point x="120" y="510"/>
      <point x="31" y="407"/>
      <point x="31" y="270" type="curve" smooth="yes"/>
      <point x="31" y="112"/>
      <point x="122" y="-4"/>
    </contour>
    <contour>
      <point x="307" y="162" type="curve" smooth="yes"/>
      <point x="265" y="162"/>
      <point x="241" y="199"/>
      <point x="241" y="270" type="curve" smooth="yes"/>
      <point x="241" y="336"/>
      <point x="278" y="370"/>
      <point x="319" y="370" type="curve" smooth="yes"/>
      <point x="337" y="370"/>
      <point x="355" y="363"/>
      <point x="373" y="351" type="curve"/>
      <point x="373" y="310" type="line" smooth="yes"/>
      <point x="373" y="186"/>
      <point x="355" y="162"/>
    </contour>
  </outline>
</glyph>
<glyph name="Delta" format="1">
  <advance width="930"/>
  <unicode hex="2206"/>
  <outline>
    <contour>
      <point x="21" y="0" type="line"/>
      <point x="909" y="0" type="line"/>
      <point x="600" y="740" type="line"/>
      <point x="330" y="740" type="line"/>
    </contour>
    <contour>
      <point x="309" y="175" type="line"/>
      <point x="465" y="548" type="line"/>
      <point x="621" y="175" type="line"/>
    </contour>
  </outline>
</glyph>
<glyph name="summation" format="1">
  <advance width="638"/>
  <unicode hex="2211"/>
  <outline>
    <contour>
      <point x="32" y="-101" type="line"/>
      <point x="598" y="-101" type="line"/>
      <point x="598" y="71" type="line"/>
      <point x="305" y="71" type="line"/>
      <point x="481" y="320" type="line"/>
      <point x="306" y="567" type="line"/>
      <point x="598" y="567" type="line"/>
      <point x="598" y="740" type="line"/>
      <point x="32" y="740" type="line"/>
      <point x="32" y="626" type="line"/>
      <point x="264" y="319" type="line"/>
      <point x="32" y="13" type="line"/>
    </contour>
  </outline>
</glyph>
<glyph name="minus" format="1">
  <advance width="586"/>
  <unicode hex="2212"/>
  <outline>
    <contour>
      <point x="56" y="303" type="line"/>
      <point x="530" y="303" type="line"/>
      <point x="530" y="437" type="line"/>
      <point x="56" y="437" type="line"/>
    </contour>
  </outline>
</glyph>
<glyph name="uni2215" format="1">
  <advance width="534"/>
  <unicode hex="2215"/>
  <outline>
    <contour>
      <point x="-18" y="0" type="line"/>
      <point x="179" y="0" type="line"/>
      <point x="552" y="740" type="line"/>
      <point x="355" y="740" type="line"/>
    </contour>
  </outline>
</glyph>
<glyph name="radical" format="1">
  <advance width="774"/>
  <unicode hex="221A"/>
  <outline>
    <contour>
      <point x="292" y="0" type="line"/>
      <point x="567" y="0" type="line"/>
      <point x="774" y="858" type="line"/>
      <point x="561" y="858" type="line"/>
      <point x="421" y="178" type="line"/>
      <point x="282" y="584" type="line"/>
      <point x="-9" y="468" type="line"/>
      <point x="55" y="312" type="line"/>
      <point x="152" y="354" type="line"/>
    </contour>
  </outline>
</glyph>
<glyph name="infinity" format="1">
  <advance width="964"/>
  <unicode hex="221E"/>
  <outline>
    <contour>
      <point x="268" y="115" type="curve" smooth="yes"/>
      <point x="364" y="115"/>
      <point x="420" y="158"/>
      <point x="482" y="204" type="curve"/>
      <point x="539" y="146"/>
      <point x="614" y="115"/>
      <point x="696" y="115" type="curve" smooth="yes"/>
      <point x="828" y="115"/>
      <point x="928" y="199"/>
      <point x="928" y="310" type="curve" smooth="yes"/>
      <point x="928" y="427"/>
      <point x="832" y="509"/>
      <point x="696" y="509" type="curve" smooth="yes"/>
      <point x="600" y="509"/>
      <point x="544" y="464"/>
      <point x="481" y="420" type="curve"/>
      <point x="424" y="478"/>
      <point x="350" y="509"/>
      <point x="268" y="509" type="curve" smooth="yes"/>
      <point x="136" y="509"/>
      <point x="36" y="425"/>
      <point x="36" y="314" type="curve" smooth="yes"/>
      <point x="36" y="197"/>
      <point x="132" y="115"/>
    </contour>
    <contour>
      <point x="294" y="236" type="curve" smooth="yes"/>
      <point x="248" y="236"/>
      <point x="215" y="269"/>
      <point x="215" y="314" type="curve" smooth="yes"/>
      <point x="215" y="360"/>
      <point x="242" y="388"/>
      <point x="288" y="388" type="curve" smooth="yes"/>
      <point x="333" y="388"/>
      <point x="369" y="367"/>
      <point x="413" y="314" type="curve"/>
      <point x="376" y="263"/>
      <point x="334" y="236"/>
    </contour>
    <contour>
      <point x="676" y="236" type="curve" smooth="yes"/>
      <point x="631" y="236"/>
      <point x="594" y="257"/>
      <point x="551" y="310" type="curve"/>
      <point x="587" y="360"/>
      <point x="629" y="388"/>
      <point x="670" y="388" type="curve" smooth="yes"/>
      <point x="716" y="388"/>
      <point x="749" y="355"/>
      <point x="749" y="310" type="curve" smooth="yes"/>
      <point x="749" y="264"/>
      <point x="722" y="236"/>
    </contour>
  </outline>
</glyph>
<glyph name="notequal" format="1">
  <advance width="568"/>
  <unicode hex="2260"/>
  <outline>
    <contour>
      <point x="282" y="627" type="line"/>
      <point x="137" y="84" type="line"/>
      <point x="267" y="50" type="line"/>
      <point x="412" y="593" type="line"/>
    </contour>
    <contour>
      <point x="62" y="167" type="line"/>
      <point x="506" y="167" type="line"/>
      <point x="506" y="305" type="line"/>
      <point x="62" y="305" type="line"/>
    </contour>
    <contour>
      <point x="62" y="390" type="line"/>
      <point x="506" y="390" type="line"/>
      <point x="506" y="528" type="line"/>
      <point x="62" y="528" type="line"/>
    </contour>
  </outline>
</glyph>
<glyph name="lessequal" format="1">
  <advance width="596"/>
  <unicode hex="2264"/>
  <outline>
    <contour>
      <point x="51" y="396" type="line"/>
      <point x="190" y="426" type="line"/>
      <point x="534" y="515" type="line"/>
      <point x="534" y="662" type="line"/>
      <point x="51" y="505" type="line"/>
    </contour>
    <contour>
      <point x="51" y="373" type="line"/>
      <point x="534" y="216" type="line"/>
      <point x="534" y="363" type="line"/>
      <point x="190" y="452" type="line"/>
      <point x="51" y="482" type="line"/>
    </contour>
    <contour>
      <point x="50" y="56" type="line"/>
      <point x="534" y="56" type="line"/>
      <point x="534" y="190" type="line"/>
      <point x="50" y="190" type="line"/>
    </contour>
  </outline>
</glyph>
<glyph name="AE.sc" format="1">
  <advance width="1040"/>
  <outline>
    <contour>
      <point x="-12" y="0" type="line"/>
      <point x="204" y="0" type="line"/>
      <point x="253" y="90" type="line"/>
      <point x="481" y="90" type="line"/>
      <point x="485" y="0" type="line"/>
      <point x="1003" y="0" type="line"/>
      <point x="1003" y="160" type="line"/>
      <point x="709" y="160" type="line"/>
      <point x="701" y="222" type="line"/>
      <point x="976" y="222" type="line"/>
      <point x="976" y="356" type="line"/>
      <point x="686" y="356" type="line"/>
      <point x="681" y="418" type="line"/>
      <point x="984" y="418" type="line"/>
      <point x="984" y="577" type="line"/>
      <point x="288" y="577" type="line"/>
      <point x="-12" y="11" type="line"/>
    </contour>
    <contour>
      <point x="440" y="431" type="line"/>
      <point x="465" y="431" type="line"/>
      <point x="472" y="230" type="line"/>
      <point x="330" y="230" type="line"/>
    </contour>
    <contour>
      <point x="448" y="760" type="move" name="topUC"/>
    </contour>
  </outline>
</glyph>
<glyph name="Acircumflex.sc" format="1">
  <advance width="763"/>
  <outline>
    <contour>
      <point x="-4" y="0" type="line"/>
      <point x="213" y="0" type="line"/>
      <point x="250" y="90" type="line"/>
      <point x="512" y="90" type="line"/>
      <point x="550" y="0" type="line"/>
      <point x="767" y="0" type="line"/>
      <point x="767" y="11" type="line"/>
      <point x="545" y="577" type="line"/>
      <point x="218" y="577" type="line"/>
      <point x="-4" y="11" type="line"/>
    </contour>
    <contour>
      <point x="296" y="245" type="line"/>
      <point x="324" y="311" type="line"/>
      <point x="371" y="429" type="line"/>
      <point x="390" y="429" type="line"/>
      <point x="438" y="313" type="line"/>
      <point x="466" y="245" type="line"/>
    </contour>
    <contour>
      <point x="163" y="618" type="line"/>
      <point x="383" y="684" type="line"/>
      <point x="602" y="618" type="line"/>
      <point x="602" y="755" type="line"/>
      <point x="380" y="822" type="line"/>
      <point x="163" y="755" type="line"/>
    </contour>
  </outline>
</glyph>
<glyph name="Adieresis.sc" format="1">
  <advance width="763"/>
  <outline>
    <contour>
      <point x="233" y="612" type="curve" smooth="yes"/>
      <point x="318" y="612"/>
      <point x="347" y="648"/>
      <point x="347" y="721" type="curve" smooth="yes"/>
      <point x="347" y="793"/>
      <point x="318" y="830"/>
      <point x="233" y="830" type="curve" smooth="yes"/>
      <point x="150" y="830"/>
      <point x="118" y="796"/>
      <point x="118" y="721" type="curve" smooth="yes"/>
      <point x="118" y="644"/>
      <point x="150" y="612"/>
    </contour>
    <contour>
      <point x="528" y="612" type="curve" smooth="yes"/>
      <point x="613" y="612"/>
      <point x="642" y="648"/>
      <point x="642" y="721" type="curve" smooth="yes"/>
      <point x="642" y="793"/>
      <point x="613" y="830"/>
      <point x="528" y="830" type="curve" smooth="yes"/>
      <point x="444" y="830"/>
      <point x="414" y="796"/>
      <point x="414" y="721" type="curve" smooth="yes"/>
      <point x="414" y="644"/>
      <point x="444" y="612"/>
    </contour>
    <contour>
      <point x="-4" y="0" type="line"/>
      <point x="213" y="0" type="line"/>
      <point x="250" y="90" type="line"/>
      <point x="512" y="90" type="line"/>
      <point x="550" y="0" type="line"/>
      <point x="767" y="0" type="line"/>
      <point x="767" y="11" type="line"/>
      <point x="545" y="577" type="line"/>
      <point x="218" y="577" type="line"/>
      <point x="-4" y="11" type="line"/>
    </contour>
    <contour>
      <point x="296" y="245" type="line"/>
      <point x="324" y="311" type="line"/>
      <point x="371" y="429" type="line"/>
      <point x="390" y="429" type="line"/>
      <point x="438" y="313" type="line"/>
      <point x="466" y="245" type="line"/>
    </contour>
  </outline>
</glyph>
<glyph name="Aogonek.sc" format="1">
  <advance width="762"/>
  <outline>
    <contour>
      <point x="678" y="-173" type="curve" smooth="yes"/>
      <point x="706" y="-173"/>
      <point x="738" y="-171"/>
      <point x="768" y="-164" type="curve"/>
      <point x="768" y="-52" type="line"/>
      <point x="744" y="-58"/>
      <point x="689" y="-63"/>
      <point x="670" y="-63" type="curve" smooth="yes"/>
      <point x="656" y="-63"/>
      <point x="651" y="-62"/>
      <point x="651" y="-53" type="curve" smooth="yes"/>
      <point x="651" y="-48"/>
      <point x="655" y="-39"/>
      <point x="766" y="-2" type="curve"/>
      <point x="766" y="11" type="line"/>
      <point x="544" y="577" type="line"/>
      <point x="217" y="577" type="line"/>
      <point x="-5" y="11" type="line"/>
      <point x="-5" y="0" type="line"/>
      <point x="212" y="0" type="line"/>
      <point x="249" y="90" type="line"/>
      <point x="511" y="90" type="line"/>
      <point x="549" y="0" type="line"/>
      <point x="581" y="0" type="line"/>
      <point x="548" y="-11"/>
      <point x="514" y="-61"/>
      <point x="514" y="-93" type="curve" smooth="yes"/>
      <point x="514" y="-139"/>
      <point x="576" y="-173"/>
    </contour>
    <contour>
      <point x="294" y="245" type="line"/>
      <point x="323" y="311" type="line"/>
      <point x="370" y="429" type="line"/>
      <point x="389" y="429" type="line"/>
      <point x="437" y="313" type="line"/>
      <point x="464" y="245" type="line"/>
    </contour>
  </outline>
</glyph>
<glyph name="Aring.sc" format="1">
  <advance width="763"/>
  <outline>
    <contour>
      <point x="-4" y="0" type="line"/>
      <point x="213" y="0" type="line"/>
      <point x="250" y="90" type="line"/>
      <point x="512" y="90" type="line"/>
      <point x="550" y="0" type="line"/>
      <point x="767" y="0" type="line"/>
      <point x="767" y="11" type="line"/>
      <point x="545" y="577" type="line"/>
      <point x="218" y="577" type="line"/>
      <point x="-4" y="11" type="line"/>
    </contour>
    <contour>
      <point x="296" y="245" type="line"/>
      <point x="324" y="311" type="line"/>
      <point x="371" y="429" type="line"/>
      <point x="390" y="429" type="line"/>
      <point x="438" y="313" type="line"/>
      <point x="466" y="245" type="line"/>
    </contour>
    <contour>
      <point x="382" y="604" type="curve" smooth="yes"/>
      <point x="460" y="604"/>
      <point x="518" y="641"/>
      <point x="518" y="699" type="curve" smooth="yes"/>
      <point x="518" y="756"/>
      <point x="460" y="795"/>
      <point x="382" y="795" type="curve" smooth="yes"/>
      <point x="305" y="795"/>
      <point x="246" y="756"/>
      <point x="246" y="699" type="curve" smooth="yes"/>
      <point x="246" y="641"/>
      <point x="305" y="604"/>
    </contour>
    <contour>
      <point x="382" y="666" type="curve" smooth="yes"/>
      <point x="338" y="666"/>
      <point x="327" y="676"/>
      <point x="327" y="699" type="curve" smooth="yes"/>
      <point x="327" y="723"/>
      <point x="338" y="732"/>
      <point x="382" y="732" type="curve" smooth="yes"/>
      <point x="426" y="732"/>
      <point x="437" y="723"/>
      <point x="437" y="699" type="curve" smooth="yes"/>
      <point x="437" y="676"/>
      <point x="426" y="666"/>
    </contour>
  </outline>
</glyph>
<glyph name="Aringacute.sc" format="1">
  <advance width="763"/>
  <outline>
    <contour>
      <point x="-4" y="0" type="line"/>
      <point x="213" y="0" type="line"/>
      <point x="250" y="90" type="line"/>
      <point x="512" y="90" type="line"/>
      <point x="550" y="0" type="line"/>
      <point x="767" y="0" type="line"/>
      <point x="767" y="11" type="line"/>
      <point x="564" y="528" type="line"/>
      <point x="582" y="548"/>
      <point x="593" y="570"/>
      <point x="593" y="594" type="curve" smooth="yes"/>
      <point x="593" y="643"/>
      <point x="556" y="682"/>
      <point x="496" y="705" type="curve"/>
      <point x="577" y="816" type="line"/>
      <point x="354" y="816" type="line"/>
      <point x="320" y="718" type="line"/>
      <point x="233" y="702"/>
      <point x="180" y="657"/>
      <point x="180" y="594" type="curve" smooth="yes"/>
      <point x="180" y="574"/>
      <point x="186" y="555"/>
      <point x="200" y="537" type="curve"/>
      <point x="-4" y="11" type="line"/>
    </contour>
    <contour>
      <point x="383" y="554" type="curve" smooth="yes"/>
      <point x="338" y="554"/>
      <point x="307" y="570"/>
      <point x="307" y="594" type="curve" smooth="yes"/>
      <point x="307" y="618"/>
      <point x="337" y="634"/>
      <point x="383" y="634" type="curve" smooth="yes"/>
      <point x="433" y="634"/>
      <point x="466" y="618"/>
      <point x="466" y="594" type="curve" smooth="yes"/>
      <point x="466" y="571"/>
      <point x="433" y="554"/>
    </contour>
    <contour>
      <point x="298" y="245" type="line"/>
      <point x="324" y="311" type="line"/>
      <point x="373" y="441" type="line"/>
      <point x="389" y="441" type="line"/>
      <point x="438" y="313" type="line"/>
      <point x="468" y="245" type="line"/>
    </contour>
  </outline>
</glyph>
<glyph name="Atilde.sc" format="1">
  <advance width="763"/>
  <outline>
    <contour>
      <point x="-4" y="0" type="line"/>
      <point x="213" y="0" type="line"/>
      <point x="250" y="90" type="line"/>
      <point x="512" y="90" type="line"/>
      <point x="550" y="0" type="line"/>
      <point x="767" y="0" type="line"/>
      <point x="767" y="11" type="line"/>
      <point x="545" y="577" type="line"/>
      <point x="218" y="577" type="line"/>
      <point x="-4" y="11" type="line"/>
    </contour>
    <contour>
      <point x="296" y="245" type="line"/>
      <point x="324" y="311" type="line"/>
      <point x="371" y="429" type="line"/>
      <point x="390" y="429" type="line"/>
      <point x="438" y="313" type="line"/>
      <point x="466" y="245" type="line"/>
    </contour>
    <contour>
      <point x="150" y="639" type="line"/>
      <point x="188" y="663"/>
      <point x="214" y="667"/>
      <point x="245" y="667" type="curve" smooth="yes"/>
      <point x="318" y="667"/>
      <point x="389" y="640"/>
      <point x="462" y="640" type="curve" smooth="yes"/>
      <point x="515" y="640"/>
      <point x="584" y="685"/>
      <point x="633" y="777" type="curve"/>
      <point x="613" y="810" type="line"/>
      <point x="571" y="786"/>
      <point x="545" y="783"/>
      <point x="516" y="783" type="curve" smooth="yes"/>
      <point x="444" y="783"/>
      <point x="373" y="809"/>
      <point x="301" y="809" type="curve" smooth="yes"/>
      <point x="244" y="809"/>
      <point x="175" y="763"/>
      <point x="128" y="672" type="curve"/>
    </contour>
  </outline>
</glyph>
<glyph name="B.sc" format="1">
  <advance width="740"/>
  <outline>
    <contour>
      <point x="410" y="-8" type="curve" smooth="yes"/>
      <point x="620" y="-8"/>
      <point x="712" y="43"/>
      <point x="712" y="163" type="curve" smooth="yes"/>
      <point x="712" y="234"/>
      <point x="660" y="282"/>
      <point x="566" y="297" type="curve"/>
      <point x="566" y="300" type="line"/>
      <point x="649" y="321"/>
      <point x="689" y="357"/>
      <point x="689" y="416" type="curve" smooth="yes"/>
      <point x="689" y="532"/>
      <point x="588" y="585"/>
      <point x="362" y="585" type="curve" smooth="yes"/>
      <point x="262" y="585"/>
      <point x="165" y="581"/>
      <point x="62" y="573" type="curve"/>
      <point x="62" y="4" type="line"/>
      <point x="188" y="-4"/>
      <point x="292" y="-8"/>
    </contour>
    <contour>
      <point x="392" y="135" type="curve" smooth="yes"/>
      <point x="300" y="135"/>
      <point x="292" y="134"/>
      <point x="276" y="136" type="curve"/>
      <point x="276" y="231" type="line"/>
      <point x="390" y="231" type="line" smooth="yes"/>
      <point x="465" y="231"/>
      <point x="493" y="222"/>
      <point x="493" y="188" type="curve" smooth="yes"/>
      <point x="493" y="150"/>
      <point x="462" y="135"/>
    </contour>
    <contour>
      <point x="276" y="354" type="line"/>
      <point x="276" y="439" type="line"/>
      <point x="300" y="443"/>
      <point x="333" y="443"/>
      <point x="370" y="443" type="curve" smooth="yes"/>
      <point x="445" y="443"/>
      <point x="471" y="432"/>
      <point x="471" y="399" type="curve" smooth="yes"/>
      <point x="471" y="365"/>
      <point x="444" y="354"/>
      <point x="369" y="354" type="curve" smooth="yes"/>
    </contour>
  </outline>
</glyph>
<glyph name="C.sc" format="1">
  <advance width="609"/>
  <outline>
    <contour>
      <point x="427" y="-14" type="curve" smooth="yes"/>
      <point x="480" y="-14"/>
      <point x="526" y="-11"/>
      <point x="572" y="-5" type="curve"/>
      <point x="572" y="172" type="line"/>
      <point x="544" y="169"/>
      <point x="468" y="166"/>
      <point x="427" y="166" type="curve" smooth="yes"/>
      <point x="280" y="166"/>
      <point x="263" y="179"/>
      <point x="263" y="288" type="curve" smooth="yes"/>
      <point x="263" y="401"/>
      <point x="277" y="412"/>
      <point x="429" y="412" type="curve" smooth="yes"/>
      <point x="482" y="412"/>
      <point x="503" y="411"/>
      <point x="572" y="407" type="curve"/>
      <point x="572" y="582" type="line"/>
      <point x="503" y="588"/>
      <point x="455" y="590"/>
      <point x="402" y="590" type="curve" smooth="yes"/>
      <point x="151" y="590"/>
      <point x="33" y="493"/>
      <point x="33" y="288" type="curve" smooth="yes"/>
      <point x="33" y="81"/>
      <point x="156" y="-14"/>
    </contour>
    <contour>
      <point x="324" y="760" type="move" name="topUC"/>
    </contour>
    <contour>
      <point x="319" y="0" type="move" name="bottom"/>
    </contour>
  </outline>
</glyph>
<glyph name="Cacute.sc" format="1">
  <advance width="609"/>
  <outline>
    <contour>
      <point x="426" y="-14" type="curve" smooth="yes"/>
      <point x="472" y="-14"/>
      <point x="519" y="-12"/>
      <point x="571" y="-5" type="curve"/>
      <point x="571" y="172" type="line"/>
      <point x="542" y="169"/>
      <point x="465" y="166"/>
      <point x="426" y="166" type="curve" smooth="yes"/>
      <point x="286" y="166"/>
      <point x="262" y="174"/>
      <point x="262" y="288" type="curve" smooth="yes"/>
      <point x="262" y="407"/>
      <point x="284" y="412"/>
      <point x="428" y="412" type="curve" smooth="yes"/>
      <point x="460" y="412"/>
      <point x="474" y="413"/>
      <point x="571" y="407" type="curve"/>
      <point x="571" y="582" type="line"/>
      <point x="487" y="589"/>
      <point x="442" y="590"/>
      <point x="401" y="590" type="curve" smooth="yes"/>
      <point x="151" y="590"/>
      <point x="32" y="494"/>
      <point x="32" y="288" type="curve" smooth="yes"/>
      <point x="32" y="80"/>
      <point x="156" y="-14"/>
    </contour>
    <contour>
      <point x="408" y="631" type="line"/>
      <point x="530" y="802" type="line"/>
      <point x="307" y="802" type="line"/>
      <point x="252" y="640" type="line"/>
    </contour>
  </outline>
</glyph>
<glyph name="Ccedilla.sc" format="1">
  <advance width="610"/>
  <outline>
    <contour>
      <point x="355" y="-172" type="curve" smooth="yes"/>
      <point x="432" y="-172"/>
      <point x="484" y="-140"/>
      <point x="484" y="-84" type="curve" smooth="yes"/>
      <point x="484" y="-61"/>
      <point x="477" y="-41"/>
      <point x="453" y="-14" type="curve"/>
      <point x="491" y="-13"/>
      <point x="530" y="-10"/>
      <point x="572" y="-5" type="curve"/>
      <point x="572" y="172" type="line"/>
      <point x="543" y="169"/>
      <point x="466" y="166"/>
      <point x="427" y="166" type="curve" smooth="yes"/>
      <point x="287" y="166"/>
      <point x="263" y="174"/>
      <point x="263" y="288" type="curve" smooth="yes"/>
      <point x="263" y="407"/>
      <point x="285" y="412"/>
      <point x="429" y="412" type="curve" smooth="yes"/>
      <point x="461" y="412"/>
      <point x="475" y="413"/>
      <point x="572" y="407" type="curve"/>
      <point x="572" y="582" type="line"/>
      <point x="488" y="589"/>
      <point x="443" y="590"/>
      <point x="402" y="590" type="curve" smooth="yes"/>
      <point x="152" y="590"/>
      <point x="33" y="494"/>
      <point x="33" y="288" type="curve" smooth="yes"/>
      <point x="33" y="109"/>
      <point x="125" y="14"/>
      <point x="322" y="-8" type="curve"/>
      <point x="340" y="-32"/>
      <point x="349" y="-50"/>
      <point x="349" y="-58" type="curve" smooth="yes"/>
      <point x="349" y="-53"/>
      <point x="346" y="-55"/>
      <point x="330" y="-55" type="curve" smooth="yes"/>
      <point x="304" y="-55"/>
      <point x="268" y="-49"/>
      <point x="242" y="-44" type="curve"/>
      <point x="242" y="-162" type="line"/>
      <point x="281" y="-165"/>
      <point x="322" y="-172"/>
    </contour>
  </outline>
</glyph>
<glyph name="Dcaron.sc" format="1">
  <advance width="791"/>
  <outline>
    <contour>
      <point x="350" y="-8" type="curve" smooth="yes"/>
      <point x="630" y="-8"/>
      <point x="759" y="85"/>
      <point x="759" y="287" type="curve" smooth="yes"/>
      <point x="759" y="490"/>
      <point x="629" y="585"/>
      <point x="348" y="585" type="curve" smooth="yes"/>
      <point x="277" y="585"/>
      <point x="187" y="582"/>
      <point x="63" y="575" type="curve"/>
      <point x="63" y="1" type="line"/>
      <point x="126" y="-4"/>
      <point x="249" y="-8"/>
    </contour>
    <contour>
      <point x="385" y="164" type="curve" smooth="yes"/>
      <point x="347" y="164"/>
      <point x="309" y="166"/>
      <point x="286" y="170" type="curve"/>
      <point x="286" y="409" type="line"/>
      <point x="333" y="411"/>
      <point x="355" y="412"/>
      <point x="381" y="412" type="curve" smooth="yes"/>
      <point x="496" y="412"/>
      <point x="531" y="383"/>
      <point x="531" y="287" type="curve" smooth="yes"/>
      <point x="531" y="188"/>
      <point x="502" y="164"/>
    </contour>
    <contour>
      <point x="398" y="618" type="line"/>
      <point x="621" y="684" type="line"/>
      <point x="621" y="822" type="line"/>
      <point x="401" y="755" type="line"/>
      <point x="182" y="822" type="line"/>
      <point x="182" y="684" type="line"/>
    </contour>
  </outline>
</glyph>
<glyph name="E.sc" format="1">
  <advance width="681"/>
  <outline>
    <contour>
      <point x="63" y="0" type="line"/>
      <point x="643" y="0" type="line"/>
      <point x="643" y="160" type="line"/>
      <point x="286" y="160" type="line"/>
      <point x="286" y="222" type="line"/>
      <point x="596" y="222" type="line"/>
      <point x="596" y="356" type="line"/>
      <point x="286" y="356" type="line"/>
      <point x="286" y="418" type="line"/>
      <point x="634" y="418" type="line"/>
      <point x="634" y="577" type="line"/>
      <point x="63" y="577" type="line"/>
    </contour>
    <contour>
      <point x="462" y="0" type="move" name="ogonek"/>
    </contour>
    <contour>
      <point x="271" y="760" type="move" name="topUC"/>
    </contour>
    <contour>
      <point x="291" y="0" type="move" name="bottom"/>
    </contour>
  </outline>
</glyph>
<glyph name="Ecaron.sc" format="1">
  <advance width="681"/>
  <outline>
    <contour>
      <point x="63" y="0" type="line"/>
      <point x="643" y="0" type="line"/>
      <point x="643" y="160" type="line"/>
      <point x="286" y="160" type="line"/>
      <point x="286" y="222" type="line"/>
      <point x="596" y="222" type="line"/>
      <point x="596" y="356" type="line"/>
      <point x="286" y="356" type="line"/>
      <point x="286" y="418" type="line"/>
      <point x="634" y="418" type="line"/>
      <point x="634" y="577" type="line"/>
      <point x="63" y="577" type="line"/>
    </contour>
    <contour>
      <point x="342" y="618" type="line"/>
      <point x="564" y="684" type="line"/>
      <point x="564" y="822" type="line"/>
      <point x="345" y="755" type="line"/>
      <point x="126" y="822" type="line"/>
      <point x="126" y="684" type="line"/>
    </contour>
  </outline>
</glyph>
<glyph name="Edotaccent.sc" format="1">
  <advance width="681"/>
  <outline>
    <contour>
      <point x="337" y="613" type="curve" smooth="yes"/>
      <point x="422" y="613"/>
      <point x="451" y="649"/>
      <point x="451" y="722" type="curve" smooth="yes"/>
      <point x="451" y="794"/>
      <point x="422" y="831"/>
      <point x="337" y="831" type="curve" smooth="yes"/>
      <point x="254" y="831"/>
      <point x="222" y="797"/>
      <point x="222" y="722" type="curve" smooth="yes"/>
      <point x="222" y="645"/>
      <point x="254" y="613"/>
    </contour>
    <contour>
      <point x="63" y="0" type="line"/>
      <point x="643" y="0" type="line"/>
      <point x="643" y="160" type="line"/>
      <point x="286" y="160" type="line"/>
      <point x="286" y="222" type="line"/>
      <point x="596" y="222" type="line"/>
      <point x="596" y="356" type="line"/>
      <point x="286" y="356" type="line"/>
      <point x="286" y="418" type="line"/>
      <point x="634" y="418" type="line"/>
      <point x="634" y="577" type="line"/>
      <point x="63" y="577" type="line"/>
    </contour>
  </outline>
</glyph>
<glyph name="Edotbelow.sc" format="1">
  <advance width="681"/>
  <outline>
    <contour>
      <point x="366" y="-181" type="curve" smooth="yes"/>
      <point x="431" y="-181"/>
      <point x="451" y="-154"/>
      <point x="451" y="-103" type="curve" smooth="yes"/>
      <point x="451" y="-52"/>
      <point x="431" y="-24"/>
      <point x="366" y="-24" type="curve" smooth="yes"/>
      <point x="304" y="-24"/>
      <point x="281" y="-48"/>
      <point x="281" y="-103" type="curve" smooth="yes"/>
      <point x="281" y="-157"/>
      <point x="304" y="-181"/>
    </contour>
    <contour>
      <point x="63" y="0" type="line"/>
      <point x="643" y="0" type="line"/>
      <point x="643" y="160" type="line"/>
      <point x="286" y="160" type="line"/>
      <point x="286" y="222" type="line"/>
      <point x="596" y="222" type="line"/>
      <point x="596" y="356" type="line"/>
      <point x="286" y="356" type="line"/>
      <point x="286" y="418" type="line"/>
      <point x="634" y="418" type="line"/>
      <point x="634" y="577" type="line"/>
      <point x="63" y="577" type="line"/>
    </contour>
  </outline>
</glyph>
<glyph name="Eogonek.sc" format="1">
  <advance width="681"/>
  <outline>
    <contour>
      <point x="556" y="-172" type="curve" smooth="yes"/>
      <point x="583" y="-172"/>
      <point x="615" y="-170"/>
      <point x="645" y="-162" type="curve"/>
      <point x="645" y="-51" type="line"/>
      <point x="621" y="-56"/>
      <point x="566" y="-61"/>
      <point x="547" y="-61" type="curve" smooth="yes"/>
      <point x="534" y="-61"/>
      <point x="528" y="-60"/>
      <point x="528" y="-54" type="curve" smooth="yes"/>
      <point x="528" y="-47"/>
      <point x="533" y="-37"/>
      <point x="643" y="0" type="curve"/>
      <point x="643" y="160" type="line"/>
      <point x="286" y="160" type="line"/>
      <point x="286" y="222" type="line"/>
      <point x="596" y="222" type="line"/>
      <point x="596" y="356" type="line"/>
      <point x="286" y="356" type="line"/>
      <point x="286" y="418" type="line"/>
      <point x="634" y="418" type="line"/>
      <point x="634" y="577" type="line"/>
      <point x="63" y="577" type="line"/>
      <point x="63" y="0" type="line"/>
      <point x="458" y="0" type="line"/>
      <point x="425" y="-11"/>
      <point x="391" y="-50"/>
      <point x="391" y="-91" type="curve" smooth="yes"/>
      <point x="391" y="-141"/>
      <point x="444" y="-172"/>
    </contour>
  </outline>
</glyph>
<glyph name="Eth.sc" format="1">
  <advance width="819"/>
  <outline>
    <contour>
      <point x="12" y="217" type="line"/>
      <point x="91" y="217" type="line"/>
      <point x="91" y="1" type="line"/>
      <point x="138" y="-4"/>
      <point x="234" y="-8"/>
      <point x="319" y="-8" type="curve" smooth="yes"/>
      <point x="656" y="-8"/>
      <point x="787" y="72"/>
      <point x="787" y="287" type="curve" smooth="yes"/>
      <point x="787" y="493"/>
      <point x="660" y="585"/>
      <point x="376" y="585" type="curve" smooth="yes"/>
      <point x="310" y="585"/>
      <point x="224" y="582"/>
      <point x="91" y="575" type="curve"/>
      <point x="91" y="365" type="line"/>
      <point x="12" y="365" type="line"/>
    </contour>
    <contour>
      <point x="413" y="164" type="curve" smooth="yes"/>
      <point x="379" y="164"/>
      <point x="338" y="167"/>
      <point x="314" y="170" type="curve"/>
      <point x="314" y="217" type="line"/>
      <point x="398" y="217" type="line"/>
      <point x="398" y="365" type="line"/>
      <point x="314" y="365" type="line"/>
      <point x="314" y="409" type="line"/>
      <point x="364" y="412"/>
      <point x="388" y="412"/>
      <point x="409" y="412" type="curve" smooth="yes"/>
      <point x="523" y="412"/>
      <point x="560" y="384"/>
      <point x="560" y="287" type="curve" smooth="yes"/>
      <point x="560" y="186"/>
      <point x="528" y="164"/>
    </contour>
  </outline>
</glyph>
<glyph name="F.sc" format="1">
  <advance width="662"/>
  <outline>
    <contour>
      <point x="63" y="0" type="line"/>
      <point x="286" y="0" type="line"/>
      <point x="286" y="185" type="line"/>
      <point x="598" y="185" type="line"/>
      <point x="598" y="330" type="line"/>
      <point x="286" y="330" type="line"/>
      <point x="286" y="413" type="line"/>
      <point x="634" y="413" type="line"/>
      <point x="634" y="577" type="line"/>
      <point x="63" y="577" type="line"/>
    </contour>
  </outline>
</glyph>
<glyph name="G.sc" format="1">
  <advance width="718"/>
  <outline>
    <contour>
      <point x="425" y="-14" type="curve" smooth="yes"/>
      <point x="490" y="-14"/>
      <point x="596" y="3"/>
      <point x="672" y="26" type="curve"/>
      <point x="672" y="293" type="line"/>
      <point x="466" y="293" type="line"/>
      <point x="466" y="166" type="line"/>
      <point x="426" y="166" type="line" smooth="yes"/>
      <point x="280" y="166"/>
      <point x="262" y="179"/>
      <point x="262" y="288" type="curve" smooth="yes"/>
      <point x="262" y="401"/>
      <point x="278" y="412"/>
      <point x="450" y="412" type="curve" smooth="yes"/>
      <point x="495" y="412"/>
      <point x="571" y="408"/>
      <point x="662" y="402" type="curve"/>
      <point x="662" y="572" type="line"/>
      <point x="608" y="582"/>
      <point x="508" y="590"/>
      <point x="433" y="590" type="curve" smooth="yes"/>
      <point x="161" y="590"/>
      <point x="32" y="493"/>
      <point x="32" y="288" type="curve" smooth="yes"/>
      <point x="32" y="80"/>
      <point x="155" y="-14"/>
    </contour>
    <contour>
      <point x="351" y="760" type="move" name="topUC"/>
    </contour>
    <contour>
      <point x="351" y="0" type="move" name="bottom"/>
    </contour>
  </outline>
</glyph>
<glyph name="Gdotaccent.sc" format="1">
  <advance width="718"/>
  <outline>
    <contour>
      <point x="425" y="-14" type="curve" smooth="yes"/>
      <point x="493" y="-14"/>
      <point x="599" y="4"/>
      <point x="672" y="26" type="curve"/>
      <point x="672" y="293" type="line"/>
      <point x="466" y="293" type="line"/>
      <point x="466" y="166" type="line"/>
      <point x="426" y="166" type="line" smooth="yes"/>
      <point x="287" y="166"/>
      <point x="262" y="174"/>
      <point x="262" y="288" type="curve" smooth="yes"/>
      <point x="262" y="407"/>
      <point x="287" y="412"/>
      <point x="450" y="412" type="curve" smooth="yes"/>
      <point x="495" y="412"/>
      <point x="572" y="406"/>
      <point x="662" y="397" type="curve"/>
      <point x="662" y="572" type="line"/>
      <point x="610" y="582"/>
      <point x="510" y="590"/>
      <point x="433" y="590" type="curve" smooth="yes"/>
      <point x="162" y="590"/>
      <point x="32" y="494"/>
      <point x="32" y="288" type="curve" smooth="yes"/>
      <point x="32" y="79"/>
      <point x="156" y="-14"/>
    </contour>
    <contour>
      <point x="393" y="613" type="curve" smooth="yes"/>
      <point x="479" y="613"/>
      <point x="507" y="649"/>
      <point x="507" y="722" type="curve" smooth="yes"/>
      <point x="507" y="794"/>
      <point x="479" y="831"/>
      <point x="393" y="831" type="curve" smooth="yes"/>
      <point x="310" y="831"/>
      <point x="278" y="797"/>
      <point x="278" y="722" type="curve" smooth="yes"/>
      <point x="278" y="645"/>
      <point x="310" y="613"/>
    </contour>
  </outline>
</glyph>
<glyph name="Hbar.sc" format="1">
  <advance width="849"/>
  <outline>
    <contour>
      <point x="13" y="413" type="line"/>
      <point x="69" y="413" type="line"/>
      <point x="69" y="0" type="line"/>
      <point x="292" y="0" type="line"/>
      <point x="292" y="194" type="line"/>
      <point x="557" y="194" type="line"/>
      <point x="557" y="0" type="line"/>
      <point x="780" y="0" type="line"/>
      <point x="780" y="413" type="line"/>
      <point x="838" y="413" type="line"/>
      <point x="838" y="508" type="line"/>
      <point x="780" y="508" type="line"/>
      <point x="780" y="577" type="line"/>
      <point x="557" y="577" type="line"/>
      <point x="557" y="508" type="line"/>
      <point x="292" y="508" type="line"/>
      <point x="292" y="577" type="line"/>
      <point x="69" y="577" type="line"/>
      <point x="69" y="508" type="line"/>
      <point x="13" y="508" type="line"/>
    </contour>
    <contour>
      <point x="292" y="359" type="line"/>
      <point x="292" y="413" type="line"/>
      <point x="557" y="413" type="line"/>
      <point x="557" y="359" type="line"/>
    </contour>
  </outline>
</glyph>
<glyph name="Hcircumflex.sc" format="1">
  <advance width="837"/>
  <outline>
    <contour>
      <point x="63" y="0" type="line"/>
      <point x="286" y="0" type="line"/>
      <point x="286" y="214" type="line"/>
      <point x="551" y="214" type="line"/>
      <point x="551" y="0" type="line"/>
      <point x="774" y="0" type="line"/>
      <point x="774" y="577" type="line"/>
      <point x="551" y="577" type="line"/>
      <point x="551" y="379" type="line"/>
      <point x="286" y="379" type="line"/>
      <point x="286" y="577" type="line"/>
      <point x="63" y="577" type="line"/>
    </contour>
    <contour>
      <point x="202" y="618" type="line"/>
      <point x="421" y="684" type="line"/>
      <point x="640" y="618" type="line"/>
      <point x="640" y="755" type="line"/>
      <point x="418" y="822" type="line"/>
      <point x="202" y="755" type="line"/>
    </contour>
  </outline>
</glyph>
<glyph name="Hdotbelow.sc" format="1">
  <advance width="837"/>
  <outline>
    <contour>
      <point x="63" y="0" type="line"/>
      <point x="286" y="0" type="line"/>
      <point x="286" y="214" type="line"/>
      <point x="551" y="214" type="line"/>
      <point x="551" y="0" type="line"/>
      <point x="774" y="0" type="line"/>
      <point x="774" y="577" type="line"/>
      <point x="551" y="577" type="line"/>
      <point x="551" y="379" type="line"/>
      <point x="286" y="379" type="line"/>
      <point x="286" y="577" type="line"/>
      <point x="63" y="577" type="line"/>
    </contour>
    <contour>
      <point x="414" y="-181" type="curve" smooth="yes"/>
      <point x="479" y="-181"/>
      <point x="499" y="-154"/>
      <point x="499" y="-103" type="curve" smooth="yes"/>
      <point x="499" y="-52"/>
      <point x="479" y="-24"/>
      <point x="414" y="-24" type="curve" smooth="yes"/>
      <point x="352" y="-24"/>
      <point x="329" y="-48"/>
      <point x="329" y="-103" type="curve" smooth="yes"/>
      <point x="329" y="-157"/>
      <point x="352" y="-181"/>
    </contour>
  </outline>
</glyph>
<glyph name="I.sc" format="1">
  <advance width="349"/>
  <outline>
    <contour>
      <point x="63" y="0" type="line"/>
      <point x="286" y="0" type="line"/>
      <point x="286" y="577" type="line"/>
      <point x="63" y="577" type="line"/>
    </contour>
    <contour>
      <point x="129" y="0" type="move" name="ogonek"/>
    </contour>
    <contour>
      <point x="115" y="760" type="move" name="topUC"/>
    </contour>
    <contour>
      <point x="115" y="0" type="move" name="bottom"/>
    </contour>
  </outline>
</glyph>
<glyph name="Iacute.sc" format="1">
  <advance width="349"/>
  <outline>
    <contour>
      <point x="63" y="0" type="line"/>
      <point x="286" y="0" type="line"/>
      <point x="286" y="577" type="line"/>
      <point x="63" y="577" type="line"/>
    </contour>
    <contour>
      <point x="249" y="631" type="line"/>
      <point x="371" y="802" type="line"/>
      <point x="148" y="802" type="line"/>
      <point x="93" y="640" type="line"/>
    </contour>
  </outline>
</glyph>
<glyph name="Icircumflex.sc" format="1">
  <advance width="349"/>
  <outline>
    <contour>
      <point x="63" y="0" type="line"/>
      <point x="286" y="0" type="line"/>
      <point x="286" y="577" type="line"/>
      <point x="63" y="577" type="line"/>
    </contour>
    <contour>
      <point x="-41" y="618" type="line"/>
      <point x="178" y="684" type="line"/>
      <point x="397" y="618" type="line"/>
      <point x="397" y="755" type="line"/>
      <point x="175" y="822" type="line"/>
      <point x="-41" y="755" type="line"/>
    </contour>
  </outline>
</glyph>
<glyph name="Igrave.sc" format="1">
  <advance width="349"/>
  <outline>
    <contour>
      <point x="63" y="0" type="line"/>
      <point x="286" y="0" type="line"/>
      <point x="286" y="577" type="line"/>
      <point x="63" y="577" type="line"/>
    </contour>
    <contour>
      <point x="274" y="638" type="line"/>
      <point x="220" y="802" type="line"/>
      <point x="-4" y="802" type="line"/>
      <point x="119" y="631" type="line"/>
    </contour>
  </outline>
</glyph>
<glyph name="Itilde.sc" format="1">
  <advance width="349"/>
  <outline>
    <contour>
      <point x="63" y="0" type="line"/>
      <point x="286" y="0" type="line"/>
      <point x="286" y="577" type="line"/>
      <point x="63" y="577" type="line"/>
    </contour>
    <contour>
      <point x="-55" y="639" type="line"/>
      <point x="-17" y="663"/>
      <point x="9" y="667"/>
      <point x="40" y="667" type="curve" smooth="yes"/>
      <point x="113" y="667"/>
      <point x="184" y="640"/>
      <point x="257" y="640" type="curve" smooth="yes"/>
      <point x="310" y="640"/>
      <point x="379" y="685"/>
      <point x="429" y="777" type="curve"/>
      <point x="408" y="810" type="line"/>
      <point x="366" y="786"/>
      <point x="341" y="783"/>
      <point x="312" y="783" type="curve" smooth="yes"/>
      <point x="239" y="783"/>
      <point x="168" y="809"/>
      <point x="96" y="809" type="curve" smooth="yes"/>
      <point x="39" y="809"/>
      <point x="-30" y="763"/>
      <point x="-77" y="672" type="curve"/>
    </contour>
  </outline>
</glyph>
<glyph name="K.sc" format="1">
  <advance width="756"/>
  <outline>
    <contour>
      <point x="63" y="0" type="line"/>
      <point x="286" y="0" type="line"/>
      <point x="286" y="204" type="line"/>
      <point x="382" y="204" type="line"/>
      <point x="517" y="0" type="line"/>
      <point x="765" y="0" type="line"/>
      <point x="569" y="280" type="line"/>
      <point x="512" y="303" type="line"/>
      <point x="512" y="311" type="line"/>
      <point x="566" y="332" type="line"/>
      <point x="750" y="577" type="line"/>
      <point x="502" y="577" type="line"/>
      <point x="361" y="369" type="line"/>
      <point x="286" y="369" type="line"/>
      <point x="286" y="577" type="line"/>
      <point x="63" y="577" type="line"/>
    </contour>
    <contour>
      <point x="280" y="0" type="move" name="bottom"/>
    </contour>
  </outline>
</glyph>
<glyph name="L.sc" format="1">
  <advance width="605"/>
  <outline>
    <contour>
      <point x="63" y="0" type="line"/>
      <point x="588" y="0" type="line"/>
      <point x="588" y="164" type="line"/>
      <point x="286" y="164" type="line"/>
      <point x="286" y="577" type="line"/>
      <point x="63" y="577" type="line"/>
    </contour>
    <contour>
      <point x="128" y="760" type="move" name="topUC"/>
    </contour>
    <contour>
      <point x="298" y="370" type="move" name="periodcentered"/>
    </contour>
    <contour>
      <point x="346" y="740" type="move" name="caronalt"/>
    </contour>
    <contour>
      <point x="242" y="0" type="move" name="bottom"/>
    </contour>
  </outline>
</glyph>
<glyph name="M.sc" format="1">
  <advance width="1005"/>
  <outline>
    <contour>
      <point x="63" y="0" type="line"/>
      <point x="259" y="0" type="line"/>
      <point x="259" y="352" type="line"/>
      <point x="268" y="352" type="line"/>
      <point x="342" y="172" type="line"/>
      <point x="419" y="20" type="line"/>
      <point x="586" y="20" type="line"/>
      <point x="663" y="172" type="line"/>
      <point x="737" y="352" type="line"/>
      <point x="746" y="352" type="line"/>
      <point x="746" y="0" type="line"/>
      <point x="942" y="0" type="line"/>
      <point x="942" y="577" type="line"/>
      <point x="658" y="577" type="line"/>
      <point x="555" y="385" type="line"/>
      <point x="507" y="269" type="line"/>
      <point x="498" y="269" type="line"/>
      <point x="449" y="385" type="line"/>
      <point x="347" y="577" type="line"/>
      <point x="63" y="577" type="line"/>
    </contour>
  </outline>
</glyph>
<glyph name="Nacute.sc" format="1">
  <advance width="790"/>
  <outline>
    <contour>
      <point x="63" y="0" type="line"/>
      <point x="259" y="0" type="line"/>
      <point x="259" y="282" type="line"/>
      <point x="268" y="282" type="line"/>
      <point x="345" y="199" type="line"/>
      <point x="560" y="0" type="line"/>
      <point x="727" y="0" type="line"/>
      <point x="727" y="577" type="line"/>
      <point x="531" y="577" type="line"/>
      <point x="531" y="295" type="line"/>
      <point x="522" y="295" type="line"/>
      <point x="459" y="360" type="line"/>
      <point x="230" y="577" type="line"/>
      <point x="63" y="577" type="line"/>
    </contour>
    <contour>
      <point x="442" y="631" type="line"/>
      <point x="564" y="802" type="line"/>
      <point x="341" y="802" type="line"/>
      <point x="286" y="640" type="line"/>
    </contour>
  </outline>
</glyph>
<glyph name="Ncommaaccent.sc" format="1">
  <advance width="790"/>
  <outline>
    <contour>
      <point x="63" y="0" type="line"/>
      <point x="259" y="0" type="line"/>
      <point x="259" y="282" type="line"/>
      <point x="268" y="282" type="line"/>
      <point x="345" y="199" type="line"/>
      <point x="560" y="0" type="line"/>
      <point x="727" y="0" type="line"/>
      <point x="727" y="577" type="line"/>
      <point x="531" y="577" type="line"/>
      <point x="531" y="295" type="line"/>
      <point x="522" y="295" type="line"/>
      <point x="459" y="360" type="line"/>
      <point x="230" y="577" type="line"/>
      <point x="63" y="577" type="line"/>
    </contour>
    <contour>
      <point x="253" y="-172" type="line"/>
      <point x="415" y="-172" type="line"/>
      <point x="512" y="-55" type="line"/>
      <point x="288" y="-55" type="line"/>
    </contour>
  </outline>
</glyph>
<glyph name="Ocircumflex.sc" format="1">
  <advance width="802"/>
  <outline>
    <contour>
      <point x="402" y="-8" type="curve" smooth="yes"/>
      <point x="639" y="-8"/>
      <point x="771" y="98"/>
      <point x="771" y="288" type="curve" smooth="yes"/>
      <point x="771" y="479"/>
      <point x="640" y="585"/>
      <point x="402" y="585" type="curve" smooth="yes"/>
      <point x="161" y="585"/>
      <point x="32" y="481"/>
      <point x="32" y="288" type="curve" smooth="yes"/>
      <point x="32" y="96"/>
      <point x="163" y="-8"/>
    </contour>
    <contour>
      <point x="402" y="165" type="curve" smooth="yes"/>
      <point x="278" y="165"/>
      <point x="260" y="180"/>
      <point x="260" y="288" type="curve" smooth="yes"/>
      <point x="260" y="393"/>
      <point x="282" y="412"/>
      <point x="402" y="412" type="curve" smooth="yes"/>
      <point x="520" y="412"/>
      <point x="544" y="391"/>
      <point x="544" y="288" type="curve" smooth="yes"/>
      <point x="544" y="179"/>
      <point x="528" y="165"/>
    </contour>
    <contour>
      <point x="180" y="618" type="line"/>
      <point x="399" y="684" type="line"/>
      <point x="618" y="618" type="line"/>
      <point x="618" y="755" type="line"/>
      <point x="396" y="822" type="line"/>
      <point x="180" y="755" type="line"/>
    </contour>
  </outline>
</glyph>
<glyph name="Odblgrave.sc" format="1">
  <advance width="802"/>
  <outline>
    <contour>
      <point x="402" y="-8" type="curve" smooth="yes"/>
      <point x="639" y="-8"/>
      <point x="771" y="98"/>
      <point x="771" y="288" type="curve" smooth="yes"/>
      <point x="771" y="479"/>
      <point x="640" y="585"/>
      <point x="402" y="585" type="curve" smooth="yes"/>
      <point x="161" y="585"/>
      <point x="32" y="481"/>
      <point x="32" y="288" type="curve" smooth="yes"/>
      <point x="32" y="96"/>
      <point x="163" y="-8"/>
    </contour>
    <contour>
      <point x="402" y="165" type="curve" smooth="yes"/>
      <point x="278" y="165"/>
      <point x="260" y="180"/>
      <point x="260" y="288" type="curve" smooth="yes"/>
      <point x="260" y="393"/>
      <point x="282" y="412"/>
      <point x="402" y="412" type="curve" smooth="yes"/>
      <point x="520" y="412"/>
      <point x="544" y="391"/>
      <point x="544" y="288" type="curve" smooth="yes"/>
      <point x="544" y="179"/>
      <point x="528" y="165"/>
    </contour>
    <contour>
      <point x="351" y="640" type="line"/>
      <point x="297" y="804" type="line"/>
      <point x="76" y="804" type="line"/>
      <point x="198" y="633" type="line"/>
    </contour>
    <contour>
      <point x="588" y="640" type="line"/>
      <point x="533" y="804" type="line"/>
      <point x="312" y="804" type="line"/>
      <point x="434" y="633" type="line"/>
    </contour>
  </outline>
</glyph>
<glyph name="Ograve.sc" format="1">
  <advance width="801"/>
  <outline>
    <contour>
      <point x="401" y="-8" type="curve" smooth="yes"/>
      <point x="639" y="-8"/>
      <point x="770" y="98"/>
      <point x="770" y="288" type="curve" smooth="yes"/>
      <point x="770" y="479"/>
      <point x="639" y="585"/>
      <point x="401" y="585" type="curve" smooth="yes"/>
      <point x="160" y="585"/>
      <point x="31" y="481"/>
      <point x="31" y="288" type="curve" smooth="yes"/>
      <point x="31" y="97"/>
      <point x="161" y="-8"/>
    </contour>
    <contour>
      <point x="401" y="165" type="curve" smooth="yes"/>
      <point x="286" y="165"/>
      <point x="259" y="172"/>
      <point x="259" y="288" type="curve" smooth="yes"/>
      <point x="259" y="401"/>
      <point x="290" y="412"/>
      <point x="401" y="412" type="curve" smooth="yes"/>
      <point x="511" y="412"/>
      <point x="543" y="398"/>
      <point x="543" y="288" type="curve" smooth="yes"/>
      <point x="543" y="171"/>
      <point x="517" y="165"/>
    </contour>
    <contour>
      <point x="460" y="638" type="line"/>
      <point x="406" y="802" type="line"/>
      <point x="182" y="802" type="line"/>
      <point x="305" y="631" type="line"/>
    </contour>
  </outline>
</glyph>
<glyph name="Oogonek.sc" format="1">
  <advance width="802"/>
  <outline>
    <contour>
      <point x="420" y="-171" type="curve" smooth="yes"/>
      <point x="448" y="-171"/>
      <point x="479" y="-169"/>
      <point x="509" y="-162" type="curve"/>
      <point x="509" y="-50" type="line"/>
      <point x="485" y="-56"/>
      <point x="431" y="-61"/>
      <point x="411" y="-61" type="curve" smooth="yes"/>
      <point x="398" y="-61"/>
      <point x="393" y="-60"/>
      <point x="393" y="-52" type="curve" smooth="yes"/>
      <point x="393" y="-46"/>
      <point x="397" y="-37"/>
      <point x="506" y="0" type="curve"/>
      <point x="678" y="27"/>
      <point x="771" y="128"/>
      <point x="771" y="288" type="curve" smooth="yes"/>
      <point x="771" y="479"/>
      <point x="640" y="585"/>
      <point x="402" y="585" type="curve" smooth="yes"/>
      <point x="161" y="585"/>
      <point x="32" y="481"/>
      <point x="32" y="288" type="curve" smooth="yes"/>
      <point x="32" y="121"/>
      <point x="131" y="20"/>
      <point x="315" y="-3" type="curve"/>
      <point x="285" y="-18"/>
      <point x="255" y="-61"/>
      <point x="255" y="-91" type="curve" smooth="yes"/>
      <point x="255" y="-137"/>
      <point x="317" y="-171"/>
    </contour>
    <contour>
      <point x="402" y="165" type="curve" smooth="yes"/>
      <point x="287" y="165"/>
      <point x="260" y="172"/>
      <point x="260" y="288" type="curve" smooth="yes"/>
      <point x="260" y="401"/>
      <point x="291" y="412"/>
      <point x="402" y="412" type="curve" smooth="yes"/>
      <point x="512" y="412"/>
      <point x="544" y="398"/>
      <point x="544" y="288" type="curve" smooth="yes"/>
      <point x="544" y="171"/>
      <point x="518" y="165"/>
    </contour>
  </outline>
</glyph>
<glyph name="Oslashacute.sc" format="1">
  <advance width="804"/>
  <outline>
    <contour>
      <point x="6" y="0" type="line"/>
      <point x="158" y="0" type="line"/>
      <point x="191" y="30" type="line"/>
      <point x="247" y="5"/>
      <point x="318" y="-8"/>
      <point x="402" y="-8" type="curve" smooth="yes"/>
      <point x="641" y="-8"/>
      <point x="772" y="98"/>
      <point x="772" y="288" type="curve" smooth="yes"/>
      <point x="772" y="371"/>
      <point x="747" y="439"/>
      <point x="699" y="488" type="curve"/>
      <point x="798" y="577" type="line"/>
      <point x="647" y="577" type="line"/>
      <point x="613" y="546" type="line"/>
      <point x="557" y="572"/>
      <point x="486" y="585"/>
      <point x="402" y="585" type="curve" smooth="yes"/>
      <point x="162" y="585"/>
      <point x="32" y="481"/>
      <point x="32" y="288" type="curve" smooth="yes"/>
      <point x="32" y="205"/>
      <point x="57" y="138"/>
      <point x="104" y="89" type="curve"/>
    </contour>
    <contour>
      <point x="402" y="165" type="curve" smooth="yes"/>
      <point x="379" y="165"/>
      <point x="359" y="165"/>
      <point x="343" y="166" type="curve"/>
      <point x="540" y="344" type="line"/>
      <point x="543" y="329"/>
      <point x="544" y="310"/>
      <point x="544" y="288" type="curve" smooth="yes"/>
      <point x="544" y="171"/>
      <point x="518" y="165"/>
    </contour>
    <contour>
      <point x="471" y="631" type="line"/>
      <point x="592" y="802" type="line"/>
      <point x="369" y="802" type="line"/>
      <point x="314" y="640" type="line"/>
    </contour>
    <contour>
      <point x="260" y="288" type="curve" smooth="yes"/>
      <point x="260" y="401"/>
      <point x="291" y="412"/>
      <point x="402" y="412" type="curve" smooth="yes"/>
      <point x="425" y="412"/>
      <point x="444" y="411"/>
      <point x="461" y="409" type="curve"/>
      <point x="263" y="232" type="line"/>
      <point x="261" y="247"/>
      <point x="260" y="265"/>
    </contour>
  </outline>
</glyph>
<glyph name="Q.sc" format="1">
  <advance width="804"/>
  <outline>
    <contour>
      <point x="722" y="-172" type="curve"/>
      <point x="742" y="5" type="line"/>
      <point x="680" y="12"/>
      <point x="680" y="15"/>
      <point x="476" y="43" type="curve"/>
      <point x="476" y="53" type="line"/>
      <point x="687" y="53"/>
      <point x="775" y="122"/>
      <point x="775" y="288" type="curve" smooth="yes"/>
      <point x="775" y="472"/>
      <point x="634" y="585"/>
      <point x="403" y="585" type="curve" smooth="yes"/>
      <point x="173" y="585"/>
      <point x="31" y="471"/>
      <point x="31" y="288" type="curve" smooth="yes"/>
      <point x="31" y="61"/>
      <point x="195" y="-48"/>
    </contour>
    <contour>
      <point x="403" y="166" type="curve" smooth="yes"/>
      <point x="290" y="166"/>
      <point x="259" y="192"/>
      <point x="259" y="288" type="curve" smooth="yes"/>
      <point x="259" y="382"/>
      <point x="294" y="412"/>
      <point x="403" y="412" type="curve" smooth="yes"/>
      <point x="514" y="412"/>
      <point x="546" y="384"/>
      <point x="546" y="288" type="curve" smooth="yes"/>
      <point x="546" y="189"/>
      <point x="519" y="166"/>
    </contour>
  </outline>
</glyph>
<glyph name="Rcommaaccent.sc" format="1">
  <advance width="745"/>
  <outline>
    <contour>
      <point x="487" y="0" type="line"/>
      <point x="743" y="0" type="line"/>
      <point x="581" y="202" type="line"/>
      <point x="663" y="238"/>
      <point x="704" y="295"/>
      <point x="704" y="373" type="curve" smooth="yes"/>
      <point x="704" y="522"/>
      <point x="585" y="585"/>
      <point x="305" y="585" type="curve" smooth="yes"/>
      <point x="234" y="585"/>
      <point x="155" y="581"/>
      <point x="63" y="573" type="curve"/>
      <point x="63" y="0" type="line"/>
      <point x="286" y="0" type="line"/>
      <point x="286" y="165" type="line"/>
      <point x="301" y="164"/>
      <point x="318" y="163"/>
      <point x="331" y="163" type="curve" smooth="yes"/>
      <point x="347" y="163"/>
      <point x="364" y="164"/>
      <point x="381" y="165" type="curve"/>
    </contour>
    <contour>
      <point x="226" y="-172" type="line"/>
      <point x="388" y="-172" type="line"/>
      <point x="485" y="-55" type="line"/>
      <point x="261" y="-55" type="line"/>
    </contour>
    <contour>
      <point x="348" y="311" type="curve" smooth="yes"/>
      <point x="334" y="311"/>
      <point x="293" y="313"/>
      <point x="286" y="314" type="curve"/>
      <point x="286" y="425" type="line"/>
      <point x="304" y="426"/>
      <point x="342" y="428"/>
      <point x="361" y="428" type="curve" smooth="yes"/>
      <point x="454" y="428"/>
      <point x="482" y="414"/>
      <point x="482" y="368" type="curve" smooth="yes"/>
      <point x="482" y="323"/>
      <point x="455" y="311"/>
    </contour>
  </outline>
</glyph>
<glyph name="Schwa.sc" format="1">
  <advance width="719"/>
  <outline>
    <contour>
      <point x="32" y="241" type="curve" smooth="yes"/>
      <point x="32" y="77"/>
      <point x="133" y="-9"/>
      <point x="326" y="-9" type="curve" smooth="yes"/>
      <point x="565" y="-9"/>
      <point x="687" y="93"/>
      <point x="687" y="292" type="curve" smooth="yes"/>
      <point x="687" y="491"/>
      <point x="571" y="588"/>
      <point x="331" y="588" type="curve" smooth="yes"/>
      <point x="236" y="588"/>
      <point x="138" y="576"/>
      <point x="58" y="555" type="curve"/>
      <point x="63" y="391" type="line"/>
      <point x="112" y="402"/>
      <point x="226" y="412"/>
      <point x="309" y="412" type="curve" smooth="yes"/>
      <point x="410" y="412"/>
      <point x="434" y="401"/>
      <point x="442" y="349" type="curve"/>
      <point x="46" y="349" type="line"/>
      <point x="37" y="316"/>
      <point x="32" y="281"/>
    </contour>
    <contour>
      <point x="339" y="160" type="curve" smooth="yes"/>
      <point x="274" y="160"/>
      <point x="248" y="180"/>
      <point x="247" y="234" type="curve"/>
      <point x="444" y="234" type="line"/>
      <point x="437" y="178"/>
      <point x="412" y="160"/>
    </contour>
  </outline>
</glyph>
<glyph name="U.sc" format="1">
  <advance width="820"/>
  <outline>
    <contour>
      <point x="410" y="-8" type="curve" smooth="yes"/>
      <point x="663" y="-8"/>
      <point x="765" y="67"/>
      <point x="765" y="253" type="curve" smooth="yes"/>
      <point x="765" y="581" type="line"/>
      <point x="541" y="581" type="line"/>
      <point x="541" y="236" type="line" smooth="yes"/>
      <point x="541" y="188"/>
      <point x="486" y="165"/>
      <point x="410" y="165" type="curve" smooth="yes"/>
      <point x="334" y="165"/>
      <point x="278" y="188"/>
      <point x="278" y="236" type="curve" smooth="yes"/>
      <point x="278" y="581" type="line"/>
      <point x="55" y="581" type="line"/>
      <point x="55" y="253" type="line" smooth="yes"/>
      <point x="55" y="67"/>
      <point x="157" y="-8"/>
    </contour>
    <contour>
      <point x="324" y="-10" type="move" name="ogonek"/>
    </contour>
    <contour>
      <point x="324" y="760" type="move" name="topUC"/>
    </contour>
    <contour>
      <point x="325" y="0" type="move" name="bottom"/>
    </contour>
  </outline>
</glyph>
<glyph name="Ubreve.sc" format="1">
  <advance width="820"/>
  <outline>
    <contour>
      <point x="410" y="-8" type="curve" smooth="yes"/>
      <point x="682" y="-8"/>
      <point x="765" y="81"/>
      <point x="765" y="253" type="curve" smooth="yes"/>
      <point x="765" y="581" type="line"/>
      <point x="541" y="581" type="line"/>
      <point x="541" y="236" type="line" smooth="yes"/>
      <point x="541" y="204"/>
      <point x="503" y="165"/>
      <point x="410" y="165" type="curve" smooth="yes"/>
      <point x="317" y="165"/>
      <point x="278" y="204"/>
      <point x="278" y="236" type="curve" smooth="yes"/>
      <point x="278" y="581" type="line"/>
      <point x="55" y="581" type="line"/>
      <point x="55" y="253" type="line" smooth="yes"/>
      <point x="55" y="81"/>
      <point x="137" y="-8"/>
    </contour>
    <contour>
      <point x="409" y="633" type="curve" smooth="yes"/>
      <point x="597" y="633"/>
      <point x="648" y="706"/>
      <point x="648" y="797" type="curve"/>
      <point x="507" y="797" type="line"/>
      <point x="507" y="755"/>
      <point x="490" y="729"/>
      <point x="409" y="729" type="curve" smooth="yes"/>
      <point x="330" y="729"/>
      <point x="312" y="755"/>
      <point x="312" y="797" type="curve"/>
      <point x="171" y="797" type="line"/>
      <point x="171" y="710"/>
      <point x="221" y="633"/>
    </contour>
  </outline>
</glyph>
<glyph name="Ucircumflex.sc" format="1">
  <advance width="820"/>
  <outline>
    <contour>
      <point x="410" y="-8" type="curve" smooth="yes"/>
      <point x="682" y="-8"/>
      <point x="765" y="81"/>
      <point x="765" y="253" type="curve" smooth="yes"/>
      <point x="765" y="581" type="line"/>
      <point x="541" y="581" type="line"/>
      <point x="541" y="236" type="line" smooth="yes"/>
      <point x="541" y="204"/>
      <point x="503" y="165"/>
      <point x="410" y="165" type="curve" smooth="yes"/>
      <point x="317" y="165"/>
      <point x="278" y="204"/>
      <point x="278" y="236" type="curve" smooth="yes"/>
      <point x="278" y="581" type="line"/>
      <point x="55" y="581" type="line"/>
      <point x="55" y="253" type="line" smooth="yes"/>
      <point x="55" y="81"/>
      <point x="137" y="-8"/>
    </contour>
    <contour>
      <point x="187" y="618" type="line"/>
      <point x="406" y="684" type="line"/>
      <point x="626" y="618" type="line"/>
      <point x="626" y="755" type="line"/>
      <point x="403" y="822" type="line"/>
      <point x="187" y="755" type="line"/>
    </contour>
  </outline>
</glyph>
<glyph name="Udblgrave.sc" format="1">
  <advance width="820"/>
  <outline>
    <contour>
      <point x="410" y="-8" type="curve" smooth="yes"/>
      <point x="682" y="-8"/>
      <point x="765" y="81"/>
      <point x="765" y="253" type="curve" smooth="yes"/>
      <point x="765" y="581" type="line"/>
      <point x="541" y="581" type="line"/>
      <point x="541" y="236" type="line" smooth="yes"/>
      <point x="541" y="204"/>
      <point x="503" y="165"/>
      <point x="410" y="165" type="curve" smooth="yes"/>
      <point x="317" y="165"/>
      <point x="278" y="204"/>
      <point x="278" y="236" type="curve" smooth="yes"/>
      <point x="278" y="581" type="line"/>
      <point x="55" y="581" type="line"/>
      <point x="55" y="253" type="line" smooth="yes"/>
      <point x="55" y="81"/>
      <point x="137" y="-8"/>
    </contour>
    <contour>
      <point x="362" y="640" type="line"/>
      <point x="308" y="804" type="line"/>
      <point x="86" y="804" type="line"/>
      <point x="209" y="633" type="line"/>
    </contour>
    <contour>
      <point x="598" y="640" type="line"/>
      <point x="543" y="804" type="line"/>
      <point x="322" y="804" type="line"/>
      <point x="445" y="633" type="line"/>
    </contour>
  </outline>
</glyph>
<glyph name="Udotbelow.sc" format="1">
  <advance width="820"/>
  <outline>
    <contour>
      <point x="410" y="-8" type="curve" smooth="yes"/>
      <point x="682" y="-8"/>
      <point x="765" y="81"/>
      <point x="765" y="253" type="curve" smooth="yes"/>
      <point x="765" y="581" type="line"/>
      <point x="541" y="581" type="line"/>
      <point x="541" y="236" type="line" smooth="yes"/>
      <point x="541" y="204"/>
      <point x="503" y="165"/>
      <point x="410" y="165" type="curve" smooth="yes"/>
      <point x="317" y="165"/>
      <point x="278" y="204"/>
      <point x="278" y="236" type="curve" smooth="yes"/>
      <point x="278" y="581" type="line"/>
      <point x="55" y="581" type="line"/>
      <point x="55" y="253" type="line" smooth="yes"/>
      <point x="55" y="81"/>
      <point x="137" y="-8"/>
    </contour>
    <contour>
      <point x="403" y="-181" type="curve" smooth="yes"/>
      <point x="468" y="-181"/>
      <point x="488" y="-154"/>
      <point x="488" y="-103" type="curve" smooth="yes"/>
      <point x="488" y="-52"/>
      <point x="468" y="-24"/>
      <point x="403" y="-24" type="curve" smooth="yes"/>
      <point x="341" y="-24"/>
      <point x="318" y="-48"/>
      <point x="318" y="-103" type="curve" smooth="yes"/>
      <point x="318" y="-157"/>
      <point x="341" y="-181"/>
    </contour>
  </outline>
</glyph>
<glyph name="Uring.sc" format="1">
  <advance width="820"/>
  <outline>
    <contour>
      <point x="410" y="-8" type="curve" smooth="yes"/>
      <point x="682" y="-8"/>
      <point x="765" y="81"/>
      <point x="765" y="253" type="curve" smooth="yes"/>
      <point x="765" y="581" type="line"/>
      <point x="541" y="581" type="line"/>
      <point x="541" y="236" type="line" smooth="yes"/>
      <point x="541" y="204"/>
      <point x="503" y="165"/>
      <point x="410" y="165" type="curve" smooth="yes"/>
      <point x="317" y="165"/>
      <point x="278" y="204"/>
      <point x="278" y="236" type="curve" smooth="yes"/>
      <point x="278" y="581" type="line"/>
      <point x="55" y="581" type="line"/>
      <point x="55" y="253" type="line" smooth="yes"/>
      <point x="55" y="81"/>
      <point x="137" y="-8"/>
    </contour>
    <contour>
      <point x="408" y="604" type="curve" smooth="yes"/>
      <point x="486" y="604"/>
      <point x="544" y="641"/>
      <point x="544" y="699" type="curve" smooth="yes"/>
      <point x="544" y="756"/>
      <point x="486" y="795"/>
      <point x="408" y="795" type="curve" smooth="yes"/>
      <point x="330" y="795"/>
      <point x="272" y="756"/>
      <point x="272" y="699" type="curve" smooth="yes"/>
      <point x="272" y="641"/>
      <point x="330" y="604"/>
    </contour>
    <contour>
      <point x="408" y="666" type="curve" smooth="yes"/>
      <point x="364" y="666"/>
      <point x="352" y="676"/>
      <point x="352" y="699" type="curve" smooth="yes"/>
      <point x="352" y="723"/>
      <point x="364" y="732"/>
      <point x="408" y="732" type="curve" smooth="yes"/>
      <point x="452" y="732"/>
      <point x="463" y="723"/>
      <point x="463" y="699" type="curve" smooth="yes"/>
      <point x="463" y="676"/>
      <point x="452" y="666"/>
    </contour>
  </outline>
</glyph>
<glyph name="X.sc" format="1">
  <advance width="753"/>
  <outline>
    <contour>
      <point x="-10" y="0" type="line"/>
      <point x="252" y="0" type="line"/>
      <point x="347" y="140" type="line"/>
      <point x="374" y="190" type="line"/>
      <point x="382" y="190" type="line"/>
      <point x="411" y="140" type="line"/>
      <point x="502" y="0" type="line"/>
      <point x="764" y="0" type="line"/>
      <point x="534" y="293" type="line"/>
      <point x="748" y="577" type="line"/>
      <point x="486" y="577" type="line"/>
      <point x="415" y="466" type="line"/>
      <point x="383" y="408" type="line"/>
      <point x="375" y="408" type="line"/>
      <point x="342" y="466" type="line"/>
      <point x="267" y="577" type="line"/>
      <point x="5" y="577" type="line"/>
      <point x="210" y="305" type="line"/>
    </contour>
  </outline>
</glyph>
<glyph name="Z.sc" format="1">
  <advance width="686"/>
  <outline>
    <contour>
      <point x="39" y="0" type="line"/>
      <point x="651" y="0" type="line"/>
      <point x="651" y="165" type="line"/>
      <point x="321" y="165" type="line"/>
      <point x="321" y="173" type="line"/>
      <point x="636" y="435" type="line"/>
      <point x="636" y="577" type="line"/>
      <point x="47" y="577" type="line"/>
      <point x="47" y="413" type="line"/>
      <point x="348" y="413" type="line"/>
      <point x="348" y="404" type="line"/>
      <point x="39" y="148" type="line"/>
    </contour>
    <contour>
      <point x="233" y="760" type="move" name="topUC"/>
    </contour>
    <contour>
      <point x="226" y="0" type="move" name="bottom"/>
    </contour>
  </outline>
</glyph>
<glyph name=".notdef" format="1">
  <advance width="903"/>
  <outline>
    <contour>
      <point x="72" y="-220" type="line"/>
      <point x="831" y="-220" type="line"/>
      <point x="831" y="1030" type="line"/>
      <point x="72" y="1030" type="line"/>
    </contour>
    <contour>
      <point x="254" y="-52" type="line"/>
      <point x="254" y="862" type="line"/>
      <point x="650" y="862" type="line"/>
      <point x="650" y="-52" type="line"/>
    </contour>
  </outline>
</glyph>
<glyph name="acute.cap" format="1">
  <advance width="334"/>
  <outline>
    <contour>
      <point x="196" y="807" type="line"/>
      <point x="328" y="1008" type="line"/>
      <point x="93" y="1008" type="line"/>
      <point x="31" y="817" type="line"/>
    </contour>
    <contour>
      <point x="111" y="885" type="move" name="_topUC"/>
    </contour>
  </outline>
</glyph>
<glyph name="bar.tab" format="1">
  <advance width="335"/>
  <outline>
    <contour>
      <point x="61" y="808" type="line"/>
      <point x="61" y="-220" type="line"/>
      <point x="274" y="-220" type="line"/>
      <point x="274" y="808" type="line"/>
    </contour>
  </outline>
</glyph>
<glyph name="bracketleft.sc" format="1">
  <advance width="408"/>
  <outline>
    <contour>
      <point x="82" y="-125" type="line"/>
      <point x="370" y="-125" type="line"/>
      <point x="370" y="10" type="line"/>
      <point x="248" y="10" type="line"/>
      <point x="248" y="542" type="line"/>
      <point x="370" y="542" type="line"/>
      <point x="370" y="677" type="line"/>
      <point x="82" y="677" type="line"/>
    </contour>
  </outline>
</glyph>
<glyph name="bracketright.sc" format="1">
  <advance width="408"/>
  <outline>
    <contour>
      <point x="326" y="-125" type="line"/>
      <point x="326" y="677" type="line"/>
      <point x="38" y="677" type="line"/>
      <point x="38" y="542" type="line"/>
      <point x="161" y="542" type="line"/>
      <point x="161" y="10" type="line"/>
      <point x="38" y="10" type="line"/>
      <point x="38" y="-125" type="line"/>
    </contour>
  </outline>
</glyph>
<glyph name="breve.cap" format="1">
  <advance width="569"/>
  <outline>
    <contour>
      <point x="284" y="811" type="curve" smooth="yes"/>
      <point x="482" y="811"/>
      <point x="540" y="895"/>
      <point x="540" y="1006" type="curve"/>
      <point x="391" y="1006" type="line"/>
      <point x="391" y="949"/>
      <point x="371" y="916"/>
      <point x="284" y="916" type="curve" smooth="yes"/>
      <point x="198" y="916"/>
      <point x="177" y="949"/>
      <point x="177" y="1006" type="curve"/>
      <point x="28" y="1006" type="line"/>
      <point x="28" y="899"/>
      <point x="85" y="811"/>
    </contour>
    <contour>
      <point x="284" y="885" type="move" name="_topUC"/>
    </contour>
  </outline>
</glyph>
<glyph name="caron.alt" format="1">
  <advance width="262"/>
  <outline>
    <contour>
      <point x="51" y="580" type="line"/>
      <point x="176" y="580" type="line"/>
      <point x="229" y="808" type="line"/>
      <point x="51" y="808" type="line"/>
    </contour>
    <contour>
      <point x="51" y="674" type="move" name="_caronalt"/>
    </contour>
  </outline>
</glyph>
<glyph name="circumflex.cap" format="1">
  <advance width="540"/>
  <outline>
    <contour>
      <point x="31" y="797" type="line"/>
      <point x="266" y="878" type="line"/>
      <point x="501" y="797" type="line"/>
      <point x="501" y="945" type="line"/>
      <point x="263" y="1027" type="line"/>
      <point x="31" y="945" type="line"/>
    </contour>
    <contour>
      <point x="281" y="885" type="move" name="_topUC"/>
    </contour>
  </outline>
</glyph>
<glyph name="colon.tab" format="1">
  <advance width="335"/>
  <outline>
    <contour>
      <point x="167" y="-10" type="curve" smooth="yes"/>
      <point x="240" y="-10"/>
      <point x="290" y="26"/>
      <point x="290" y="105" type="curve" smooth="yes"/>
      <point x="290" y="185"/>
      <point x="240" y="220"/>
      <point x="167" y="220" type="curve" smooth="yes"/>
      <point x="94" y="220"/>
      <point x="44" y="185"/>
      <point x="44" y="105" type="curve" smooth="yes"/>
      <point x="44" y="26"/>
      <point x="94" y="-10"/>
    </contour>
    <contour>
      <point x="167" y="320" type="curve" smooth="yes"/>
      <point x="240" y="320"/>
      <point x="290" y="356"/>
      <point x="290" y="435" type="curve" smooth="yes"/>
      <point x="290" y="515"/>
      <point x="240" y="550"/>
      <point x="167" y="550" type="curve" smooth="yes"/>
      <point x="94" y="550"/>
      <point x="44" y="515"/>
      <point x="44" y="435" type="curve" smooth="yes"/>
      <point x="44" y="356"/>
      <point x="94" y="320"/>
    </contour>
  </outline>
</glyph>
<glyph name="comma.tab" format="1">
  <advance width="335"/>
  <outline>
    <contour>
      <point x="196" y="-155" type="line"/>
      <point x="298" y="217" type="line"/>
      <point x="67" y="217" type="line"/>
      <point x="25" y="-145" type="line"/>
    </contour>
  </outline>
</glyph>
<glyph name="degree.tab" format="1">
  <advance width="670"/>
  <outline>
    <contour>
      <point x="336" y="371" type="curve" smooth="yes"/>
      <point x="487" y="371"/>
      <point x="594" y="450"/>
      <point x="594" y="560" type="curve" smooth="yes"/>
      <point x="594" y="670"/>
      <point x="487" y="750"/>
      <point x="336" y="750" type="curve" smooth="yes"/>
      <point x="184" y="750"/>
      <point x="76" y="670"/>
      <point x="76" y="560" type="curve" smooth="yes"/>
      <point x="76" y="450"/>
      <point x="184" y="371"/>
    </contour>
    <contour>
      <point x="336" y="484" type="curve" smooth="yes"/>
      <point x="263" y="484"/>
      <point x="225" y="511"/>
      <point x="225" y="560" type="curve" smooth="yes"/>
      <point x="225" y="609"/>
      <point x="263" y="637"/>
      <point x="336" y="637" type="curve" smooth="yes"/>
      <point x="408" y="637"/>
      <point x="445" y="609"/>
      <point x="445" y="560" type="curve" smooth="yes"/>
      <point x="445" y="511"/>
      <point x="408" y="484"/>
    </contour>
  </outline>
</glyph>
<glyph name="divide.tab" format="1">
  <advance width="670"/>
  <outline>
    <contour>
      <point x="338" y="91" type="curve" smooth="yes"/>
      <point x="391" y="91"/>
      <point x="429" y="119"/>
      <point x="429" y="177" type="curve" smooth="yes"/>
      <point x="429" y="233"/>
      <point x="391" y="259"/>
      <point x="338" y="259" type="curve" smooth="yes"/>
      <point x="284" y="259"/>
      <point x="245" y="233"/>
      <point x="245" y="177" type="curve" smooth="yes"/>
      <point x="245" y="119"/>
      <point x="284" y="91"/>
    </contour>
    <contour>
      <point x="57" y="303" type="line"/>
      <point x="613" y="303" type="line"/>
      <point x="613" y="437" type="line"/>
      <point x="57" y="437" type="line"/>
    </contour>
    <contour>
      <point x="338" y="481" type="curve" smooth="yes"/>
      <point x="391" y="481"/>
      <point x="429" y="507"/>
      <point x="429" y="563" type="curve" smooth="yes"/>
      <point x="429" y="621"/>
      <point x="391" y="649"/>
      <point x="338" y="649" type="curve" smooth="yes"/>
      <point x="284" y="649"/>
      <point x="245" y="621"/>
      <point x="245" y="563" type="curve" smooth="yes"/>
      <point x="245" y="507"/>
      <point x="284" y="481"/>
    </contour>
  </outline>
</glyph>
<glyph name="dollar.tab" format="1">
  <advance width="670"/>
  <outline>
    <contour>
      <point x="229" y="-150" type="line"/>
      <point x="442" y="-150" type="line"/>
      <point x="442" y="-3" type="line"/>
      <point x="591" y="21"/>
      <point x="664" y="98"/>
      <point x="664" y="231" type="curve" smooth="yes"/>
      <point x="664" y="358"/>
      <point x="584" y="424"/>
      <point x="389" y="454" type="curve" smooth="yes"/>
      <point x="301" y="468"/>
      <point x="270" y="486"/>
      <point x="270" y="524" type="curve" smooth="yes"/>
      <point x="270" y="556"/>
      <point x="307" y="571"/>
      <point x="383" y="571" type="curve" smooth="yes"/>
      <point x="455" y="571"/>
      <point x="549" y="557"/>
      <point x="622" y="535" type="curve"/>
      <point x="622" y="720" type="line"/>
      <point x="533" y="735"/>
      <point x="477" y="744"/>
      <point x="429" y="748" type="curve"/>
      <point x="429" y="890" type="line"/>
      <point x="216" y="890" type="line"/>
      <point x="216" y="735" type="line"/>
      <point x="94" y="703"/>
      <point x="24" y="627"/>
      <point x="24" y="517" type="curve" smooth="yes"/>
      <point x="24" y="369"/>
      <point x="113" y="292"/>
      <point x="309" y="269" type="curve" smooth="yes"/>
      <point x="390" y="259"/>
      <point x="417" y="243"/>
      <point x="417" y="208" type="curve" smooth="yes"/>
      <point x="417" y="178"/>
      <point x="391" y="168"/>
      <point x="310" y="168" type="curve" smooth="yes"/>
      <point x="230" y="168"/>
      <point x="143" y="178"/>
      <point x="17" y="203" type="curve"/>
      <point x="17" y="17" type="line"/>
      <point x="79" y="5"/>
      <point x="157" y="-3"/>
      <point x="229" y="-8" type="curve"/>
    </contour>
  </outline>
</glyph>
<glyph name="dotbelow" format="1">
  <advance width="274"/>
  <outline>
    <contour>
      <point x="137" y="-220" type="curve" smooth="yes"/>
      <point x="206" y="-220"/>
      <point x="228" y="-191"/>
      <point x="228" y="-133" type="curve" smooth="yes"/>
      <point x="228" y="-75"/>
      <point x="206" y="-45"/>
      <point x="137" y="-45" type="curve" smooth="yes"/>
      <point x="71" y="-45"/>
      <point x="46" y="-71"/>
      <point x="46" y="-133" type="curve" smooth="yes"/>
      <point x="46" y="-194"/>
      <point x="71" y="-220"/>
    </contour>
    <contour>
      <point x="137" y="-110" type="move" name="_bottom"/>
    </contour>
  </outline>
</glyph>
<glyph name="eight.osf" format="1">
  <advance width="751"/>
  <outline>
    <contour>
      <point x="379" y="-10" type="curve" smooth="yes"/>
      <point x="608" y="-10"/>
      <point x="716" y="57"/>
      <point x="716" y="200" type="curve" smooth="yes"/>
      <point x="716" y="310"/>
      <point x="650" y="360"/>
      <point x="444" y="406" type="curve" smooth="yes"/>
      <point x="350" y="427"/>
      <point x="267" y="437"/>
      <point x="267" y="488" type="curve" smooth="yes"/>
      <point x="267" y="523"/>
      <point x="311" y="545"/>
      <point x="379" y="545" type="curve" smooth="yes"/>
      <point x="445" y="545"/>
      <point x="492" y="518"/>
      <point x="492" y="481" type="curve" smooth="yes"/>
      <point x="492" y="447"/>
      <point x="455" y="411"/>
      <point x="397" y="388" type="curve"/>
      <point x="494" y="324" type="line"/>
      <point x="655" y="379"/>
      <point x="698" y="418"/>
      <point x="698" y="510" type="curve" smooth="yes"/>
      <point x="698" y="624"/>
      <point x="581" y="696"/>
      <point x="395" y="696" type="curve" smooth="yes"/>
      <point x="195" y="696"/>
      <point x="61" y="621"/>
      <point x="61" y="510" type="curve" smooth="yes"/>
      <point x="61" y="389"/>
      <point x="135" y="329"/>
      <point x="332" y="291" type="curve" smooth="yes"/>
      <point x="451" y="268"/>
      <point x="495" y="241"/>
      <point x="495" y="191" type="curve" smooth="yes"/>
      <point x="495" y="159"/>
      <point x="441" y="142"/>
      <point x="379" y="142" type="curve" smooth="yes"/>
      <point x="308" y="142"/>
      <point x="253" y="165"/>
      <point x="253" y="204" type="curve" smooth="yes"/>
      <point x="253" y="244"/>
      <point x="283" y="278"/>
      <point x="349" y="312" type="curve"/>
      <point x="227" y="369" type="line"/>
      <point x="93" y="330"/>
      <point x="32" y="270"/>
      <point x="32" y="178" type="curve" smooth="yes"/>
      <point x="32" y="50"/>
      <point x="143" y="-10"/>
    </contour>
  </outline>
</glyph>
<glyph name="eight.tf" format="1">
  <advance width="670"/>
  <outline>
    <contour>
      <point x="338" y="-10" type="curve" smooth="yes"/>
      <point x="579" y="-10"/>
      <point x="660" y="76"/>
      <point x="660" y="216" type="curve" smooth="yes"/>
      <point x="660" y="312"/>
      <point x="615" y="364"/>
      <point x="555" y="396" type="curve"/>
      <point x="626" y="436"/>
      <point x="644" y="478"/>
      <point x="644" y="549" type="curve" smooth="yes"/>
      <point x="644" y="669"/>
      <point x="538" y="749"/>
      <point x="354" y="749" type="curve" smooth="yes"/>
      <point x="161" y="749"/>
      <point x="34" y="669"/>
      <point x="34" y="549" type="curve" smooth="yes"/>
      <point x="34" y="457"/>
      <point x="71" y="404"/>
      <point x="122" y="371" type="curve"/>
      <point x="41" y="330"/>
      <point x="7" y="273"/>
      <point x="7" y="192" type="curve" smooth="yes"/>
      <point x="7" y="67"/>
      <point x="90" y="-10"/>
    </contour>
    <contour>
      <point x="338" y="143" type="curve" smooth="yes"/>
      <point x="271" y="143"/>
      <point x="224" y="170"/>
      <point x="224" y="220" type="curve" smooth="yes"/>
      <point x="224" y="259"/>
      <point x="243" y="289"/>
      <point x="276" y="314" type="curve"/>
      <point x="373" y="291"/>
      <point x="443" y="274"/>
      <point x="443" y="206" type="curve" smooth="yes"/>
      <point x="443" y="165"/>
      <point x="406" y="143"/>
    </contour>
    <contour>
      <point x="338" y="597" type="curve" smooth="yes"/>
      <point x="399" y="597"/>
      <point x="442" y="569"/>
      <point x="442" y="529" type="curve" smooth="yes"/>
      <point x="442" y="504"/>
      <point x="430" y="472"/>
      <point x="396" y="444" type="curve"/>
      <point x="309" y="461"/>
      <point x="236" y="476"/>
      <point x="236" y="536" type="curve" smooth="yes"/>
      <point x="236" y="575"/>
      <point x="278" y="597"/>
    </contour>
  </outline>
</glyph>
<glyph name="eight.tosf" format="1">
  <advance width="670"/>
  <outline>
    <contour>
      <point x="332" y="-10" type="curve" smooth="yes"/>
      <point x="559" y="-10"/>
      <point x="660" y="56"/>
      <point x="660" y="199" type="curve" smooth="yes"/>
      <point x="660" y="272"/>
      <point x="634" y="322"/>
      <point x="543" y="362" type="curve"/>
      <point x="619" y="399"/>
      <point x="644" y="443"/>
      <point x="644" y="503" type="curve" smooth="yes"/>
      <point x="644" y="629"/>
      <point x="531" y="696"/>
      <point x="351" y="696" type="curve" smooth="yes"/>
      <point x="178" y="696"/>
      <point x="34" y="634"/>
      <point x="34" y="499" type="curve" smooth="yes"/>
      <point x="34" y="440"/>
      <point x="62" y="380"/>
      <point x="127" y="345" type="curve"/>
      <point x="44" y="306"/>
      <point x="7" y="253"/>
      <point x="7" y="178" type="curve" smooth="yes"/>
      <point x="7" y="52"/>
      <point x="112" y="-10"/>
    </contour>
    <contour>
      <point x="340" y="142" type="curve" smooth="yes"/>
      <point x="274" y="142"/>
      <point x="224" y="163"/>
      <point x="224" y="208" type="curve" smooth="yes"/>
      <point x="224" y="235"/>
      <point x="243" y="267"/>
      <point x="281" y="293" type="curve"/>
      <point x="312" y="286"/>
      <point x="443" y="265"/>
      <point x="443" y="197" type="curve" smooth="yes"/>
      <point x="443" y="156"/>
      <point x="394" y="142"/>
    </contour>
    <contour>
      <point x="335" y="545" type="curve" smooth="yes"/>
      <point x="399" y="545"/>
      <point x="442" y="518"/>
      <point x="442" y="481" type="curve" smooth="yes"/>
      <point x="442" y="456"/>
      <point x="423" y="430"/>
      <point x="392" y="408" type="curve"/>
      <point x="312" y="427"/>
      <point x="236" y="439"/>
      <point x="236" y="487" type="curve" smooth="yes"/>
      <point x="236" y="523"/>
      <point x="278" y="545"/>
    </contour>
  </outline>
</glyph>
<glyph name="equal.tab" format="1">
  <advance width="670"/>
  <outline>
    <contour>
      <point x="85" y="167" type="line"/>
      <point x="584" y="167" type="line"/>
      <point x="584" y="305" type="line"/>
      <point x="85" y="305" type="line"/>
    </contour>
    <contour>
      <point x="85" y="390" type="line"/>
      <point x="584" y="390" type="line"/>
      <point x="584" y="528" type="line"/>
      <point x="85" y="528" type="line"/>
    </contour>
  </outline>
</glyph>
<glyph name="f.calt" format="1">
  <advance width="546"/>
  <outline>
    <contour>
      <point x="146" y="0" type="line"/>
      <point x="376" y="0" type="line"/>
      <point x="376" y="349" type="line"/>
      <point x="532" y="349" type="line"/>
      <point x="532" y="540" type="line"/>
      <point x="376" y="540" type="line"/>
      <point x="376" y="566" type="line" smooth="yes"/>
      <point x="376" y="627"/>
      <point x="428" y="654"/>
      <point x="547" y="654" type="curve"/>
      <point x="537" y="816" type="line"/>
      <point x="257" y="816"/>
      <point x="147" y="747"/>
      <point x="147" y="563" type="curve" smooth="yes"/>
      <point x="147" y="540" type="line"/>
      <point x="15" y="540" type="line"/>
      <point x="15" y="349" type="line"/>
      <point x="146" y="349" type="line"/>
    </contour>
  </outline>
</glyph>
<glyph name="five.denominator" format="1">
  <advance width="533"/>
  <outline>
    <contour>
      <point x="216" y="-9" type="curve" smooth="yes"/>
      <point x="353" y="-9"/>
      <point x="510" y="23"/>
      <point x="510" y="175" type="curve" smooth="yes"/>
      <point x="510" y="306"/>
      <point x="431" y="346"/>
      <point x="203" y="346" type="curve"/>
      <point x="206" y="393" type="line"/>
      <point x="473" y="393" type="line"/>
      <point x="473" y="546" type="line"/>
      <point x="68" y="546" type="line"/>
      <point x="40" y="241" type="line"/>
      <point x="67" y="219" type="line"/>
      <point x="175" y="219" type="line" smooth="yes"/>
      <point x="276" y="219"/>
      <point x="309" y="212"/>
      <point x="309" y="178" type="curve" smooth="yes"/>
      <point x="309" y="150"/>
      <point x="270" y="145"/>
      <point x="188" y="145" type="curve" smooth="yes"/>
      <point x="151" y="145"/>
      <point x="116" y="147"/>
      <point x="74" y="153" type="curve"/>
      <point x="34" y="153" type="line"/>
      <point x="34" y="3" type="line"/>
      <point x="96" y="-3"/>
      <point x="158" y="-9"/>
    </contour>
  </outline>
</glyph>
<glyph name="five.osf" format="1">
  <advance width="642"/>
  <outline>
    <contour>
      <point x="260" y="-169" type="curve" smooth="yes"/>
      <point x="429" y="-169"/>
      <point x="622" y="-127"/>
      <point x="622" y="72" type="curve" smooth="yes"/>
      <point x="622" y="264"/>
      <point x="481" y="309"/>
      <point x="216" y="309" type="curve"/>
      <point x="238" y="249" type="line"/>
      <point x="251" y="514" type="line"/>
      <point x="162" y="408" type="line"/>
      <point x="576" y="408" type="line"/>
      <point x="576" y="584" type="line"/>
      <point x="76" y="584" type="line"/>
      <point x="43" y="169" type="line"/>
      <point x="68" y="145" type="line"/>
      <point x="146" y="145" type="line" smooth="yes"/>
      <point x="321" y="145"/>
      <point x="375" y="133"/>
      <point x="375" y="84" type="curve" smooth="yes"/>
      <point x="375" y="15"/>
      <point x="327" y="5"/>
      <point x="225" y="5" type="curve" smooth="yes"/>
      <point x="181" y="5"/>
      <point x="138" y="8"/>
      <point x="87" y="17" type="curve"/>
      <point x="36" y="17" type="line"/>
      <point x="36" y="-152" type="line"/>
      <point x="111" y="-161"/>
      <point x="186" y="-169"/>
    </contour>
  </outline>
</glyph>
<glyph name="five.tf" format="1">
  <advance width="670"/>
  <outline>
    <contour>
      <point x="273" y="-13" type="curve" smooth="yes"/>
      <point x="444" y="-13"/>
      <point x="638" y="29"/>
      <point x="638" y="228" type="curve" smooth="yes"/>
      <point x="638" y="414"/>
      <point x="505" y="462"/>
      <point x="253" y="465" type="curve"/>
      <point x="258" y="564" type="line"/>
      <point x="592" y="564" type="line"/>
      <point x="592" y="740" type="line"/>
      <point x="88" y="740" type="line"/>
      <point x="55" y="325" type="line"/>
      <point x="80" y="301" type="line"/>
      <point x="159" y="301" type="line" smooth="yes"/>
      <point x="336" y="301"/>
      <point x="391" y="289"/>
      <point x="391" y="240" type="curve" smooth="yes"/>
      <point x="391" y="171"/>
      <point x="342" y="161"/>
      <point x="238" y="161" type="curve" smooth="yes"/>
      <point x="194" y="161"/>
      <point x="150" y="164"/>
      <point x="99" y="173" type="curve"/>
      <point x="48" y="173" type="line"/>
      <point x="48" y="4" type="line"/>
      <point x="123" y="-5"/>
      <point x="199" y="-13"/>
    </contour>
  </outline>
</glyph>
<glyph name="four.denominator" format="1">
  <advance width="598"/>
  <outline>
    <contour>
      <point x="295" y="0" type="line"/>
      <point x="485" y="0" type="line"/>
      <point x="485" y="85" type="line"/>
      <point x="582" y="85" type="line"/>
      <point x="582" y="230" type="line"/>
      <point x="485" y="230" type="line"/>
      <point x="485" y="345" type="line"/>
      <point x="350" y="345" type="line"/>
      <point x="305" y="230" type="line"/>
      <point x="206" y="230" type="line"/>
      <point x="420" y="503" type="line"/>
      <point x="402" y="540" type="line"/>
      <point x="235" y="552" type="line"/>
      <point x="217" y="546" type="line"/>
      <point x="8" y="206" type="line"/>
      <point x="27" y="85" type="line"/>
      <point x="295" y="85" type="line"/>
    </contour>
  </outline>
</glyph>
<glyph name="four.osf" format="1">
  <advance width="746"/>
  <outline>
    <contour>
      <point x="31" y="0" type="line"/>
      <point x="730" y="0" type="line"/>
      <point x="730" y="176" type="line"/>
      <point x="244" y="176" type="line"/>
      <point x="244" y="180" type="line"/>
      <point x="512" y="551" type="line"/>
      <point x="502" y="575" type="line"/>
      <point x="263" y="595" type="line"/>
      <point x="259" y="595" type="line"/>
      <point x="10" y="156" type="line"/>
      <point x="10" y="142" type="line"/>
    </contour>
    <contour>
      <point x="377" y="-162" type="line"/>
      <point x="607" y="-162" type="line"/>
      <point x="607" y="328" type="line"/>
      <point x="440" y="328" type="line"/>
      <point x="377" y="105" type="line"/>
    </contour>
  </outline>
</glyph>
